<svg xmlns="http://www.w3.org/2000/svg" xmlns:xlink="http://www.w3.org/1999/xlink" width="520" zoomAndPan="magnify" viewBox="0 0 390 389.999986" height="520" preserveAspectRatio="xMidYMid meet" version="1.0"><defs><clipPath id="id1"><path d="M 72 335 L 141 335 L 141 348.230469 L 72 348.230469 Z M 72 335 " clip-rule="nonzero"/></clipPath><clipPath id="id2"><path d="M 90 41.480469 L 234 41.480469 L 234 88 L 90 88 Z M 90 41.480469 " clip-rule="nonzero"/></clipPath></defs><path fill="#69c9d0" d="M 186.980469 279.3125 L 153.367188 279.3125 L 153.367188 256.488281 L 186.980469 256.488281 Z M 325.597656 62.589844 L 271.613281 62.589844 L 271.613281 87.375 L 325.597656 87.375 Z M 326.625 304.453125 L 293.921875 304.453125 L 293.921875 328.519531 L 326.625 328.519531 Z M 326.625 304.453125 " fill-opacity="1" fill-rule="nonzero"/><g clip-path="url(#id1)"><path fill="#000000" d="M 94.296875 348.167969 L 73.132812 348.167969 C 72.972656 348.167969 72.824219 348.132812 72.683594 348.0625 C 72.542969 347.992188 72.421875 347.894531 72.324219 347.769531 C 72.230469 347.644531 72.167969 347.503906 72.136719 347.351562 C 72.105469 347.195312 72.109375 347.042969 72.152344 346.886719 L 73.230469 342.785156 L 73.230469 335.527344 L 83.089844 335.527344 L 83.089844 341.082031 L 94.5625 347.0625 C 94.710938 347.097656 94.828125 347.183594 94.910156 347.316406 C 94.992188 347.449219 95.015625 347.59375 94.980469 347.746094 C 94.941406 347.898438 94.859375 348.015625 94.726562 348.097656 C 94.59375 348.179688 94.449219 348.203125 94.296875 348.167969 Z M 139.714844 347.097656 L 128.234375 341.117188 L 128.234375 335.527344 L 118.398438 335.527344 L 118.398438 342.785156 L 117.304688 346.90625 C 117.265625 347.058594 117.265625 347.214844 117.296875 347.367188 C 117.328125 347.523438 117.390625 347.664062 117.488281 347.789062 C 117.585938 347.914062 117.703125 348.011719 117.847656 348.082031 C 117.988281 348.152344 118.136719 348.1875 118.296875 348.1875 L 139.5 348.1875 C 139.636719 348.195312 139.761719 348.15625 139.871094 348.070312 C 139.980469 347.984375 140.050781 347.875 140.078125 347.738281 C 140.109375 347.601562 140.089844 347.472656 140.023438 347.351562 C 139.953125 347.230469 139.855469 347.144531 139.726562 347.097656 Z M 139.714844 347.097656 " fill-opacity="1" fill-rule="nonzero"/></g><path fill="#000000" d="M 47.644531 313.890625 L 26.050781 313.890625 C 25.890625 313.890625 25.738281 313.855469 25.59375 313.78125 C 25.449219 313.710938 25.324219 313.613281 25.226562 313.484375 C 25.128906 313.355469 25.066406 313.210938 25.035156 313.054688 C 25.003906 312.894531 25.007812 312.738281 25.050781 312.582031 L 26.179688 308.300781 L 26.179688 300.132812 L 36.171875 300.132812 L 36.171875 306.703125 L 47.90625 312.835938 C 48.125 312.992188 48.203125 313.195312 48.136719 313.453125 C 48.074219 313.714844 47.90625 313.859375 47.644531 313.890625 Z M 47.644531 313.890625 " fill-opacity="1" fill-rule="nonzero"/><path fill="#000000" d="M 24.6875 305.195312 L 6.394531 293.777344 C 6.257812 293.695312 6.144531 293.582031 6.0625 293.449219 C 5.976562 293.3125 5.925781 293.164062 5.910156 293.003906 C 5.894531 292.84375 5.914062 292.6875 5.96875 292.535156 C 6.027344 292.386719 6.113281 292.253906 6.230469 292.144531 L 10.117188 288.515625 L 13.75 282.515625 L 22.234375 287.816406 L 18.910156 293.261719 L 25.480469 304.441406 C 25.585938 304.691406 25.542969 304.910156 25.347656 305.09375 C 25.152344 305.28125 24.929688 305.316406 24.6875 305.195312 Z M 24.6875 305.195312 " fill-opacity="1" fill-rule="nonzero"/><path fill="#ffffff" d="M 335.789062 119.386719 L 335.789062 229.199219 C 335.789062 229.894531 335.71875 230.582031 335.582031 231.265625 C 335.449219 231.949219 335.246094 232.609375 334.980469 233.253906 C 334.710938 233.894531 334.386719 234.507812 334 235.085938 C 333.609375 235.664062 333.171875 236.199219 332.679688 236.691406 C 332.1875 237.183594 331.652344 237.621094 331.070312 238.007812 C 330.492188 238.394531 329.882812 238.722656 329.238281 238.988281 C 328.59375 239.253906 327.933594 239.457031 327.25 239.59375 C 326.566406 239.730469 325.875 239.796875 325.179688 239.796875 L 149.636719 239.796875 C 148.9375 239.796875 148.25 239.730469 147.566406 239.59375 C 146.882812 239.457031 146.21875 239.253906 145.578125 238.988281 C 144.933594 238.722656 144.324219 238.394531 143.742188 238.007812 C 143.164062 237.621094 142.628906 237.183594 142.136719 236.691406 C 141.644531 236.199219 141.203125 235.664062 140.816406 235.085938 C 140.429688 234.507812 140.101562 233.894531 139.835938 233.253906 C 139.570312 232.609375 139.367188 231.949219 139.230469 231.265625 C 139.09375 230.582031 139.027344 229.894531 139.027344 229.199219 L 139.027344 119.386719 C 139.027344 118.691406 139.09375 118 139.230469 117.316406 C 139.367188 116.636719 139.570312 115.972656 139.835938 115.332031 C 140.101562 114.6875 140.429688 114.078125 140.816406 113.5 C 141.203125 112.921875 141.644531 112.382812 142.136719 111.894531 C 142.628906 111.402344 143.164062 110.960938 143.742188 110.574219 C 144.324219 110.1875 144.933594 109.859375 145.578125 109.59375 C 146.21875 109.328125 146.882812 109.125 147.566406 108.992188 C 148.25 108.855469 148.9375 108.785156 149.636719 108.785156 L 325.179688 108.785156 C 325.875 108.785156 326.566406 108.855469 327.25 108.992188 C 327.933594 109.125 328.59375 109.328125 329.238281 109.59375 C 329.882812 109.859375 330.492188 110.1875 331.070312 110.574219 C 331.652344 110.960938 332.1875 111.402344 332.679688 111.894531 C 333.171875 112.382812 333.609375 112.921875 334 113.5 C 334.386719 114.078125 334.710938 114.6875 334.980469 115.332031 C 335.246094 115.972656 335.449219 116.636719 335.582031 117.316406 C 335.71875 118 335.789062 118.691406 335.789062 119.386719 Z M 335.789062 119.386719 " fill-opacity="1" fill-rule="nonzero"/><path fill="#000000" d="M 325.179688 240.097656 L 149.636719 240.097656 C 148.917969 240.097656 148.203125 240.027344 147.5 239.886719 C 146.792969 239.746094 146.109375 239.539062 145.445312 239.261719 C 144.78125 238.988281 144.148438 238.648438 143.550781 238.25 C 142.953125 237.851562 142.402344 237.398438 141.890625 236.890625 C 141.382812 236.382812 140.929688 235.828125 140.53125 235.230469 C 140.128906 234.632812 139.792969 234.003906 139.515625 233.339844 C 139.242188 232.675781 139.035156 231.992188 138.894531 231.289062 C 138.75 230.582031 138.679688 229.871094 138.679688 229.152344 L 138.679688 119.386719 C 138.679688 118.667969 138.75 117.957031 138.894531 117.25 C 139.035156 116.546875 139.242188 115.863281 139.515625 115.199219 C 139.792969 114.535156 140.128906 113.902344 140.53125 113.308594 C 140.929688 112.710938 141.382812 112.15625 141.890625 111.648438 C 142.402344 111.140625 142.953125 110.6875 143.550781 110.289062 C 144.148438 109.886719 144.78125 109.550781 145.445312 109.277344 C 146.109375 109 146.792969 108.792969 147.5 108.652344 C 148.203125 108.511719 148.917969 108.441406 149.636719 108.441406 L 325.179688 108.441406 C 325.894531 108.445312 326.605469 108.519531 327.308594 108.660156 C 328.011719 108.804688 328.691406 109.015625 329.355469 109.292969 C 330.015625 109.570312 330.644531 109.90625 331.238281 110.304688 C 331.832031 110.707031 332.382812 111.160156 332.886719 111.667969 C 333.394531 112.175781 333.84375 112.726562 334.242188 113.324219 C 334.640625 113.917969 334.976562 114.550781 335.25 115.210938 C 335.523438 115.871094 335.730469 116.554688 335.871094 117.257812 C 336.007812 117.960938 336.078125 118.667969 336.078125 119.386719 L 336.078125 229.199219 C 336.078125 229.914062 336.003906 230.621094 335.863281 231.320312 C 335.71875 232.019531 335.511719 232.699219 335.234375 233.359375 C 334.960938 234.019531 334.625 234.644531 334.226562 235.238281 C 333.828125 235.832031 333.378906 236.382812 332.871094 236.886719 C 332.367188 237.390625 331.816406 237.84375 331.222656 238.242188 C 330.628906 238.640625 330.003906 238.976562 329.34375 239.25 C 328.683594 239.527344 328.003906 239.734375 327.304688 239.878906 C 326.601562 240.019531 325.894531 240.09375 325.179688 240.097656 Z M 149.636719 109.121094 C 148.960938 109.121094 148.292969 109.1875 147.632812 109.320312 C 146.96875 109.453125 146.328125 109.648438 145.707031 109.90625 C 145.082031 110.164062 144.492188 110.480469 143.929688 110.855469 C 143.371094 111.226562 142.851562 111.652344 142.375 112.128906 C 141.898438 112.605469 141.472656 113.125 141.097656 113.683594 C 140.722656 114.246094 140.40625 114.835938 140.144531 115.457031 C 139.886719 116.082031 139.691406 116.722656 139.5625 117.382812 C 139.429688 118.042969 139.363281 118.710938 139.363281 119.386719 L 139.363281 229.199219 C 139.363281 229.871094 139.429688 230.539062 139.5625 231.199219 C 139.691406 231.859375 139.886719 232.503906 140.144531 233.125 C 140.40625 233.746094 140.722656 234.339844 141.097656 234.898438 C 141.472656 235.457031 141.898438 235.976562 142.375 236.453125 C 142.851562 236.929688 143.371094 237.355469 143.929688 237.730469 C 144.492188 238.105469 145.082031 238.421875 145.707031 238.679688 C 146.328125 238.9375 146.96875 239.132812 147.632812 239.265625 C 148.292969 239.394531 148.960938 239.460938 149.636719 239.460938 L 325.179688 239.460938 C 325.851562 239.460938 326.519531 239.394531 327.183594 239.261719 C 327.84375 239.128906 328.484375 238.933594 329.105469 238.675781 C 329.730469 238.417969 330.320312 238.101562 330.878906 237.726562 C 331.441406 237.351562 331.960938 236.925781 332.433594 236.449219 C 332.910156 235.972656 333.335938 235.457031 333.710938 234.894531 C 334.085938 234.335938 334.402344 233.746094 334.660156 233.121094 C 334.917969 232.5 335.113281 231.859375 335.246094 231.199219 C 335.378906 230.539062 335.445312 229.871094 335.445312 229.199219 L 335.445312 119.386719 C 335.445312 118.710938 335.378906 118.046875 335.246094 117.382812 C 335.113281 116.722656 334.917969 116.082031 334.660156 115.460938 C 334.402344 114.839844 334.085938 114.246094 333.710938 113.6875 C 333.335938 113.128906 332.910156 112.609375 332.433594 112.132812 C 331.960938 111.65625 331.441406 111.230469 330.878906 110.855469 C 330.320312 110.480469 329.730469 110.164062 329.105469 109.90625 C 328.484375 109.648438 327.84375 109.453125 327.183594 109.320312 C 326.519531 109.1875 325.851562 109.121094 325.179688 109.121094 Z M 149.636719 109.121094 " fill-opacity="1" fill-rule="nonzero"/><path fill="#000000" d="M 223.070312 221.367188 L 159.484375 221.367188 C 159.183594 221.367188 158.890625 221.335938 158.597656 221.277344 C 158.304688 221.222656 158.019531 221.136719 157.746094 221.019531 C 157.46875 220.90625 157.207031 220.765625 156.960938 220.601562 C 156.710938 220.4375 156.480469 220.246094 156.269531 220.039062 C 156.058594 219.828125 155.871094 219.597656 155.707031 219.347656 C 155.539062 219.101562 155.402344 218.839844 155.285156 218.566406 C 155.171875 218.289062 155.085938 218.007812 155.027344 217.714844 C 154.96875 217.421875 154.941406 217.125 154.941406 216.828125 L 154.941406 194.855469 C 154.941406 194.558594 154.96875 194.265625 155.027344 193.972656 C 155.085938 193.679688 155.171875 193.394531 155.285156 193.121094 C 155.402344 192.84375 155.539062 192.582031 155.707031 192.335938 C 155.871094 192.089844 156.058594 191.859375 156.269531 191.648438 C 156.480469 191.4375 156.710938 191.25 156.960938 191.082031 C 157.207031 190.917969 157.46875 190.777344 157.746094 190.664062 C 158.019531 190.550781 158.304688 190.464844 158.597656 190.40625 C 158.890625 190.347656 159.183594 190.320312 159.484375 190.320312 L 223.070312 190.320312 C 223.367188 190.320312 223.664062 190.347656 223.953125 190.40625 C 224.246094 190.464844 224.53125 190.550781 224.808594 190.664062 C 225.082031 190.777344 225.34375 190.917969 225.59375 191.082031 C 225.839844 191.25 226.070312 191.4375 226.28125 191.648438 C 226.492188 191.859375 226.679688 192.089844 226.84375 192.335938 C 227.011719 192.582031 227.152344 192.84375 227.265625 193.121094 C 227.378906 193.394531 227.464844 193.679688 227.523438 193.972656 C 227.582031 194.265625 227.609375 194.558594 227.609375 194.855469 L 227.609375 216.875 C 227.609375 217.167969 227.574219 217.460938 227.515625 217.753906 C 227.457031 218.042969 227.367188 218.324219 227.253906 218.597656 C 227.136719 218.867188 226.996094 219.128906 226.828125 219.371094 C 226.664062 219.617188 226.476562 219.84375 226.265625 220.054688 C 226.054688 220.261719 225.824219 220.449219 225.578125 220.609375 C 225.332031 220.773438 225.070312 220.914062 224.796875 221.023438 C 224.523438 221.136719 224.238281 221.222656 223.949219 221.28125 C 223.660156 221.335938 223.363281 221.367188 223.070312 221.367188 Z M 159.484375 190.972656 C 158.972656 190.976562 158.480469 191.074219 158.011719 191.269531 C 157.539062 191.464844 157.125 191.746094 156.765625 192.105469 C 156.402344 192.464844 156.125 192.878906 155.929688 193.351562 C 155.734375 193.820312 155.632812 194.3125 155.632812 194.820312 L 155.632812 216.835938 C 155.632812 217.347656 155.730469 217.835938 155.925781 218.308594 C 156.121094 218.78125 156.402344 219.195312 156.761719 219.554688 C 157.121094 219.917969 157.539062 220.195312 158.011719 220.390625 C 158.480469 220.585938 158.972656 220.683594 159.484375 220.683594 L 223.070312 220.683594 C 223.578125 220.683594 224.070312 220.585938 224.542969 220.394531 C 225.015625 220.199219 225.429688 219.917969 225.792969 219.558594 C 226.152344 219.199219 226.433594 218.78125 226.628906 218.308594 C 226.824219 217.839844 226.921875 217.347656 226.921875 216.835938 L 226.921875 194.855469 C 226.917969 194.347656 226.820312 193.855469 226.625 193.386719 C 226.429688 192.914062 226.152344 192.5 225.789062 192.136719 C 225.429688 191.777344 225.011719 191.5 224.542969 191.304688 C 224.070312 191.109375 223.578125 191.011719 223.070312 191.007812 Z M 159.484375 190.972656 " fill-opacity="1" fill-rule="nonzero"/><path fill="#000000" d="M 162.425781 214.949219 C 162.335938 214.9375 162.261719 214.894531 162.207031 214.824219 C 162.144531 214.753906 162.113281 214.675781 162.113281 214.582031 C 162.113281 214.488281 162.144531 214.410156 162.207031 214.339844 L 171.335938 205.265625 C 171.402344 205.207031 171.476562 205.179688 171.5625 205.179688 C 171.652344 205.179688 171.726562 205.207031 171.789062 205.265625 L 181.691406 213.179688 L 196.726562 197.824219 C 196.796875 197.765625 196.878906 197.730469 196.972656 197.726562 C 197.066406 197.726562 197.148438 197.761719 197.214844 197.832031 L 210.707031 212.398438 L 219.917969 200.890625 C 219.972656 200.804688 220.050781 200.75 220.152344 200.734375 C 220.253906 200.714844 220.34375 200.738281 220.425781 200.800781 C 220.507812 200.867188 220.550781 200.949219 220.554688 201.054688 C 220.5625 201.15625 220.527344 201.246094 220.453125 201.320312 L 210.988281 213.117188 C 210.917969 213.195312 210.832031 213.234375 210.730469 213.234375 C 210.625 213.234375 210.539062 213.195312 210.46875 213.117188 L 197 198.558594 L 181.9375 213.84375 C 181.78125 213.964844 181.628906 213.964844 181.472656 213.84375 L 171.574219 205.917969 L 162.660156 214.824219 C 162.601562 214.902344 162.523438 214.945312 162.425781 214.949219 Z M 162.425781 214.949219 " fill-opacity="1" fill-rule="nonzero"/><path fill="#69c9d0" d="M 236.339844 93.664062 L 102.183594 93.664062 C 99.964844 93.664062 97.257812 91.851562 97.257812 89.664062 L 97.257812 51.910156 C 97.257812 51.644531 97.285156 51.386719 97.335938 51.125 C 97.386719 50.867188 97.464844 50.617188 97.5625 50.375 C 97.664062 50.132812 97.789062 49.898438 97.933594 49.679688 C 98.082031 49.460938 98.25 49.257812 98.433594 49.074219 C 98.621094 48.886719 98.824219 48.71875 99.042969 48.574219 C 99.261719 48.429688 99.492188 48.304688 99.738281 48.203125 C 99.980469 48.101562 100.230469 48.027344 100.492188 47.976562 C 100.75 47.925781 101.011719 47.898438 101.273438 47.898438 L 235.433594 47.898438 C 235.960938 47.902344 236.472656 48.007812 236.960938 48.210938 C 237.449219 48.417969 237.878906 48.707031 238.253906 49.082031 C 238.625 49.457031 238.914062 49.890625 239.117188 50.378906 C 239.320312 50.871094 239.417969 51.378906 239.417969 51.910156 L 239.417969 89.664062 C 239.417969 91.878906 238.554688 93.664062 236.339844 93.664062 Z M 236.339844 93.664062 " fill-opacity="1" fill-rule="nonzero"/><path fill="#69c9d0" d="M 195.71875 130.023438 C 201.09375 133.652344 204.019531 147.382812 206.664062 153.226562 C 210.296875 161.285156 217.910156 156.394531 219.527344 153.609375 C 220.835938 151.359375 224.160156 141.484375 226.238281 137.699219 C 230.78125 129.386719 238.140625 131.175781 241.019531 134.070312 C 245.097656 138.144531 249.375 152.675781 253.691406 157.847656 C 260.402344 165.90625 267.878906 157.183594 270.949219 154.015625 C 285.066406 139.496094 293.214844 150.949219 293.214844 150.949219 L 293.214844 168.539062 L 181.136719 168.539062 L 181.136719 125.230469 C 181.136719 125.230469 190.367188 126.382812 195.71875 130.023438 Z M 195.71875 130.023438 " fill-opacity="1" fill-rule="nonzero"/><path fill="#000000" d="M 277.273438 166.585938 C 269.695312 166.585938 264.863281 154.789062 261.972656 147.726562 L 261.972656 147.644531 C 261.492188 146.464844 261.066406 145.449219 260.695312 144.625 C 256.878906 136.191406 255.570312 134.378906 252.464844 133.152344 C 251.316406 132.648438 250.117188 132.398438 248.863281 132.398438 C 247.609375 132.398438 246.40625 132.648438 245.261719 133.152344 C 243.878906 133.828125 242.667969 134.726562 241.625 135.859375 C 240.582031 136.988281 239.78125 138.265625 239.21875 139.695312 C 238.59375 141.402344 238.03125 142.964844 237.53125 144.359375 L 237.414062 144.6875 C 234.597656 152.519531 233.304688 156.09375 230.144531 159.554688 C 227.683594 162.277344 224.8125 163.554688 221.851562 163.273438 C 220.308594 163.089844 218.871094 162.59375 217.546875 161.78125 C 216.21875 160.96875 215.125 159.917969 214.257812 158.628906 C 213.171875 156.773438 212.246094 154.84375 211.476562 152.835938 C 209.488281 147.625 206.734375 142.855469 203.210938 138.527344 C 196.625 130.4375 179.140625 134.460938 178.394531 134.640625 C 178.304688 134.660156 178.21875 134.648438 178.140625 134.597656 C 178.058594 134.546875 178.007812 134.476562 177.984375 134.386719 C 177.964844 134.296875 177.980469 134.210938 178.03125 134.132812 C 178.078125 134.050781 178.148438 134 178.242188 133.980469 C 179.003906 133.796875 196.890625 129.6875 203.738281 138.089844 C 207.304688 142.484375 210.09375 147.324219 212.105469 152.609375 C 212.855469 154.582031 213.761719 156.480469 214.828125 158.300781 C 215.636719 159.5 216.65625 160.480469 217.890625 161.238281 C 219.125 161.996094 220.460938 162.460938 221.898438 162.640625 C 224.621094 162.882812 227.347656 161.667969 229.636719 159.125 C 232.679688 155.777344 233.953125 152.238281 236.738281 144.488281 L 236.859375 144.171875 C 237.367188 142.773438 237.929688 141.203125 238.558594 139.496094 C 239.144531 137.984375 239.988281 136.632812 241.082031 135.4375 C 242.179688 134.242188 243.457031 133.285156 244.914062 132.570312 C 246.148438 132.03125 247.433594 131.761719 248.78125 131.761719 C 250.125 131.761719 251.414062 132.03125 252.644531 132.570312 C 255.96875 133.878906 257.332031 135.757812 261.246094 144.371094 C 261.621094 145.207031 262.046875 146.183594 262.527344 147.417969 L 262.527344 147.5 C 265.355469 154.398438 270.085938 165.933594 277.199219 165.933594 C 278.09375 165.925781 278.960938 165.765625 279.796875 165.453125 C 283.695312 164.019531 284.574219 161.132812 286.363281 150.386719 C 286.65625 148.644531 287.417969 146.285156 289.390625 144.941406 C 291.042969 143.84375 293.285156 143.609375 296.074219 144.242188 C 296.167969 144.261719 296.238281 144.3125 296.289062 144.394531 C 296.339844 144.472656 296.351562 144.558594 296.328125 144.652344 C 296.308594 144.742188 296.257812 144.8125 296.175781 144.863281 C 296.097656 144.910156 296.011719 144.925781 295.921875 144.90625 C 293.324219 144.304688 291.25 144.515625 289.769531 145.503906 C 288 146.695312 287.308594 148.871094 287.046875 150.476562 C 285.230469 161.539062 284.273438 164.507812 280.042969 166.070312 C 279.148438 166.402344 278.226562 166.574219 277.273438 166.585938 Z M 277.273438 166.585938 " fill-opacity="1" fill-rule="nonzero"/><path fill="#ffffff" d="M 97.949219 261.507812 L 84.207031 338.386719 L 68.644531 338.386719 L 68.699219 337.832031 C 68.78125 331.289062 75.804688 266.734375 75.964844 265.746094 C 76.140625 264.539062 75.703125 231.976562 75.558594 221.277344 L 75.503906 216.691406 C 75.5 216.617188 75.5 216.542969 75.503906 216.464844 L 75.503906 216.375 C 75.503906 216.085938 75.621094 215.847656 75.984375 215.839844 L 76.484375 215.839844 L 76.484375 216.09375 L 90.253906 225.523438 L 90.253906 225.714844 Z M 97.949219 261.507812 " fill-opacity="1" fill-rule="nonzero"/><path fill="#000000" d="M 84.207031 338.722656 L 68.644531 338.722656 C 68.542969 338.722656 68.457031 338.6875 68.390625 338.613281 C 68.320312 338.539062 68.292969 338.449219 68.300781 338.347656 L 68.355469 337.796875 C 68.445312 330.914062 75.621094 266.097656 75.621094 265.679688 C 75.730469 264.910156 75.621094 249.972656 75.210938 221.285156 L 75.148438 216.691406 L 75.148438 216.382812 C 75.144531 216.34375 75.144531 216.304688 75.148438 216.265625 C 75.152344 216.046875 75.234375 215.863281 75.394531 215.710938 C 75.550781 215.5625 75.738281 215.488281 75.957031 215.496094 L 76.449219 215.496094 C 76.542969 215.488281 76.628906 215.519531 76.699219 215.585938 C 76.765625 215.652344 76.800781 215.734375 76.800781 215.832031 L 76.800781 215.910156 L 90.425781 225.242188 C 90.507812 225.289062 90.554688 225.359375 90.574219 225.449219 L 90.574219 225.640625 L 98.183594 261.441406 C 98.195312 261.488281 98.195312 261.535156 98.183594 261.578125 L 84.433594 338.449219 C 84.414062 338.585938 84.335938 338.675781 84.207031 338.722656 Z M 69.035156 338.039062 L 83.914062 338.039062 L 97.605469 261.515625 L 89.992188 225.714844 L 76.367188 216.367188 C 76.292969 216.320312 76.246094 216.257812 76.230469 216.175781 L 76.058594 216.175781 C 75.957031 216.175781 75.929688 216.175781 75.910156 216.402344 L 75.910156 216.582031 L 75.976562 221.238281 C 76.21875 239.816406 76.539062 264.648438 76.375 265.707031 C 76.3125 266.097656 69.179688 330.898438 69.109375 337.75 Z M 69.035156 338.039062 " fill-opacity="1" fill-rule="nonzero"/><path fill="#ffffff" d="M 132.441406 338.386719 L 115.925781 338.386719 L 96.660156 263.832031 L 76.566406 217.410156 L 102.828125 224.667969 L 118.707031 257.96875 C 119.535156 259.71875 120.109375 261.554688 120.421875 263.46875 Z M 132.441406 338.386719 " fill-opacity="1" fill-rule="nonzero"/><path fill="#000000" d="M 132.441406 338.722656 L 115.925781 338.722656 C 115.746094 338.726562 115.636719 338.640625 115.597656 338.464844 L 96.332031 263.902344 L 76.257812 217.546875 C 76.195312 217.414062 76.214844 217.292969 76.3125 217.183594 C 76.40625 217.074219 76.519531 217.039062 76.65625 217.082031 L 102.917969 224.34375 C 103.019531 224.367188 103.09375 224.425781 103.136719 224.523438 L 119.015625 257.820312 C 119.859375 259.605469 120.441406 261.472656 120.757812 263.421875 L 132.777344 338.339844 C 132.796875 338.441406 132.769531 338.53125 132.703125 338.613281 C 132.632812 338.6875 132.542969 338.722656 132.441406 338.722656 Z M 116.1875 338.039062 L 132.050781 338.039062 L 120.085938 263.523438 C 119.785156 261.625 119.222656 259.808594 118.398438 258.078125 L 102.589844 224.914062 L 77.15625 217.898438 L 96.957031 263.648438 Z M 116.1875 338.039062 " fill-opacity="1" fill-rule="nonzero"/><path fill="#c59a94" d="M 158.835938 210.285156 L 158.027344 213.007812 L 155.140625 215.375 L 153.707031 215.613281 L 134.285156 234.28125 C 133.425781 235.121094 132.398438 235.539062 131.195312 235.542969 C 130.613281 235.539062 130.054688 235.429688 129.515625 235.214844 C 129.113281 235.058594 128.742188 234.847656 128.402344 234.582031 C 128.0625 234.320312 127.769531 234.011719 127.519531 233.660156 C 127.269531 233.308594 127.074219 232.929688 126.933594 232.523438 C 126.792969 232.117188 126.714844 231.699219 126.699219 231.265625 L 126 216.066406 L 136.972656 210.183594 L 136.972656 220.648438 L 149.425781 210.667969 L 152.816406 203.894531 L 156.285156 200.429688 L 156.601562 200.59375 C 156.8125 200.691406 157.429688 201.164062 156.855469 202.898438 C 156.527344 203.847656 156.027344 204.695312 155.347656 205.4375 L 154.957031 206.347656 C 155.277344 206.34375 155.578125 206.417969 155.859375 206.570312 C 156.136719 206.722656 156.363281 206.9375 156.53125 207.207031 C 156.894531 207.347656 157.195312 207.570312 157.433594 207.875 C 157.675781 208.175781 157.824219 208.519531 157.875 208.90625 C 158.378906 209.167969 158.683594 209.578125 158.78125 210.140625 Z M 158.835938 210.285156 " fill-opacity="1" fill-rule="nonzero"/><path fill="#c59a94" d="M 148.417969 173.785156 L 148.253906 174.15625 C 148.035156 174.644531 142.804688 186.296875 136.445312 188.085938 C 135.679688 188.308594 134.902344 188.363281 134.113281 188.257812 C 133.320312 188.152344 132.585938 187.890625 131.902344 187.476562 L 128.933594 192.597656 L 119.640625 186.164062 L 128.417969 174.109375 L 136.109375 164.828125 Z M 148.417969 173.785156 " fill-opacity="1" fill-rule="nonzero"/><path fill="#000000" d="M 128.597656 168.738281 C 128.597656 168.738281 121.792969 163.292969 129.324219 157.765625 C 136.855469 152.238281 138.042969 161.59375 138.042969 161.59375 C 138.042969 161.59375 155.214844 166.558594 147.710938 176.859375 C 146.519531 176.9375 145.34375 176.835938 144.183594 176.550781 L 141.988281 180.953125 L 140.523438 180.898438 C 140.523438 180.898438 141.316406 176.707031 139.097656 177.613281 C 136.882812 178.519531 136.636719 180.335938 137.089844 181.40625 C 137.089844 181.40625 132.304688 185.945312 126.410156 178.894531 C 126.410156 178.921875 123.785156 174.273438 128.597656 168.738281 Z M 128.597656 168.738281 " fill-opacity="1" fill-rule="nonzero"/><path fill="#69c9d0" d="M 135.292969 193.667969 C 137.238281 194.957031 138.34375 198.769531 138.34375 201.101562 L 138.40625 214.894531 L 125.546875 221.175781 L 125.546875 207.835938 C 125.546875 207.835938 111.113281 226.421875 108.6875 232.484375 C 108.6875 232.484375 83.894531 234.152344 73.695312 214.503906 L 85.304688 205.828125 C 82.933594 202.371094 79.855469 196.34375 81.472656 194.367188 C 84.386719 190.738281 106.851562 183.8125 106.851562 183.8125 L 120.476562 183.8125 Z M 135.292969 193.667969 " fill-opacity="1" fill-rule="nonzero"/><path fill="#c59a94" d="M 358.0625 333.375 L 367.5 333.375 L 367.5 343.523438 L 358.0625 343.523438 Z M 380.289062 314.5 L 373.441406 320.296875 L 377.773438 328.058594 L 385.867188 322.695312 Z M 380.289062 314.5 " fill-opacity="1" fill-rule="nonzero"/><path fill="#c59a94" d="M 336.34375 191.863281 L 326.296875 196.21875 C 325.773438 196.445312 325.226562 196.574219 324.652344 196.601562 C 324.082031 196.628906 323.527344 196.554688 322.980469 196.378906 C 322.4375 196.199219 321.945312 195.933594 321.5 195.574219 C 321.054688 195.214844 320.6875 194.789062 320.402344 194.292969 L 309.300781 175.335938 C 308.175781 175.210938 307.082031 174.960938 306.011719 174.589844 C 303.734375 173.828125 302.5625 171.359375 302.378906 171.042969 C 302.261719 170.8125 302.1875 170.566406 302.15625 170.308594 C 302.128906 170.050781 302.144531 169.796875 302.210938 169.546875 C 302.277344 169.292969 302.386719 169.0625 302.535156 168.851562 C 302.6875 168.640625 302.871094 168.464844 303.085938 168.320312 C 303.089844 167.894531 303.1875 167.492188 303.382812 167.117188 C 303.578125 166.738281 303.851562 166.425781 304.195312 166.179688 C 304.242188 165.730469 304.390625 165.320312 304.644531 164.945312 C 304.902344 164.574219 305.230469 164.285156 305.632812 164.082031 C 304.753906 163.445312 303.828125 162.894531 302.851562 162.429688 C 299.507812 160.761719 300.769531 158 300.78125 157.972656 L 301 157.53125 L 306.921875 160.253906 L 311.644531 163.726562 L 324.445312 183.511719 L 331.375 180.554688 Z M 336.34375 191.863281 " fill-opacity="1" fill-rule="nonzero"/><path fill="#ffffff" d="M 376.203125 223.535156 L 370.816406 261.207031 L 369.84375 337.785156 L 352.210938 337.785156 L 353.429688 261.453125 L 357.597656 221.820312 Z M 376.203125 223.535156 " fill-opacity="1" fill-rule="nonzero"/><path fill="#000000" d="M 369.84375 338.128906 L 352.210938 338.128906 C 352.113281 338.132812 352.03125 338.097656 351.96875 338.023438 C 351.902344 337.957031 351.867188 337.878906 351.867188 337.785156 L 353.09375 261.453125 L 357.253906 221.785156 C 357.265625 221.691406 357.308594 221.617188 357.378906 221.558594 C 357.453125 221.5 357.535156 221.476562 357.625 221.484375 L 376.238281 223.191406 C 376.339844 223.199219 376.417969 223.246094 376.476562 223.328125 C 376.53125 223.402344 376.558594 223.488281 376.546875 223.582031 L 371.132812 261.261719 L 370.226562 337.796875 C 370.222656 337.894531 370.183594 337.980469 370.109375 338.046875 C 370.03125 338.113281 369.945312 338.140625 369.84375 338.128906 Z M 352.585938 337.449219 L 369.535156 337.449219 L 370.507812 261.214844 L 375.847656 223.84375 L 357.925781 222.199219 L 353.800781 261.496094 Z M 352.585938 337.449219 " fill-opacity="1" fill-rule="nonzero"/><path fill="#ffffff" d="M 370.945312 221.703125 L 357.597656 261.941406 L 381.835938 315.277344 L 369.117188 325.0625 L 339.839844 265.882812 C 339.164062 264.519531 338.707031 263.089844 338.464844 261.589844 C 338.222656 260.09375 338.210938 258.589844 338.421875 257.085938 L 343.648438 220.105469 Z M 370.945312 221.703125 " fill-opacity="1" fill-rule="nonzero"/><path fill="#000000" d="M 369.109375 325.40625 L 369.027344 325.40625 C 368.921875 325.378906 368.847656 325.320312 368.800781 325.226562 L 339.523438 266.027344 C 338.835938 264.632812 338.367188 263.171875 338.121094 261.636719 C 337.875 260.105469 337.859375 258.570312 338.078125 257.03125 L 343.300781 220.058594 C 343.3125 219.972656 343.351562 219.898438 343.417969 219.839844 C 343.488281 219.785156 343.566406 219.761719 343.65625 219.769531 L 370.960938 221.355469 C 371.074219 221.367188 371.160156 221.417969 371.226562 221.511719 C 371.273438 221.609375 371.273438 221.703125 371.226562 221.800781 L 357.960938 261.925781 L 382.152344 315.144531 C 382.222656 315.308594 382.1875 315.441406 382.042969 315.550781 L 369.328125 325.335938 C 369.261719 325.382812 369.1875 325.40625 369.109375 325.40625 Z M 343.929688 220.46875 L 338.75 257.132812 C 338.542969 258.601562 338.554688 260.070312 338.789062 261.535156 C 339.027344 263 339.472656 264.398438 340.132812 265.726562 L 369.199219 324.542969 L 381.390625 315.171875 L 357.261719 262.085938 C 357.230469 262.003906 357.230469 261.917969 357.261719 261.832031 L 370.472656 222.011719 Z M 343.929688 220.46875 " fill-opacity="1" fill-rule="nonzero"/><path fill="#c59a94" d="M 368.707031 165.289062 L 369.042969 180.035156 L 356.882812 179.128906 L 357.789062 167.113281 C 356.554688 167.222656 353.8125 167.203125 351.957031 165.171875 C 349.796875 162.785156 349.652344 158.492188 351.53125 152.410156 C 352.640625 148.835938 354.457031 146.667969 356.980469 145.949219 C 361.714844 144.597656 367.09375 149.070312 367.484375 149.417969 C 367.875 149.761719 370.226562 152.148438 368.707031 165.289062 Z M 368.707031 165.289062 " fill-opacity="1" fill-rule="nonzero"/><path fill="#69c9d0" d="M 387.230469 206.738281 C 387.128906 207.335938 386.457031 208.144531 382.214844 209.578125 C 380.5 210.148438 378.792969 210.628906 378.054688 210.828125 L 377.929688 229.941406 L 377.238281 229.660156 C 377.164062 229.660156 369.972656 226.730469 357.617188 230.46875 C 356.433594 230.828125 355.222656 231.011719 353.984375 231.011719 C 347.179688 231.011719 341.847656 225.621094 341.59375 225.351562 L 341.429688 225.1875 L 343.882812 197.351562 L 343.335938 191.570312 L 333.582031 195.3125 L 327.53125 180.453125 L 347.960938 171.769531 C 349.503906 171.117188 351.105469 170.882812 352.765625 171.070312 L 367.882812 172.8125 C 369.917969 173.042969 371.679688 173.859375 373.167969 175.261719 C 385.839844 187.378906 387.484375 205.421875 387.230469 206.738281 Z M 387.230469 206.738281 " fill-opacity="1" fill-rule="nonzero"/><path fill="#000000" d="M 369.316406 346.542969 C 369.363281 346.707031 369.367188 346.875 369.332031 347.039062 C 369.300781 347.207031 369.230469 347.359375 369.125 347.492188 C 369.023438 347.625 368.894531 347.730469 368.738281 347.804688 C 368.585938 347.878906 368.425781 347.914062 368.253906 347.914062 L 345.410156 347.914062 C 345.265625 347.917969 345.140625 347.875 345.027344 347.789062 C 344.914062 347.699219 344.839844 347.589844 344.808594 347.449219 C 344.773438 347.3125 344.785156 347.179688 344.847656 347.050781 C 344.90625 346.921875 345 346.824219 345.128906 346.761719 L 358.054688 340.0625 C 362.414062 343.992188 367.601562 340.0625 367.601562 340.0625 Z M 384.304688 320.28125 C 384.304688 320.28125 382 326.359375 376.210938 325.335938 L 368.835938 337.894531 C 368.761719 338.015625 368.734375 338.148438 368.75 338.289062 C 368.769531 338.429688 368.828125 338.550781 368.929688 338.648438 C 369.035156 338.75 369.15625 338.804688 369.296875 338.820312 C 369.441406 338.832031 369.570312 338.800781 369.691406 338.722656 L 389.046875 326.613281 C 389.191406 326.523438 389.308594 326.40625 389.398438 326.261719 C 389.488281 326.117188 389.539062 325.960938 389.554688 325.792969 C 389.574219 325.625 389.550781 325.460938 389.488281 325.300781 C 389.429688 325.140625 389.335938 325.003906 389.210938 324.890625 Z M 384.304688 320.28125 " fill-opacity="1" fill-rule="nonzero"/><path fill="#000000" d="M 357.71875 152.703125 L 357.960938 157.113281 L 359.679688 157.113281 C 359.679688 157.113281 360.871094 152.773438 363.839844 155.640625 C 364.359375 156.140625 364.820312 157.601562 364.332031 159.554688 C 364.6875 160.304688 365.199219 160.925781 365.867188 161.417969 C 366.535156 161.914062 367.277344 162.21875 368.101562 162.339844 C 368.578125 162.195312 369.035156 162.003906 369.472656 161.757812 C 372.34375 159.390625 375.628906 150.207031 371.1875 146.585938 C 371.1875 146.585938 362.613281 136.3125 352.867188 142.238281 C 350.394531 143.742188 349.152344 149.035156 357.71875 152.703125 Z M 357.71875 152.703125 " fill-opacity="1" fill-rule="nonzero"/><path fill="#ffffff" d="M 36.125 194.683594 L 40.058594 232.15625 L 41.210938 304.316406 L 24.550781 304.316406 L 23.644531 231.921875 L 18.546875 196.300781 Z M 36.125 194.683594 " fill-opacity="1" fill-rule="nonzero"/><path fill="#000000" d="M 41.210938 304.667969 L 24.550781 304.667969 C 24.457031 304.671875 24.375 304.640625 24.308594 304.574219 C 24.242188 304.507812 24.207031 304.429688 24.207031 304.332031 L 23.296875 231.949219 L 18.210938 196.371094 C 18.191406 196.273438 18.21875 196.183594 18.285156 196.109375 C 18.34375 196.03125 18.421875 195.988281 18.519531 195.980469 L 36.105469 194.367188 C 36.199219 194.351562 36.285156 194.375 36.359375 194.4375 C 36.433594 194.496094 36.472656 194.570312 36.480469 194.667969 L 40.414062 232.140625 L 41.574219 304.324219 C 41.574219 304.417969 41.542969 304.5 41.476562 304.570312 C 41.402344 304.644531 41.316406 304.675781 41.210938 304.667969 Z M 24.859375 303.988281 L 40.867188 303.988281 L 39.722656 232.15625 L 35.816406 195.054688 L 18.921875 196.609375 L 23.960938 231.875 Z M 24.859375 303.988281 " fill-opacity="1" fill-rule="nonzero"/><path fill="#ffffff" d="M 49.316406 193.042969 L 54.257812 227.992188 C 54.667969 230.898438 54.222656 233.671875 52.921875 236.304688 L 25.242188 292.289062 L 13.234375 283.035156 L 36.125 232.609375 L 23.507812 194.566406 Z M 49.316406 193.042969 " fill-opacity="1" fill-rule="nonzero"/><path fill="#000000" d="M 25.242188 292.625 C 25.164062 292.625 25.09375 292.601562 25.035156 292.554688 L 12.996094 283.304688 C 12.855469 283.195312 12.820312 283.058594 12.898438 282.898438 L 35.761719 232.59375 L 23.226562 194.675781 C 23.195312 194.570312 23.210938 194.46875 23.273438 194.378906 C 23.335938 194.285156 23.421875 194.238281 23.535156 194.230469 L 49.34375 192.722656 C 49.429688 192.71875 49.511719 192.742188 49.578125 192.800781 C 49.648438 192.855469 49.691406 192.925781 49.707031 193.015625 L 54.636719 227.972656 C 54.847656 229.429688 54.835938 230.882812 54.601562 232.332031 C 54.371094 233.785156 53.929688 235.167969 53.273438 236.484375 L 25.550781 292.4375 C 25.503906 292.535156 25.429688 292.59375 25.324219 292.617188 Z M 13.625 282.886719 L 25.125 291.726562 L 52.613281 236.148438 C 53.890625 233.578125 54.324219 230.871094 53.921875 228.027344 L 49.023438 193.421875 L 23.972656 194.855469 L 36.441406 232.484375 C 36.476562 232.566406 36.476562 232.648438 36.441406 232.730469 Z M 13.625 282.886719 " fill-opacity="1" fill-rule="nonzero"/><path fill="#ffffff" d="M 76.339844 133.660156 L 76.066406 141.574219 L 58.925781 154.789062 L 51.332031 145.902344 Z M 76.339844 133.660156 " fill-opacity="1" fill-rule="nonzero"/><path fill="#000000" d="M 58.925781 155.125 C 58.816406 155.128906 58.730469 155.089844 58.660156 155.007812 L 51.078125 146.121094 C 51 146.039062 50.976562 145.941406 51.003906 145.832031 C 51.027344 145.722656 51.085938 145.644531 51.1875 145.59375 L 76.183594 133.351562 C 76.296875 133.289062 76.410156 133.289062 76.519531 133.351562 C 76.625 133.421875 76.679688 133.515625 76.675781 133.644531 L 76.402344 141.558594 C 76.402344 141.667969 76.355469 141.753906 76.265625 141.820312 L 59.125 155.0625 C 59.066406 155.105469 59 155.128906 58.925781 155.125 Z M 51.875 146.050781 L 58.96875 154.351562 L 75.730469 141.402344 L 75.976562 134.214844 Z M 51.875 146.050781 " fill-opacity="1" fill-rule="nonzero"/><path fill="#000000" d="M 95.75 124.476562 L 90.507812 156.242188 C 90.472656 156.46875 90.398438 156.683594 90.289062 156.882812 C 90.175781 157.085938 90.03125 157.261719 89.859375 157.414062 C 89.683594 157.5625 89.488281 157.679688 89.273438 157.757812 C 89.054688 157.839844 88.832031 157.882812 88.601562 157.882812 L 69.246094 157.882812 C 68.957031 157.878906 68.683594 157.816406 68.425781 157.695312 C 68.164062 157.574219 67.941406 157.402344 67.757812 157.183594 C 67.574219 156.960938 67.445312 156.714844 67.367188 156.4375 C 67.292969 156.160156 67.28125 155.878906 67.328125 155.597656 L 72.570312 123.832031 C 72.605469 123.605469 72.675781 123.390625 72.789062 123.1875 C 72.902344 122.984375 73.042969 122.808594 73.21875 122.660156 C 73.394531 122.507812 73.589844 122.390625 73.804688 122.3125 C 74.023438 122.230469 74.246094 122.191406 74.476562 122.191406 L 93.835938 122.191406 C 94.121094 122.191406 94.394531 122.253906 94.65625 122.378906 C 94.914062 122.5 95.136719 122.671875 95.320312 122.890625 C 95.503906 123.113281 95.632812 123.359375 95.710938 123.636719 C 95.785156 123.914062 95.796875 124.195312 95.75 124.476562 Z M 95.75 124.476562 " fill-opacity="1" fill-rule="nonzero"/><path fill="#ffffff" d="M 61.824219 136.773438 C 61.316406 137.1875 60.738281 137.457031 60.09375 137.578125 C 59.449219 137.699219 58.8125 137.65625 58.1875 137.453125 L 56.082031 145.414062 L 45.179688 144.378906 L 50.097656 116.171875 L 63.476562 117.933594 L 63.539062 118.289062 C 63.613281 118.886719 66.066406 133.144531 61.824219 136.773438 Z M 61.824219 136.773438 " fill-opacity="1" fill-rule="nonzero"/><path fill="#000000" d="M 56.046875 145.75 L 45.144531 144.714844 C 45.042969 144.703125 44.964844 144.65625 44.898438 144.578125 C 44.839844 144.5 44.820312 144.414062 44.835938 144.316406 L 49.75 116.101562 C 49.765625 116.007812 49.808594 115.9375 49.882812 115.878906 C 49.957031 115.824219 50.039062 115.804688 50.132812 115.820312 L 63.511719 117.632812 C 63.679688 117.65625 63.777344 117.75 63.804688 117.914062 L 63.867188 118.269531 C 63.976562 118.878906 66.457031 133.316406 62.050781 137.0625 C 61.546875 137.488281 60.976562 137.773438 60.335938 137.917969 C 59.691406 138.066406 59.054688 138.058594 58.417969 137.898438 L 56.390625 145.539062 C 56.332031 145.699219 56.214844 145.769531 56.046875 145.75 Z M 45.542969 144.035156 L 55.792969 145.003906 L 57.824219 137.328125 C 57.847656 137.238281 57.898438 137.167969 57.980469 137.121094 C 58.058594 137.070312 58.144531 137.058594 58.234375 137.082031 C 58.8125 137.273438 59.398438 137.3125 59.996094 137.203125 C 60.589844 137.09375 61.125 136.847656 61.597656 136.464844 C 64.875 133.660156 64.058594 123.359375 63.167969 118.316406 L 63.167969 118.207031 L 50.339844 116.535156 Z M 45.542969 144.035156 " fill-opacity="1" fill-rule="nonzero"/><path fill="#ffffff" d="M 93.351562 125.25 L 88.292969 155.585938 C 88.246094 155.863281 88.15625 156.125 88.019531 156.367188 C 87.878906 156.613281 87.703125 156.824219 87.488281 157.003906 C 87.277344 157.1875 87.039062 157.324219 86.773438 157.421875 C 86.511719 157.519531 86.238281 157.566406 85.957031 157.566406 L 67.246094 157.566406 C 66.511719 157.566406 65.90625 157.289062 65.429688 156.730469 C 64.960938 156.167969 64.785156 155.527344 64.902344 154.808594 L 69.960938 124.46875 C 70.007812 124.191406 70.097656 123.933594 70.238281 123.691406 C 70.375 123.449219 70.546875 123.238281 70.761719 123.058594 C 70.972656 122.875 71.207031 122.738281 71.46875 122.640625 C 71.730469 122.542969 72 122.492188 72.277344 122.488281 L 90.992188 122.488281 C 91.335938 122.488281 91.664062 122.5625 91.980469 122.703125 C 92.292969 122.847656 92.5625 123.050781 92.785156 123.3125 C 93.011719 123.574219 93.167969 123.871094 93.261719 124.203125 C 93.359375 124.535156 93.378906 124.871094 93.324219 125.210938 Z M 93.351562 125.25 " fill-opacity="1" fill-rule="nonzero"/><path fill="#000000" d="M 85.957031 157.902344 L 67.246094 157.902344 C 67.050781 157.898438 66.855469 157.878906 66.664062 157.835938 C 66.472656 157.792969 66.289062 157.726562 66.113281 157.644531 C 65.933594 157.5625 65.765625 157.460938 65.613281 157.34375 C 65.457031 157.222656 65.3125 157.089844 65.1875 156.9375 C 65.0625 156.789062 64.953125 156.628906 64.859375 156.457031 C 64.769531 156.28125 64.695312 156.101562 64.640625 155.914062 C 64.589844 155.722656 64.558594 155.53125 64.546875 155.335938 C 64.535156 155.140625 64.542969 154.945312 64.574219 154.753906 L 69.636719 124.414062 C 69.6875 124.101562 69.792969 123.804688 69.953125 123.53125 C 70.109375 123.253906 70.308594 123.011719 70.546875 122.808594 C 70.789062 122.601562 71.058594 122.441406 71.355469 122.328125 C 71.652344 122.21875 71.960938 122.160156 72.277344 122.152344 L 90.992188 122.152344 C 91.816406 122.144531 92.503906 122.445312 93.054688 123.0625 C 93.59375 123.699219 93.796875 124.433594 93.660156 125.257812 L 88.628906 155.640625 C 88.574219 155.957031 88.46875 156.253906 88.308594 156.53125 C 88.152344 156.808594 87.949219 157.050781 87.703125 157.257812 C 87.460938 157.464844 87.1875 157.621094 86.886719 157.734375 C 86.589844 157.84375 86.277344 157.898438 85.957031 157.902344 Z M 72.277344 122.835938 C 72.039062 122.832031 71.804688 122.875 71.582031 122.957031 C 71.355469 123.039062 71.152344 123.15625 70.96875 123.308594 C 70.785156 123.464844 70.632812 123.644531 70.515625 123.855469 C 70.398438 124.0625 70.320312 124.285156 70.28125 124.523438 L 65.21875 154.859375 C 65.171875 155.15625 65.1875 155.445312 65.269531 155.730469 C 65.347656 156.019531 65.484375 156.273438 65.675781 156.5 C 65.867188 156.726562 66.097656 156.90625 66.367188 157.03125 C 66.636719 157.15625 66.921875 157.21875 67.21875 157.222656 L 85.929688 157.222656 C 86.171875 157.222656 86.402344 157.179688 86.628906 157.101562 C 86.855469 157.019531 87.058594 156.898438 87.242188 156.746094 C 87.425781 156.589844 87.574219 156.410156 87.695312 156.199219 C 87.8125 155.992188 87.890625 155.769531 87.929688 155.53125 L 92.988281 125.183594 C 93.039062 124.890625 93.023438 124.601562 92.945312 124.316406 C 92.867188 124.027344 92.730469 123.769531 92.539062 123.542969 C 92.34375 123.316406 92.113281 123.140625 91.84375 123.019531 C 91.574219 122.894531 91.289062 122.832031 90.992188 122.835938 Z M 72.277344 122.835938 " fill-opacity="1" fill-rule="nonzero"/><path fill="#ffffff" d="M 95.160156 141.113281 C 95.210938 141.542969 95.160156 141.960938 95.015625 142.367188 C 94.867188 142.773438 94.636719 143.128906 94.324219 143.425781 C 94.070312 143.84375 93.097656 144.878906 89.574219 145.703125 L 86.523438 146.613281 L 84.085938 154.871094 L 77.21875 152.402344 L 77.375 151.9375 C 77.484375 151.628906 80.097656 144.226562 83.167969 140.875 C 85.453125 138.566406 88.023438 136.636719 90.882812 135.09375 L 91.597656 134.714844 L 91.597656 135.53125 C 91.542969 136.710938 91.132812 137.753906 90.375 138.660156 C 90.871094 138.605469 91.300781 138.40625 91.664062 138.0625 L 94.695312 132.835938 L 95.105469 133.652344 C 95.632812 134.691406 95.753906 135.777344 95.46875 136.910156 C 95.636719 137.207031 95.71875 137.53125 95.71875 137.871094 C 95.71875 138.214844 95.636719 138.535156 95.46875 138.835938 C 95.628906 139.214844 95.683594 139.605469 95.625 140.015625 C 95.570312 140.421875 95.414062 140.789062 95.160156 141.113281 Z M 95.160156 141.113281 " fill-opacity="1" fill-rule="nonzero"/><path fill="#000000" d="M 84.085938 155.207031 C 84.046875 155.214844 84.007812 155.214844 83.96875 155.207031 L 77.101562 152.738281 C 77.015625 152.707031 76.953125 152.648438 76.914062 152.566406 C 76.871094 152.484375 76.867188 152.398438 76.894531 152.3125 L 77.046875 151.847656 C 77.328125 151.050781 79.828125 143.988281 82.914062 140.667969 C 85.226562 138.332031 87.828125 136.378906 90.71875 134.8125 L 91.445312 134.433594 C 91.558594 134.371094 91.667969 134.371094 91.78125 134.433594 C 91.890625 134.5 91.945312 134.597656 91.945312 134.722656 L 91.945312 135.539062 C 91.90625 136.40625 91.675781 137.214844 91.253906 137.972656 L 91.398438 137.863281 L 94.398438 132.671875 C 94.46875 132.554688 94.570312 132.5 94.707031 132.507812 C 94.839844 132.507812 94.9375 132.570312 94.996094 132.691406 L 95.40625 133.507812 C 95.960938 134.582031 96.105469 135.710938 95.839844 136.890625 C 96.144531 137.546875 96.144531 138.199219 95.839844 138.851562 C 95.980469 139.25 96.023438 139.65625 95.96875 140.074219 C 95.910156 140.492188 95.761719 140.875 95.523438 141.222656 C 95.5625 141.675781 95.503906 142.117188 95.34375 142.542969 C 95.183594 142.972656 94.941406 143.34375 94.617188 143.664062 C 94.234375 144.226562 93.097656 145.242188 89.683594 146.050781 L 86.820312 146.867188 L 84.40625 154.925781 C 84.378906 155.019531 84.320312 155.089844 84.234375 155.132812 C 84.191406 155.171875 84.140625 155.195312 84.085938 155.207031 Z M 77.636719 152.203125 L 83.851562 154.433594 L 86.195312 146.492188 C 86.226562 146.375 86.304688 146.296875 86.421875 146.257812 L 89.484375 145.351562 C 92.988281 144.523438 93.851562 143.535156 94.023438 143.21875 L 94.078125 143.125 C 94.652344 142.570312 94.890625 141.894531 94.796875 141.101562 C 94.789062 141.023438 94.808594 140.953125 94.851562 140.886719 C 95.070312 140.609375 95.199219 140.296875 95.246094 139.949219 C 95.296875 139.601562 95.25 139.265625 95.113281 138.941406 C 95.074219 138.847656 95.074219 138.75 95.113281 138.652344 C 95.253906 138.402344 95.324219 138.132812 95.324219 137.84375 C 95.324219 137.558594 95.253906 137.289062 95.113281 137.039062 C 95.070312 136.9375 95.070312 136.835938 95.113281 136.738281 C 95.359375 135.707031 95.242188 134.714844 94.761719 133.769531 L 94.632812 133.515625 L 91.910156 138.199219 L 91.84375 138.28125 C 91.421875 138.671875 90.925781 138.898438 90.355469 138.960938 C 90.203125 138.984375 90.089844 138.925781 90.019531 138.789062 C 89.925781 138.660156 89.925781 138.535156 90.019531 138.40625 C 90.730469 137.566406 91.113281 136.59375 91.171875 135.496094 L 91.171875 135.238281 L 90.945312 135.359375 C 88.125 136.894531 85.585938 138.796875 83.324219 141.074219 C 80.28125 144.351562 77.710938 151.703125 77.601562 151.964844 Z M 77.636719 152.203125 " fill-opacity="1" fill-rule="nonzero"/><path fill="#69c9d0" d="M 75.304688 133.96875 L 74.257812 135.058594 L 75.222656 136.773438 L 76.738281 136.457031 C 77.5 137.230469 78.410156 137.742188 79.464844 138 L 79.890625 139.503906 L 81.84375 139.503906 L 82.269531 137.953125 C 83.285156 137.6875 84.15625 137.179688 84.886719 136.429688 L 86.402344 136.746094 L 87.375 135.058594 L 86.320312 133.96875 C 86.46875 133.460938 86.542969 132.9375 86.539062 132.410156 C 86.539062 131.902344 86.472656 131.402344 86.339844 130.910156 L 87.421875 129.6875 L 86.429688 128.015625 L 84.90625 128.40625 C 84.167969 127.652344 83.289062 127.136719 82.269531 126.863281 L 81.835938 125.367188 L 79.890625 125.367188 L 79.410156 126.855469 C 78.375 127.117188 77.484375 127.632812 76.738281 128.398438 L 75.238281 128.015625 L 74.25 129.6875 L 75.304688 130.882812 C 75.164062 131.382812 75.09375 131.890625 75.09375 132.410156 C 75.09375 132.9375 75.164062 133.457031 75.304688 133.96875 Z M 77.65625 132.390625 C 77.65625 131.96875 77.738281 131.558594 77.898438 131.167969 C 78.0625 130.777344 78.292969 130.429688 78.59375 130.132812 C 78.890625 129.832031 79.238281 129.601562 79.628906 129.4375 C 80.023438 129.277344 80.429688 129.195312 80.851562 129.195312 C 81.277344 129.195312 81.683594 129.277344 82.078125 129.4375 C 82.46875 129.601562 82.816406 129.832031 83.113281 130.132812 C 83.414062 130.429688 83.644531 130.777344 83.808594 131.167969 C 83.96875 131.558594 84.050781 131.96875 84.050781 132.390625 C 84.050781 132.8125 83.96875 133.222656 83.808594 133.613281 C 83.644531 134.003906 83.414062 134.351562 83.113281 134.648438 C 82.816406 134.949219 82.46875 135.179688 82.078125 135.34375 C 81.683594 135.503906 81.277344 135.585938 80.851562 135.585938 C 80.429688 135.585938 80.019531 135.507812 79.628906 135.34375 C 79.234375 135.183594 78.890625 134.953125 78.589844 134.652344 C 78.289062 134.351562 78.058594 134.007812 77.898438 133.613281 C 77.734375 133.222656 77.65625 132.816406 77.65625 132.390625 Z M 70.460938 142.828125 L 69.816406 143.488281 L 70.40625 144.515625 L 71.316406 144.324219 C 71.773438 144.78125 72.3125 145.082031 72.941406 145.230469 L 73.195312 146.140625 L 74.375 146.140625 L 74.683594 145.230469 C 75.292969 145.074219 75.820312 144.769531 76.265625 144.324219 L 77.175781 144.515625 L 77.730469 143.488281 L 77.09375 142.828125 C 77.183594 142.53125 77.226562 142.230469 77.230469 141.917969 C 77.230469 141.609375 77.1875 141.308594 77.101562 141.011719 L 77.753906 140.269531 L 77.15625 139.25 L 76.246094 139.488281 C 75.796875 139.039062 75.257812 138.734375 74.640625 138.578125 L 74.375 137.671875 L 73.1875 137.671875 L 72.886719 138.578125 C 72.269531 138.738281 71.730469 139.039062 71.277344 139.488281 L 70.371094 139.25 L 69.769531 140.269531 L 70.40625 140.992188 C 70.324219 141.289062 70.28125 141.59375 70.28125 141.902344 C 70.292969 142.21875 70.355469 142.527344 70.460938 142.828125 Z M 71.878906 141.917969 C 71.878906 141.664062 71.929688 141.417969 72.027344 141.179688 C 72.125 140.941406 72.265625 140.734375 72.445312 140.554688 C 72.625 140.371094 72.835938 140.230469 73.074219 140.132812 C 73.308594 140.035156 73.558594 139.988281 73.8125 139.988281 C 74.070312 139.988281 74.316406 140.035156 74.554688 140.132812 C 74.789062 140.230469 75 140.371094 75.179688 140.554688 C 75.363281 140.734375 75.503906 140.941406 75.601562 141.179688 C 75.699219 141.417969 75.75 141.664062 75.75 141.917969 C 75.75 142.175781 75.699219 142.421875 75.601562 142.660156 C 75.503906 142.894531 75.363281 143.105469 75.179688 143.285156 C 75 143.46875 74.789062 143.609375 74.554688 143.707031 C 74.316406 143.804688 74.070312 143.851562 73.8125 143.851562 C 73.550781 143.855469 73.300781 143.808594 73.058594 143.707031 C 72.816406 143.605469 72.605469 143.464844 72.421875 143.277344 C 72.238281 143.089844 72.097656 142.875 72 142.632812 C 71.90625 142.386719 71.863281 142.136719 71.871094 141.875 Z M 71.878906 141.917969 " fill-opacity="1" fill-rule="nonzero"/><g clip-path="url(#id2)"><path fill="#000000" d="M 229.347656 87.929688 L 95.1875 87.929688 C 94.902344 87.929688 94.621094 87.902344 94.339844 87.84375 C 94.058594 87.789062 93.789062 87.707031 93.523438 87.597656 C 93.261719 87.488281 93.007812 87.351562 92.773438 87.195312 C 92.535156 87.035156 92.316406 86.855469 92.113281 86.652344 C 91.910156 86.453125 91.730469 86.234375 91.574219 85.996094 C 91.414062 85.757812 91.28125 85.507812 91.171875 85.246094 C 91.0625 84.980469 90.976562 84.710938 90.921875 84.429688 C 90.867188 84.152344 90.835938 83.867188 90.835938 83.582031 L 90.835938 45.828125 C 90.835938 45.542969 90.867188 45.261719 90.921875 44.980469 C 90.976562 44.703125 91.0625 44.429688 91.171875 44.167969 C 91.28125 43.902344 91.414062 43.652344 91.574219 43.414062 C 91.730469 43.179688 91.910156 42.960938 92.113281 42.757812 C 92.316406 42.554688 92.535156 42.375 92.773438 42.21875 C 93.007812 42.058594 93.261719 41.925781 93.523438 41.816406 C 93.789062 41.707031 94.058594 41.621094 94.339844 41.566406 C 94.621094 41.511719 94.902344 41.480469 95.1875 41.480469 L 229.347656 41.480469 C 229.632812 41.480469 229.914062 41.507812 230.195312 41.566406 C 230.476562 41.621094 230.746094 41.703125 231.011719 41.8125 C 231.277344 41.921875 231.527344 42.054688 231.765625 42.214844 C 232.003906 42.371094 232.222656 42.550781 232.425781 42.753906 C 232.628906 42.957031 232.808594 43.175781 232.96875 43.414062 C 233.128906 43.652344 233.261719 43.902344 233.371094 44.164062 C 233.480469 44.429688 233.5625 44.699219 233.621094 44.980469 C 233.675781 45.261719 233.707031 45.542969 233.707031 45.828125 L 233.707031 83.582031 C 233.707031 83.867188 233.675781 84.152344 233.621094 84.429688 C 233.5625 84.710938 233.480469 84.984375 233.371094 85.246094 C 233.261719 85.511719 233.128906 85.761719 232.96875 86 C 232.808594 86.234375 232.628906 86.457031 232.425781 86.65625 C 232.222656 86.859375 232.003906 87.039062 231.765625 87.199219 C 231.527344 87.355469 231.277344 87.488281 231.011719 87.597656 C 230.746094 87.707031 230.476562 87.789062 230.195312 87.847656 C 229.914062 87.902344 229.632812 87.929688 229.347656 87.929688 Z M 95.1875 42.164062 C 94.707031 42.164062 94.242188 42.253906 93.796875 42.4375 C 93.351562 42.621094 92.960938 42.886719 92.617188 43.226562 C 92.277344 43.566406 92.015625 43.957031 91.832031 44.402344 C 91.644531 44.847656 91.554688 45.3125 91.554688 45.792969 L 91.554688 83.546875 C 91.554688 84.027344 91.644531 84.492188 91.832031 84.9375 C 92.015625 85.378906 92.277344 85.773438 92.617188 86.113281 C 92.960938 86.453125 93.351562 86.714844 93.796875 86.898438 C 94.242188 87.085938 94.707031 87.175781 95.1875 87.175781 L 229.347656 87.175781 C 229.828125 87.175781 230.296875 87.085938 230.742188 86.902344 C 231.191406 86.71875 231.585938 86.457031 231.929688 86.117188 C 232.277344 85.777344 232.542969 85.382812 232.730469 84.9375 C 232.921875 84.496094 233.019531 84.03125 233.023438 83.546875 L 233.023438 45.828125 C 233.019531 45.34375 232.921875 44.882812 232.730469 44.4375 C 232.542969 43.992188 232.277344 43.597656 231.929688 43.257812 C 231.585938 42.917969 231.191406 42.65625 230.742188 42.472656 C 230.296875 42.289062 229.828125 42.199219 229.347656 42.199219 Z M 95.1875 42.164062 " fill-opacity="1" fill-rule="nonzero"/></g><path fill="#000000" d="M 297.328125 173.984375 L 177.421875 173.984375 C 176.980469 173.984375 176.558594 173.898438 176.148438 173.730469 C 175.742188 173.5625 175.382812 173.324219 175.070312 173.011719 C 174.757812 172.699219 174.515625 172.339844 174.34375 171.933594 C 174.175781 171.527344 174.089844 171.101562 174.089844 170.660156 L 174.089844 122.5625 C 174.089844 122.121094 174.175781 121.695312 174.34375 121.289062 C 174.515625 120.882812 174.757812 120.523438 175.070312 120.210938 C 175.382812 119.902344 175.742188 119.660156 176.148438 119.492188 C 176.558594 119.324219 176.980469 119.238281 177.421875 119.238281 L 297.328125 119.238281 C 297.769531 119.238281 298.195312 119.324219 298.601562 119.492188 C 299.011719 119.660156 299.371094 119.902344 299.683594 120.210938 C 299.996094 120.523438 300.234375 120.882812 300.40625 121.289062 C 300.574219 121.695312 300.660156 122.121094 300.664062 122.5625 L 300.664062 170.660156 C 300.660156 171.101562 300.574219 171.527344 300.40625 171.933594 C 300.234375 172.339844 299.996094 172.699219 299.683594 173.011719 C 299.371094 173.324219 299.011719 173.5625 298.601562 173.730469 C 298.195312 173.898438 297.769531 173.984375 297.328125 173.984375 Z M 177.421875 119.894531 C 177.070312 119.894531 176.734375 119.960938 176.410156 120.09375 C 176.085938 120.226562 175.800781 120.417969 175.550781 120.667969 C 175.300781 120.914062 175.109375 121.199219 174.976562 121.523438 C 174.839844 121.847656 174.773438 122.183594 174.769531 122.535156 L 174.769531 170.632812 C 174.773438 170.984375 174.839844 171.320312 174.976562 171.644531 C 175.109375 171.96875 175.300781 172.253906 175.550781 172.503906 C 175.800781 172.75 176.085938 172.941406 176.410156 173.074219 C 176.734375 173.207031 177.070312 173.277344 177.421875 173.277344 L 297.328125 173.277344 C 297.679688 173.277344 298.015625 173.207031 298.339844 173.074219 C 298.664062 172.941406 298.953125 172.75 299.199219 172.503906 C 299.449219 172.253906 299.640625 171.96875 299.777344 171.644531 C 299.910156 171.320312 299.980469 170.984375 299.980469 170.632812 L 299.980469 122.535156 C 299.980469 122.183594 299.910156 121.847656 299.777344 121.523438 C 299.640625 121.199219 299.449219 120.914062 299.199219 120.667969 C 298.953125 120.417969 298.664062 120.226562 298.339844 120.09375 C 298.015625 119.960938 297.679688 119.894531 297.328125 119.894531 Z M 177.421875 119.894531 " fill-opacity="1" fill-rule="nonzero"/><path fill="#69c9d0" d="M 260.785156 207.34375 L 269.078125 193.042969 C 270.394531 193.800781 271.582031 194.722656 272.640625 195.808594 C 273.703125 196.890625 274.597656 198.101562 275.328125 199.429688 C 276.058594 200.761719 276.59375 202.167969 276.933594 203.644531 C 277.277344 205.121094 277.414062 206.617188 277.34375 208.132812 Z M 288.21875 221.292969 C 289.496094 222.109375 290.863281 222.742188 292.316406 223.183594 C 293.765625 223.625 295.25 223.863281 296.769531 223.898438 C 298.289062 223.933594 299.78125 223.761719 301.253906 223.386719 C 302.722656 223.007812 304.117188 222.441406 305.429688 221.683594 L 297.148438 207.34375 Z M 288.21875 221.292969 " fill-opacity="1" fill-rule="nonzero"/><path fill="#000000" d="M 260.785156 221.046875 C 259.902344 221.050781 259.027344 220.964844 258.160156 220.792969 C 257.292969 220.621094 256.453125 220.363281 255.636719 220.027344 C 254.820312 219.691406 254.046875 219.277344 253.3125 218.785156 C 252.578125 218.296875 251.898438 217.742188 251.273438 217.117188 C 250.648438 216.492188 250.089844 215.8125 249.597656 215.082031 C 249.109375 214.347656 248.695312 213.574219 248.355469 212.757812 C 248.019531 211.945312 247.761719 211.101562 247.589844 210.238281 C 247.417969 209.371094 247.332031 208.5 247.332031 207.617188 C 247.332031 206.734375 247.417969 205.863281 247.589844 204.996094 C 247.761719 204.132812 248.015625 203.292969 248.351562 202.476562 C 248.691406 201.664062 249.105469 200.886719 249.59375 200.15625 C 250.085938 199.421875 250.644531 198.742188 251.265625 198.121094 C 251.890625 197.496094 252.570312 196.9375 253.304688 196.449219 C 254.039062 195.960938 254.8125 195.546875 255.628906 195.207031 C 256.445312 194.871094 257.285156 194.617188 258.152344 194.441406 C 259.019531 194.269531 259.890625 194.183594 260.777344 194.183594 C 261.660156 194.183594 262.535156 194.273438 263.398438 194.445312 C 264.265625 194.617188 265.105469 194.871094 265.921875 195.210938 C 266.738281 195.546875 267.511719 195.960938 268.246094 196.453125 C 268.980469 196.941406 269.660156 197.5 270.285156 198.125 C 270.910156 198.746094 271.464844 199.425781 271.957031 200.160156 C 272.449219 200.894531 272.859375 201.667969 273.199219 202.484375 C 273.535156 203.300781 273.789062 204.140625 273.960938 205.003906 C 274.132812 205.871094 274.21875 206.742188 274.21875 207.625 C 274.21875 208.507812 274.132812 209.378906 273.957031 210.242188 C 273.785156 211.105469 273.53125 211.945312 273.191406 212.757812 C 272.855469 213.574219 272.441406 214.347656 271.949219 215.078125 C 271.460938 215.8125 270.902344 216.488281 270.277344 217.113281 C 269.65625 217.734375 268.976562 218.292969 268.246094 218.78125 C 267.511719 219.269531 266.738281 219.683594 265.921875 220.023438 C 265.109375 220.359375 264.269531 220.613281 263.40625 220.789062 C 262.539062 220.960938 261.667969 221.046875 260.785156 221.046875 Z M 260.785156 194.730469 C 259.9375 194.730469 259.097656 194.8125 258.265625 194.976562 C 257.4375 195.140625 256.628906 195.382812 255.847656 195.707031 C 255.0625 196.03125 254.320312 196.425781 253.617188 196.898438 C 252.910156 197.367188 252.257812 197.902344 251.660156 198.5 C 251.0625 199.097656 250.527344 199.746094 250.054688 200.453125 C 249.582031 201.15625 249.1875 201.898438 248.859375 202.679688 C 248.535156 203.460938 248.292969 204.265625 248.125 205.097656 C 247.960938 205.925781 247.878906 206.765625 247.875 207.609375 C 247.875 208.457031 247.957031 209.296875 248.125 210.125 C 248.289062 210.957031 248.535156 211.761719 248.859375 212.542969 C 249.179688 213.328125 249.578125 214.070312 250.050781 214.773438 C 250.519531 215.476562 251.054688 216.128906 251.652344 216.726562 C 252.253906 217.324219 252.902344 217.859375 253.609375 218.332031 C 254.3125 218.800781 255.054688 219.199219 255.839844 219.523438 C 256.621094 219.847656 257.429688 220.089844 258.257812 220.257812 C 259.089844 220.421875 259.929688 220.503906 260.777344 220.503906 C 261.621094 220.503906 262.460938 220.421875 263.292969 220.257812 C 264.121094 220.09375 264.929688 219.847656 265.710938 219.523438 C 266.492188 219.199219 267.238281 218.804688 267.941406 218.332031 C 268.644531 217.863281 269.296875 217.328125 269.894531 216.730469 C 270.496094 216.132812 271.03125 215.480469 271.5 214.777344 C 271.972656 214.074219 272.367188 213.332031 272.691406 212.550781 C 273.015625 211.765625 273.261719 210.960938 273.425781 210.132812 C 273.59375 209.300781 273.675781 208.464844 273.675781 207.617188 C 273.671875 206.773438 273.589844 205.933594 273.421875 205.105469 C 273.257812 204.277344 273.011719 203.472656 272.6875 202.691406 C 272.363281 201.910156 271.96875 201.167969 271.496094 200.464844 C 271.027344 199.765625 270.492188 199.113281 269.894531 198.515625 C 269.296875 197.917969 268.644531 197.382812 267.941406 196.914062 C 267.238281 196.445312 266.496094 196.046875 265.714844 195.722656 C 264.933594 195.398438 264.128906 195.15625 263.296875 194.988281 C 262.46875 194.824219 261.628906 194.738281 260.785156 194.738281 Z M 297.121094 221.046875 C 296.238281 221.050781 295.363281 220.964844 294.496094 220.792969 C 293.628906 220.621094 292.789062 220.363281 291.972656 220.027344 C 291.15625 219.691406 290.378906 219.277344 289.644531 218.785156 C 288.910156 218.296875 288.230469 217.742188 287.605469 217.117188 C 286.984375 216.492188 286.425781 215.8125 285.933594 215.082031 C 285.441406 214.347656 285.027344 213.574219 284.691406 212.757812 C 284.351562 211.945312 284.097656 211.101562 283.925781 210.238281 C 283.753906 209.371094 283.667969 208.5 283.667969 207.617188 C 283.667969 206.734375 283.75 205.863281 283.925781 204.996094 C 284.097656 204.132812 284.351562 203.292969 284.6875 202.476562 C 285.027344 201.664062 285.441406 200.886719 285.929688 200.15625 C 286.421875 199.421875 286.976562 198.742188 287.601562 198.121094 C 288.226562 197.496094 288.90625 196.9375 289.640625 196.449219 C 290.375 195.960938 291.148438 195.546875 291.964844 195.207031 C 292.78125 194.871094 293.621094 194.617188 294.488281 194.441406 C 295.351562 194.269531 296.226562 194.183594 297.109375 194.183594 C 297.992188 194.183594 298.867188 194.273438 299.734375 194.445312 C 300.601562 194.617188 301.441406 194.871094 302.257812 195.210938 C 303.074219 195.546875 303.847656 195.960938 304.582031 196.453125 C 305.316406 196.941406 305.996094 197.5 306.621094 198.125 C 307.246094 198.746094 307.800781 199.425781 308.292969 200.160156 C 308.78125 200.894531 309.195312 201.667969 309.535156 202.484375 C 309.871094 203.300781 310.125 204.140625 310.296875 205.003906 C 310.46875 205.871094 310.554688 206.742188 310.554688 207.625 C 310.554688 208.503906 310.464844 209.378906 310.292969 210.238281 C 310.121094 211.101562 309.867188 211.941406 309.53125 212.753906 C 309.191406 213.566406 308.78125 214.339844 308.289062 215.070312 C 307.800781 215.800781 307.246094 216.480469 306.625 217.101562 C 306 217.726562 305.324219 218.28125 304.59375 218.769531 C 303.863281 219.261719 303.089844 219.675781 302.277344 220.015625 C 301.464844 220.351562 300.625 220.609375 299.761719 220.78125 C 298.898438 220.957031 298.027344 221.046875 297.148438 221.046875 Z M 297.121094 194.730469 C 296.273438 194.730469 295.433594 194.8125 294.601562 194.976562 C 293.773438 195.140625 292.964844 195.382812 292.183594 195.707031 C 291.398438 196.03125 290.65625 196.425781 289.949219 196.898438 C 289.246094 197.367188 288.59375 197.902344 287.996094 198.5 C 287.394531 199.097656 286.859375 199.746094 286.390625 200.453125 C 285.917969 201.15625 285.519531 201.898438 285.195312 202.679688 C 284.871094 203.460938 284.625 204.265625 284.460938 205.097656 C 284.296875 205.925781 284.210938 206.765625 284.210938 207.609375 C 284.210938 208.457031 284.292969 209.296875 284.457031 210.125 C 284.625 210.957031 284.867188 211.761719 285.191406 212.542969 C 285.515625 213.328125 285.914062 214.070312 286.382812 214.773438 C 286.855469 215.476562 287.390625 216.128906 287.988281 216.726562 C 288.585938 217.324219 289.238281 217.859375 289.941406 218.332031 C 290.648438 218.800781 291.390625 219.199219 292.171875 219.523438 C 292.957031 219.847656 293.761719 220.089844 294.59375 220.257812 C 295.425781 220.421875 296.261719 220.503906 297.109375 220.503906 C 297.957031 220.503906 298.796875 220.421875 299.625 220.257812 C 300.457031 220.09375 301.265625 219.847656 302.046875 219.523438 C 302.828125 219.199219 303.574219 218.804688 304.277344 218.332031 C 304.980469 217.863281 305.632812 217.328125 306.230469 216.730469 C 306.832031 216.132812 307.363281 215.480469 307.835938 214.777344 C 308.304688 214.074219 308.703125 213.332031 309.027344 212.550781 C 309.351562 211.765625 309.597656 210.960938 309.761719 210.132812 C 309.925781 209.300781 310.007812 208.464844 310.007812 207.617188 C 310.007812 206.773438 309.925781 205.9375 309.757812 205.109375 C 309.59375 204.28125 309.347656 203.480469 309.023438 202.699219 C 308.699219 201.917969 308.304688 201.179688 307.835938 200.476562 C 307.367188 199.773438 306.832031 199.125 306.234375 198.527344 C 305.640625 197.929688 304.988281 197.398438 304.289062 196.925781 C 303.585938 196.457031 302.847656 196.058594 302.066406 195.734375 C 301.289062 195.410156 300.484375 195.164062 299.65625 194.996094 C 298.828125 194.828125 297.992188 194.742188 297.148438 194.738281 Z M 297.121094 194.730469 " fill-opacity="1" fill-rule="nonzero"/><path fill="#ffffff" d="M 175.960938 60.121094 L 112.375 60.121094 C 112.269531 60.140625 112.175781 60.113281 112.09375 60.046875 C 112.011719 59.976562 111.972656 59.890625 111.972656 59.78125 C 111.972656 59.675781 112.011719 59.589844 112.09375 59.519531 C 112.175781 59.449219 112.269531 59.425781 112.375 59.441406 L 175.960938 59.441406 C 176.066406 59.425781 176.160156 59.449219 176.238281 59.519531 C 176.320312 59.589844 176.363281 59.675781 176.363281 59.78125 C 176.363281 59.890625 176.320312 59.976562 176.238281 60.046875 C 176.160156 60.113281 176.066406 60.140625 175.960938 60.121094 Z M 176.304688 66.140625 C 176.304688 66.042969 176.273438 65.964844 176.203125 65.894531 C 176.136719 65.828125 176.054688 65.796875 175.960938 65.796875 L 112.375 65.796875 C 112.277344 65.796875 112.199219 65.828125 112.128906 65.894531 C 112.0625 65.964844 112.027344 66.042969 112.027344 66.140625 C 112.027344 66.234375 112.0625 66.316406 112.128906 66.378906 C 112.199219 66.445312 112.28125 66.476562 112.375 66.476562 L 175.960938 66.476562 C 176.054688 66.476562 176.136719 66.445312 176.203125 66.378906 C 176.273438 66.316406 176.304688 66.234375 176.304688 66.140625 Z M 176.304688 73.398438 C 176.304688 73.308594 176.269531 73.226562 176.203125 73.164062 C 176.132812 73.097656 176.054688 73.0625 175.960938 73.0625 L 112.375 73.0625 C 112.269531 73.046875 112.175781 73.074219 112.09375 73.140625 C 112.011719 73.210938 111.972656 73.296875 111.972656 73.40625 C 111.972656 73.511719 112.011719 73.597656 112.09375 73.667969 C 112.175781 73.738281 112.269531 73.761719 112.375 73.746094 L 175.960938 73.746094 C 176.054688 73.746094 176.136719 73.710938 176.203125 73.644531 C 176.273438 73.578125 176.304688 73.496094 176.304688 73.398438 Z M 176.304688 73.398438 " fill-opacity="1" fill-rule="nonzero"/><path fill="#69c9d0" d="M 173.582031 205.492188 C 173.582031 205.761719 173.53125 206.023438 173.429688 206.273438 C 173.324219 206.523438 173.179688 206.742188 172.988281 206.933594 C 172.796875 207.128906 172.578125 207.273438 172.328125 207.378906 C 172.078125 207.484375 171.820312 207.535156 171.546875 207.535156 C 171.277344 207.535156 171.019531 207.484375 170.769531 207.382812 C 170.519531 207.277344 170.296875 207.128906 170.105469 206.941406 C 169.914062 206.75 169.769531 206.527344 169.664062 206.277344 C 169.5625 206.027344 169.511719 205.769531 169.511719 205.5 C 169.511719 205.230469 169.5625 204.96875 169.667969 204.71875 C 169.773438 204.472656 169.917969 204.25 170.109375 204.0625 C 170.304688 203.871094 170.523438 203.722656 170.773438 203.621094 C 171.023438 203.519531 171.285156 203.46875 171.554688 203.46875 C 171.824219 203.46875 172.082031 203.519531 172.328125 203.625 C 172.578125 203.726562 172.796875 203.871094 172.988281 204.0625 C 173.175781 204.25 173.324219 204.472656 173.425781 204.71875 C 173.527344 204.964844 173.582031 205.226562 173.582031 205.492188 Z M 181.691406 210.9375 C 181.421875 210.9375 181.164062 210.988281 180.917969 211.09375 C 180.667969 211.195312 180.449219 211.339844 180.261719 211.53125 C 180.070312 211.722656 179.921875 211.941406 179.820312 212.1875 C 179.71875 212.4375 179.667969 212.695312 179.667969 212.960938 C 179.667969 213.230469 179.71875 213.488281 179.820312 213.738281 C 179.921875 213.984375 180.070312 214.203125 180.261719 214.394531 C 180.449219 214.582031 180.667969 214.730469 180.917969 214.832031 C 181.164062 214.933594 181.421875 214.984375 181.691406 214.984375 C 181.960938 214.984375 182.21875 214.933594 182.46875 214.832031 C 182.714844 214.730469 182.933594 214.582031 183.125 214.394531 C 183.316406 214.203125 183.460938 213.984375 183.5625 213.738281 C 183.667969 213.488281 183.71875 213.230469 183.71875 212.960938 C 183.722656 212.691406 183.675781 212.429688 183.578125 212.175781 C 183.476562 211.921875 183.332031 211.699219 183.140625 211.503906 C 182.949219 211.3125 182.730469 211.160156 182.476562 211.058594 C 182.226562 210.953125 181.964844 210.902344 181.691406 210.902344 Z M 196.898438 196.582031 C 196.628906 196.578125 196.367188 196.628906 196.117188 196.734375 C 195.867188 196.835938 195.648438 196.980469 195.453125 197.171875 C 195.261719 197.363281 195.117188 197.582031 195.011719 197.832031 C 194.90625 198.082031 194.855469 198.339844 194.855469 198.609375 C 194.855469 198.882812 194.90625 199.140625 195.007812 199.390625 C 195.113281 199.640625 195.257812 199.859375 195.449219 200.050781 C 195.640625 200.242188 195.863281 200.390625 196.113281 200.492188 C 196.363281 200.597656 196.621094 200.648438 196.890625 200.648438 C 197.164062 200.648438 197.421875 200.59375 197.671875 200.492188 C 197.921875 200.386719 198.140625 200.238281 198.332031 200.046875 C 198.523438 199.855469 198.667969 199.636719 198.773438 199.386719 C 198.875 199.136719 198.925781 198.875 198.925781 198.605469 C 198.929688 198.332031 198.882812 198.070312 198.78125 197.820312 C 198.679688 197.566406 198.535156 197.34375 198.34375 197.152344 C 198.152344 196.957031 197.933594 196.808594 197.683594 196.703125 C 197.429688 196.597656 197.171875 196.542969 196.898438 196.542969 Z M 210.078125 210.511719 C 209.808594 210.511719 209.550781 210.5625 209.300781 210.667969 C 209.050781 210.769531 208.828125 210.917969 208.640625 211.109375 C 208.449219 211.300781 208.300781 211.519531 208.199219 211.769531 C 208.09375 212.019531 208.042969 212.277344 208.042969 212.546875 C 208.042969 212.816406 208.097656 213.078125 208.199219 213.328125 C 208.304688 213.574219 208.453125 213.796875 208.644531 213.984375 C 208.835938 214.175781 209.054688 214.324219 209.304688 214.425781 C 209.554688 214.527344 209.816406 214.578125 210.085938 214.578125 C 210.355469 214.578125 210.613281 214.523438 210.863281 214.421875 C 211.113281 214.316406 211.332031 214.167969 211.523438 213.976562 C 211.714844 213.785156 211.859375 213.566406 211.960938 213.316406 C 212.066406 213.066406 212.113281 212.804688 212.113281 212.535156 C 212.117188 212.261719 212.070312 212 211.96875 211.746094 C 211.867188 211.496094 211.722656 211.273438 211.53125 211.078125 C 211.339844 210.882812 211.117188 210.734375 210.867188 210.628906 C 210.613281 210.527344 210.351562 210.472656 210.078125 210.476562 Z M 210.078125 210.511719 " fill-opacity="1" fill-rule="nonzero"/><path fill="#000000" d="M 290.398438 294.6875 L 201.160156 294.6875 C 200.855469 294.6875 200.550781 294.65625 200.253906 294.597656 C 199.953125 294.535156 199.664062 294.449219 199.378906 294.332031 C 199.097656 294.214844 198.832031 294.070312 198.578125 293.902344 C 198.324219 293.730469 198.089844 293.539062 197.871094 293.324219 C 197.65625 293.109375 197.464844 292.871094 197.292969 292.621094 C 197.125 292.367188 196.980469 292.097656 196.863281 291.816406 C 196.746094 291.535156 196.660156 291.246094 196.597656 290.945312 C 196.539062 290.648438 196.507812 290.34375 196.507812 290.039062 L 196.507812 261.632812 C 196.507812 261.328125 196.539062 261.027344 196.597656 260.726562 C 196.660156 260.429688 196.746094 260.140625 196.863281 259.855469 C 196.980469 259.574219 197.125 259.308594 197.292969 259.054688 C 197.464844 258.800781 197.65625 258.566406 197.871094 258.351562 C 198.089844 258.136719 198.324219 257.941406 198.578125 257.773438 C 198.832031 257.605469 199.097656 257.460938 199.378906 257.34375 C 199.664062 257.226562 199.953125 257.136719 200.253906 257.078125 C 200.550781 257.019531 200.855469 256.988281 201.160156 256.988281 L 290.398438 256.988281 C 290.703125 256.988281 291.003906 257.019531 291.304688 257.078125 C 291.601562 257.136719 291.894531 257.226562 292.175781 257.34375 C 292.457031 257.460938 292.722656 257.605469 292.976562 257.773438 C 293.230469 257.941406 293.464844 258.136719 293.679688 258.351562 C 293.894531 258.566406 294.089844 258.800781 294.257812 259.054688 C 294.425781 259.308594 294.570312 259.578125 294.6875 259.859375 C 294.804688 260.140625 294.890625 260.429688 294.949219 260.730469 C 295.007812 261.027344 295.039062 261.328125 295.039062 261.632812 L 295.039062 290.003906 C 295.042969 290.308594 295.015625 290.613281 294.957031 290.914062 C 294.898438 291.214844 294.8125 291.507812 294.695312 291.789062 C 294.582031 292.074219 294.4375 292.34375 294.269531 292.601562 C 294.101562 292.855469 293.910156 293.09375 293.695312 293.308594 C 293.476562 293.527344 293.242188 293.722656 292.988281 293.894531 C 292.734375 294.0625 292.464844 294.207031 292.183594 294.328125 C 291.898438 294.445312 291.609375 294.535156 291.308594 294.59375 C 291.007812 294.65625 290.703125 294.6875 290.398438 294.6875 Z M 201.160156 257.703125 C 200.898438 257.703125 200.640625 257.730469 200.382812 257.78125 C 200.128906 257.832031 199.878906 257.90625 199.640625 258.007812 C 199.398438 258.105469 199.171875 258.226562 198.953125 258.371094 C 198.738281 258.515625 198.535156 258.683594 198.351562 258.867188 C 198.167969 259.050781 198.003906 259.25 197.859375 259.46875 C 197.714844 259.683594 197.589844 259.910156 197.492188 260.152344 C 197.390625 260.394531 197.316406 260.640625 197.265625 260.894531 C 197.214844 261.152344 197.1875 261.410156 197.1875 261.671875 L 197.1875 290.039062 C 197.1875 290.300781 197.214844 290.558594 197.265625 290.8125 C 197.316406 291.070312 197.390625 291.316406 197.492188 291.558594 C 197.589844 291.796875 197.714844 292.027344 197.859375 292.242188 C 198.003906 292.460938 198.167969 292.660156 198.351562 292.84375 C 198.535156 293.027344 198.738281 293.191406 198.953125 293.335938 C 199.171875 293.480469 199.398438 293.605469 199.640625 293.703125 C 199.878906 293.804688 200.128906 293.878906 200.382812 293.929688 C 200.640625 293.980469 200.898438 294.007812 201.160156 294.007812 L 290.398438 294.007812 C 290.921875 294.003906 291.429688 293.902344 291.914062 293.703125 C 292.398438 293.5 292.828125 293.214844 293.199219 292.839844 C 293.570312 292.46875 293.855469 292.039062 294.058594 291.554688 C 294.257812 291.070312 294.359375 290.566406 294.359375 290.039062 L 294.359375 261.632812 C 294.359375 261.109375 294.257812 260.605469 294.058594 260.117188 C 293.855469 259.632812 293.570312 259.203125 293.199219 258.832031 C 292.828125 258.460938 292.398438 258.175781 291.914062 257.972656 C 291.429688 257.769531 290.921875 257.667969 290.398438 257.667969 Z M 201.160156 257.703125 " fill-opacity="1" fill-rule="nonzero"/><path fill="#69c9d0" d="M 227.273438 274.546875 C 227.273438 275.246094 227.207031 275.941406 227.070312 276.625 C 226.9375 277.3125 226.734375 277.976562 226.464844 278.625 C 226.199219 279.269531 225.871094 279.882812 225.484375 280.464844 C 225.09375 281.046875 224.652344 281.585938 224.160156 282.078125 C 223.664062 282.574219 223.125 283.015625 222.546875 283.40625 C 221.964844 283.792969 221.347656 284.121094 220.703125 284.390625 C 220.058594 284.65625 219.390625 284.859375 218.703125 284.996094 C 218.019531 285.132812 217.324219 285.203125 216.625 285.203125 C 215.925781 285.203125 215.234375 285.136719 214.546875 285 C 213.859375 284.863281 213.191406 284.660156 212.546875 284.394531 C 211.898438 284.128906 211.285156 283.800781 210.703125 283.410156 C 210.121094 283.023438 209.582031 282.582031 209.089844 282.089844 C 208.59375 281.59375 208.152344 281.054688 207.761719 280.476562 C 207.375 279.894531 207.042969 279.28125 206.777344 278.636719 C 206.507812 277.988281 206.304688 277.324219 206.167969 276.636719 C 206.03125 275.953125 205.964844 275.257812 205.964844 274.558594 C 205.964844 273.859375 206.03125 273.167969 206.167969 272.484375 C 206.304688 271.796875 206.507812 271.132812 206.773438 270.484375 C 207.042969 269.839844 207.371094 269.226562 207.757812 268.644531 C 208.148438 268.0625 208.589844 267.527344 209.082031 267.03125 C 209.578125 266.535156 210.117188 266.09375 210.699219 265.707031 C 211.28125 265.316406 211.894531 264.988281 212.542969 264.722656 C 213.1875 264.453125 213.855469 264.253906 214.539062 264.117188 C 215.226562 263.980469 215.917969 263.910156 216.621094 263.910156 C 217.320312 263.910156 218.011719 263.980469 218.695312 264.117188 C 219.382812 264.253906 220.046875 264.453125 220.695312 264.722656 C 221.339844 264.988281 221.953125 265.316406 222.535156 265.703125 C 223.117188 266.09375 223.65625 266.53125 224.152344 267.027344 C 224.644531 267.519531 225.085938 268.058594 225.476562 268.636719 C 225.863281 269.21875 226.191406 269.832031 226.460938 270.476562 C 226.730469 271.121094 226.929688 271.789062 227.066406 272.472656 C 227.207031 273.15625 227.273438 273.851562 227.273438 274.546875 Z M 227.273438 274.546875 " fill-opacity="1" fill-rule="nonzero"/><path fill="#000000" d="M 283.148438 282.679688 L 234.46875 282.679688 C 234.277344 282.648438 234.179688 282.535156 234.179688 282.339844 C 234.179688 282.144531 234.277344 282.03125 234.46875 282 L 283.148438 282 C 283.339844 282.03125 283.4375 282.144531 283.4375 282.339844 C 283.4375 282.535156 283.339844 282.648438 283.148438 282.679688 Z M 283.484375 275.074219 C 283.484375 274.984375 283.449219 274.90625 283.382812 274.839844 C 283.320312 274.773438 283.242188 274.742188 283.148438 274.738281 L 234.46875 274.738281 C 234.277344 274.769531 234.179688 274.882812 234.179688 275.078125 C 234.179688 275.273438 234.277344 275.386719 234.46875 275.417969 L 283.148438 275.417969 C 283.242188 275.417969 283.320312 275.382812 283.386719 275.316406 C 283.453125 275.25 283.484375 275.167969 283.484375 275.074219 Z M 247.148438 268.722656 C 247.148438 268.625 247.117188 268.546875 247.046875 268.476562 C 246.980469 268.410156 246.898438 268.378906 246.804688 268.378906 L 234.46875 268.378906 C 234.375 268.378906 234.296875 268.414062 234.230469 268.480469 C 234.164062 268.546875 234.132812 268.628906 234.132812 268.722656 C 234.132812 268.816406 234.164062 268.894531 234.230469 268.960938 C 234.296875 269.023438 234.375 269.058594 234.46875 269.058594 L 246.785156 269.058594 C 246.882812 269.058594 246.960938 269.027344 247.03125 268.960938 C 247.097656 268.898438 247.132812 268.816406 247.132812 268.722656 Z M 247.148438 268.722656 " fill-opacity="1" fill-rule="nonzero"/><path fill="#ffffff" d="M 203.375 77.484375 C 202.660156 77.484375 201.949219 77.414062 201.25 77.273438 C 200.546875 77.136719 199.863281 76.929688 199.203125 76.65625 C 198.542969 76.382812 197.914062 76.046875 197.320312 75.648438 C 196.722656 75.25 196.171875 74.800781 195.667969 74.292969 C 195.160156 73.789062 194.710938 73.238281 194.3125 72.644531 C 193.914062 72.050781 193.578125 71.421875 193.304688 70.761719 C 193.03125 70.101562 192.824219 69.417969 192.683594 68.71875 C 192.542969 68.015625 192.476562 67.308594 192.476562 66.59375 C 192.476562 65.878906 192.542969 65.171875 192.683594 64.46875 C 192.824219 63.769531 193.03125 63.085938 193.304688 62.425781 C 193.578125 61.765625 193.914062 61.136719 194.3125 60.542969 C 194.710938 59.949219 195.160156 59.398438 195.667969 58.894531 C 196.171875 58.386719 196.722656 57.9375 197.320312 57.539062 C 197.914062 57.140625 198.542969 56.804688 199.203125 56.53125 C 199.863281 56.257812 200.546875 56.050781 201.25 55.914062 C 201.949219 55.773438 202.660156 55.703125 203.375 55.703125 C 204.089844 55.703125 204.800781 55.773438 205.5 55.914062 C 206.203125 56.050781 206.886719 56.257812 207.546875 56.53125 C 208.207031 56.804688 208.835938 57.140625 209.429688 57.539062 C 210.027344 57.9375 210.578125 58.386719 211.082031 58.894531 C 211.589844 59.398438 212.039062 59.949219 212.4375 60.542969 C 212.835938 61.136719 213.171875 61.765625 213.445312 62.425781 C 213.71875 63.085938 213.925781 63.769531 214.066406 64.46875 C 214.207031 65.171875 214.277344 65.878906 214.277344 66.59375 C 214.277344 67.308594 214.207031 68.015625 214.066406 68.71875 C 213.925781 69.417969 213.71875 70.101562 213.445312 70.761719 C 213.171875 71.421875 212.835938 72.050781 212.4375 72.644531 C 212.039062 73.238281 211.589844 73.789062 211.082031 74.292969 C 210.578125 74.800781 210.027344 75.25 209.429688 75.648438 C 208.835938 76.046875 208.207031 76.382812 207.546875 76.65625 C 206.886719 76.929688 206.203125 77.136719 205.5 77.273438 C 204.800781 77.414062 204.089844 77.484375 203.375 77.484375 Z M 203.375 56.355469 C 202.703125 56.355469 202.039062 56.421875 201.378906 56.554688 C 200.71875 56.683594 200.078125 56.878906 199.457031 57.136719 C 198.835938 57.390625 198.246094 57.707031 197.6875 58.082031 C 197.128906 58.453125 196.613281 58.878906 196.136719 59.351562 C 195.660156 59.828125 195.238281 60.34375 194.863281 60.902344 C 194.488281 61.460938 194.175781 62.050781 193.917969 62.671875 C 193.660156 63.289062 193.464844 63.929688 193.335938 64.589844 C 193.203125 65.246094 193.136719 65.914062 193.136719 66.585938 C 193.136719 67.257812 193.203125 67.921875 193.335938 68.578125 C 193.464844 69.238281 193.660156 69.878906 193.917969 70.5 C 194.175781 71.117188 194.488281 71.707031 194.863281 72.265625 C 195.238281 72.824219 195.660156 73.34375 196.136719 73.816406 C 196.613281 74.292969 197.128906 74.714844 197.6875 75.089844 C 198.246094 75.460938 198.835938 75.777344 199.457031 76.035156 C 200.078125 76.289062 200.71875 76.484375 201.378906 76.617188 C 202.039062 76.746094 202.703125 76.8125 203.375 76.8125 C 204.046875 76.8125 204.714844 76.746094 205.371094 76.617188 C 206.03125 76.484375 206.671875 76.289062 207.292969 76.035156 C 207.914062 75.777344 208.503906 75.460938 209.0625 75.089844 C 209.621094 74.714844 210.140625 74.292969 210.613281 73.816406 C 211.089844 73.34375 211.515625 72.824219 211.886719 72.265625 C 212.261719 71.707031 212.574219 71.117188 212.832031 70.5 C 213.089844 69.878906 213.285156 69.238281 213.414062 68.578125 C 213.546875 67.921875 213.613281 67.257812 213.613281 66.585938 C 213.613281 65.914062 213.546875 65.25 213.414062 64.589844 C 213.28125 63.929688 213.089844 63.292969 212.832031 62.671875 C 212.574219 62.050781 212.257812 61.460938 211.882812 60.902344 C 211.511719 60.347656 211.085938 59.828125 210.613281 59.355469 C 210.136719 58.878906 209.621094 58.457031 209.0625 58.082031 C 208.503906 57.710938 207.914062 57.394531 207.292969 57.136719 C 206.671875 56.878906 206.03125 56.6875 205.371094 56.554688 C 204.710938 56.421875 204.046875 56.355469 203.375 56.355469 Z M 203.375 56.355469 " fill-opacity="1" fill-rule="nonzero"/><path fill="#69c9d0" d="M 215.367188 62.054688 L 204.402344 66.964844 L 208.117188 55.339844 C 213.820312 55.738281 215.367188 62.054688 215.367188 62.054688 Z M 215.367188 62.054688 " fill-opacity="1" fill-rule="nonzero"/><path fill="#ffffff" d="M 204.402344 67.308594 C 204.316406 67.308594 204.238281 67.277344 204.175781 67.21875 C 204.066406 67.121094 204.035156 67.003906 204.082031 66.867188 L 207.789062 55.230469 C 207.847656 55.0625 207.96875 54.984375 208.144531 54.996094 C 214.03125 55.414062 215.675781 61.910156 215.691406 61.972656 C 215.742188 62.160156 215.675781 62.292969 215.503906 62.375 L 204.546875 67.273438 C 204.503906 67.300781 204.453125 67.3125 204.402344 67.308594 Z M 208.351562 55.703125 L 204.964844 66.347656 L 214.957031 61.867188 C 214.59375 60.710938 212.886719 56.183594 208.351562 55.703125 Z M 208.351562 55.703125 " fill-opacity="1" fill-rule="nonzero"/><path fill="#000000" d="M 378.054688 211.191406 C 377.855469 211.191406 377.742188 211.089844 377.710938 210.894531 L 376.167969 197.578125 C 375.914062 195.441406 375.472656 193.339844 374.847656 191.28125 L 373.03125 185.28125 C 373.003906 185.191406 373.011719 185.109375 373.054688 185.023438 C 373.101562 184.941406 373.167969 184.886719 373.253906 184.859375 C 373.34375 184.832031 373.429688 184.839844 373.511719 184.882812 C 373.59375 184.925781 373.648438 184.992188 373.675781 185.082031 L 375.496094 191.082031 C 376.140625 193.183594 376.585938 195.324219 376.839844 197.507812 L 378.402344 210.792969 C 378.410156 210.886719 378.386719 210.96875 378.328125 211.042969 C 378.269531 211.113281 378.195312 211.15625 378.101562 211.164062 Z M 378.054688 211.191406 " fill-opacity="1" fill-rule="nonzero"/><path fill="#69c9d0" d="M 86.738281 154.015625 L 77.527344 176.125 C 77.421875 176.378906 77.285156 176.621094 77.121094 176.84375 C 76.957031 177.066406 76.769531 177.269531 76.554688 177.445312 C 76.34375 177.625 76.113281 177.777344 75.867188 177.898438 C 75.617188 178.023438 75.359375 178.113281 75.085938 178.175781 C 74.816406 178.238281 74.542969 178.265625 74.265625 178.265625 C 73.988281 178.261719 73.714844 178.222656 73.445312 178.15625 C 73.175781 178.085938 72.921875 177.988281 72.675781 177.855469 C 72.429688 177.726562 72.203125 177.570312 71.996094 177.386719 L 57.515625 164.5625 C 57.4375 166.488281 57.035156 168.347656 56.304688 170.132812 C 55.574219 171.917969 54.5625 173.523438 53.265625 174.953125 C 54.355469 175.738281 55.320312 176.65625 56.160156 177.703125 C 57 178.753906 57.6875 179.894531 58.214844 181.128906 C 58.742188 182.363281 59.097656 183.644531 59.277344 184.976562 C 59.457031 186.304688 59.453125 187.636719 59.269531 188.96875 C 58.488281 196.382812 55.925781 202.117188 47.105469 203.316406 C 46.871094 203.351562 46.628906 203.371094 46.390625 203.378906 C 43.460938 204.148438 40.480469 204.550781 37.453125 204.578125 C 35.414062 204.589844 33.402344 204.355469 31.417969 203.878906 C 27.621094 202.96875 17.902344 201.371094 17.792969 201.355469 L 17.375 201.292969 L 17.375 200.863281 C 17.375 200.582031 17.683594 172.203125 23.34375 159.007812 C 29.003906 145.8125 33.21875 139.914062 33.21875 139.859375 L 33.355469 139.667969 L 33.589844 139.667969 C 34.445312 139.667969 54.648438 138.425781 59.023438 144.496094 C 62.660156 149.5625 70.617188 158.925781 72.707031 161.378906 L 78.066406 149.054688 Z M 86.738281 154.015625 " fill-opacity="1" fill-rule="nonzero"/><path fill="#000000" d="M 55.925781 111.5 C 55.925781 111.5 63.039062 108.894531 64.222656 119.078125 C 64.222656 119.078125 65.382812 126.519531 58.179688 127.714844 C 56.753906 127.953125 54.628906 128.625 55.574219 133.871094 C 55.574219 133.871094 59.125 142.628906 54.863281 146.421875 C 53.519531 147.609375 52.257812 148.308594 47.988281 148.554688 C 45.871094 148.664062 46.253906 150.460938 43.726562 155.886719 C 39.839844 164.246094 23.824219 175.300781 7.476562 162.757812 C 4.539062 160.515625 0.296875 154.460938 11.246094 148.570312 C 18.367188 144.722656 33.753906 141.9375 36.597656 128.441406 C 36.597656 128.425781 40.148438 107.359375 55.925781 111.5 Z M 55.925781 111.5 " fill-opacity="1" fill-rule="nonzero"/><path fill="#ffffff" d="M 165.332031 272.789062 C 164.410156 273.179688 163.453125 273.355469 162.453125 273.3125 C 161.78125 273.351562 161.128906 273.25 160.496094 273.015625 C 159.863281 272.78125 159.304688 272.429688 158.820312 271.960938 C 158.363281 271.46875 158.019531 270.910156 157.792969 270.28125 C 157.5625 269.652344 157.460938 269 157.492188 268.332031 C 157.464844 267.605469 157.578125 266.902344 157.835938 266.222656 C 158.097656 265.542969 158.476562 264.941406 158.984375 264.421875 C 159.496094 263.917969 160.089844 263.535156 160.757812 263.273438 C 161.429688 263.015625 162.125 262.898438 162.84375 262.921875 C 163.695312 262.902344 164.523438 263.027344 165.332031 263.292969 L 165.332031 265.480469 C 164.621094 265.0625 163.851562 264.859375 163.023438 264.875 C 162.128906 264.84375 161.367188 265.144531 160.734375 265.78125 C 160.113281 266.464844 159.824219 267.269531 159.875 268.195312 C 159.828125 269.082031 160.097656 269.855469 160.691406 270.519531 C 161.289062 271.15625 162.023438 271.457031 162.898438 271.425781 C 163.769531 271.433594 164.578125 271.21875 165.332031 270.78125 Z M 166.984375 272.789062 L 166.984375 270.535156 C 167.785156 271.21875 168.707031 271.558594 169.757812 271.5625 C 170.007812 271.5625 170.253906 271.539062 170.5 271.488281 C 170.691406 271.445312 170.871094 271.375 171.035156 271.273438 C 171.167969 271.191406 171.273438 271.085938 171.355469 270.953125 C 171.429688 270.828125 171.464844 270.691406 171.464844 270.546875 C 171.460938 270.351562 171.40625 270.175781 171.292969 270.019531 C 171.164062 269.847656 171.011719 269.703125 170.828125 269.59375 C 170.609375 269.449219 170.378906 269.320312 170.136719 269.210938 L 169.273438 268.839844 C 168.589844 268.585938 168.007812 268.1875 167.523438 267.640625 C 167.117188 267.144531 166.921875 266.574219 166.941406 265.9375 C 166.925781 265.457031 167.035156 265.007812 167.257812 264.582031 C 167.46875 264.210938 167.753906 263.910156 168.113281 263.675781 C 168.503906 263.425781 168.925781 263.25 169.375 263.140625 C 169.875 263.027344 170.378906 262.96875 170.890625 262.96875 C 171.359375 262.964844 171.820312 263 172.28125 263.066406 C 172.667969 263.121094 173.042969 263.21875 173.40625 263.359375 L 173.40625 265.453125 C 173.230469 265.335938 173.046875 265.234375 172.855469 265.144531 C 172.65625 265.054688 172.449219 264.980469 172.234375 264.929688 C 172.03125 264.867188 171.820312 264.820312 171.609375 264.792969 C 171.414062 264.777344 171.214844 264.777344 171.019531 264.792969 C 170.78125 264.785156 170.550781 264.8125 170.320312 264.863281 C 170.128906 264.902344 169.949219 264.972656 169.785156 265.074219 C 169.644531 265.148438 169.53125 265.253906 169.449219 265.390625 C 169.363281 265.519531 169.324219 265.65625 169.328125 265.808594 C 169.332031 265.972656 169.375 266.121094 169.457031 266.261719 C 169.5625 266.40625 169.691406 266.53125 169.839844 266.632812 C 170.027344 266.769531 170.226562 266.886719 170.4375 266.988281 C 170.671875 267.101562 170.9375 267.222656 171.226562 267.34375 C 171.601562 267.5 171.964844 267.675781 172.316406 267.878906 C 172.617188 268.054688 172.890625 268.269531 173.136719 268.523438 C 173.371094 268.757812 173.546875 269.027344 173.664062 269.339844 C 173.957031 270.183594 173.910156 271.007812 173.527344 271.816406 C 173.300781 272.199219 173 272.5 172.617188 272.722656 C 172.226562 272.972656 171.800781 273.144531 171.347656 273.230469 C 170.839844 273.339844 170.328125 273.390625 169.8125 273.386719 C 169.28125 273.390625 168.753906 273.34375 168.230469 273.25 C 167.792969 273.144531 167.378906 272.980469 166.984375 272.761719 Z M 175.398438 272.789062 L 175.398438 270.535156 C 175.792969 270.871094 176.234375 271.128906 176.722656 271.308594 C 177.191406 271.476562 177.675781 271.5625 178.175781 271.5625 C 178.425781 271.5625 178.675781 271.539062 178.921875 271.488281 C 179.109375 271.445312 179.289062 271.371094 179.457031 271.273438 C 179.585938 271.1875 179.691406 271.082031 179.777344 270.953125 C 179.839844 270.828125 179.875 270.691406 179.875 270.546875 C 179.878906 270.351562 179.824219 270.175781 179.710938 270.019531 C 179.582031 269.847656 179.429688 269.707031 179.25 269.59375 C 179.027344 269.449219 178.796875 269.324219 178.558594 269.210938 L 177.695312 268.839844 C 177.007812 268.585938 176.421875 268.1875 175.933594 267.640625 C 175.535156 267.140625 175.34375 266.574219 175.359375 265.9375 C 175.339844 265.476562 175.433594 265.042969 175.640625 264.636719 C 175.851562 264.226562 176.148438 263.898438 176.53125 263.648438 C 176.921875 263.398438 177.34375 263.21875 177.796875 263.113281 C 178.292969 263 178.800781 262.941406 179.3125 262.941406 C 179.777344 262.9375 180.242188 262.972656 180.703125 263.039062 C 181.085938 263.09375 181.457031 263.191406 181.820312 263.332031 L 181.820312 265.425781 C 181.648438 265.304688 181.464844 265.203125 181.273438 265.117188 C 180.875 264.949219 180.460938 264.832031 180.03125 264.765625 C 179.832031 264.753906 179.636719 264.753906 179.441406 264.765625 C 179.199219 264.757812 178.964844 264.785156 178.730469 264.835938 C 178.542969 264.875 178.367188 264.945312 178.203125 265.046875 C 178.0625 265.121094 177.953125 265.230469 177.867188 265.363281 C 177.78125 265.488281 177.738281 265.628906 177.742188 265.78125 C 177.738281 265.945312 177.785156 266.097656 177.878906 266.234375 C 177.984375 266.378906 178.109375 266.503906 178.257812 266.605469 C 178.449219 266.742188 178.648438 266.859375 178.859375 266.960938 C 179.117188 267.09375 179.378906 267.210938 179.648438 267.316406 C 180.019531 267.46875 180.378906 267.648438 180.730469 267.851562 C 181.035156 268.027344 181.3125 268.242188 181.554688 268.496094 C 181.789062 268.730469 181.960938 269.003906 182.082031 269.3125 C 182.210938 269.65625 182.269531 270.015625 182.265625 270.382812 C 182.28125 270.878906 182.175781 271.347656 181.945312 271.789062 C 181.734375 272.160156 181.445312 272.464844 181.082031 272.695312 C 180.6875 272.945312 180.261719 273.117188 179.804688 273.207031 C 179.296875 273.3125 178.785156 273.363281 178.269531 273.359375 C 177.738281 273.359375 177.214844 273.316406 176.695312 273.222656 C 176.242188 273.132812 175.808594 272.976562 175.398438 272.761719 Z M 286.21875 80.242188 L 283.75 80.242188 L 283.75 75.757812 L 279.207031 75.757812 L 279.207031 80.214844 L 276.746094 80.214844 L 276.746094 69.324219 L 279.207031 69.324219 L 279.207031 73.679688 L 283.75 73.679688 L 283.75 69.324219 L 286.21875 69.324219 Z M 296.792969 71.3125 L 293.675781 71.3125 L 293.675781 80.242188 L 291.195312 80.242188 L 291.195312 71.285156 L 288.109375 71.285156 L 288.109375 69.289062 L 296.800781 69.289062 Z M 311.117188 80.242188 L 308.683594 80.242188 L 308.683594 73.671875 C 308.683594 72.964844 308.683594 72.191406 308.773438 71.332031 L 308.71875 71.332031 C 308.636719 71.824219 308.519531 72.304688 308.375 72.78125 L 305.8125 80.214844 L 303.796875 80.214844 L 301.1875 72.855469 C 301.042969 72.355469 300.925781 71.847656 300.84375 71.332031 L 300.78125 71.332031 C 300.84375 72.410156 300.871094 73.355469 300.871094 74.171875 L 300.871094 80.214844 L 298.65625 80.214844 L 298.65625 69.324219 L 302.289062 69.324219 L 304.523438 75.796875 C 304.699219 76.304688 304.832031 76.824219 304.914062 77.355469 L 304.957031 77.355469 C 305.074219 76.824219 305.222656 76.300781 305.394531 75.785156 L 307.628906 69.324219 L 311.144531 69.324219 Z M 320.511719 80.242188 L 313.996094 80.242188 L 313.996094 69.351562 L 316.460938 69.351562 L 316.460938 78.28125 L 320.511719 78.28125 Z M 305.339844 321.304688 L 298.980469 316.503906 L 305.339844 311.667969 L 304.488281 310.550781 L 297.410156 315.949219 C 297.230469 316.09375 297.136719 316.28125 297.136719 316.511719 C 297.140625 316.742188 297.234375 316.929688 297.417969 317.066406 L 304.53125 322.429688 Z M 323.179688 317.066406 C 323.265625 317 323.335938 316.917969 323.382812 316.820312 C 323.429688 316.722656 323.453125 316.617188 323.453125 316.507812 C 323.453125 316.398438 323.429688 316.296875 323.382812 316.199219 C 323.335938 316.101562 323.265625 316.015625 323.179688 315.949219 L 316.113281 310.550781 L 315.261719 311.667969 L 321.617188 316.503906 L 315.261719 321.304688 L 316.113281 322.429688 Z M 312.535156 310.339844 L 311.171875 310.007812 L 308.03125 322.628906 L 309.390625 322.976562 Z M 312.535156 310.339844 " fill-opacity="1" fill-rule="nonzero"/></svg>