<svg xmlns="http://www.w3.org/2000/svg" xmlns:xlink="http://www.w3.org/1999/xlink" width="520" zoomAndPan="magnify" viewBox="0 0 390 389.999986" height="520" preserveAspectRatio="xMidYMid meet" version="1.0"><defs><clipPath id="id1"><path d="M 48 248.097656 L 169.578125 248.097656 L 169.578125 347 L 48 347 Z M 48 248.097656 " clip-rule="nonzero"/></clipPath><clipPath id="id2"><path d="M 47.328125 67 L 167.328125 67 L 167.328125 181.402344 L 47.328125 181.402344 Z M 47.328125 67 " clip-rule="nonzero"/></clipPath><clipPath id="id3"><path d="M 245.332031 206.625 L 325.582031 206.625 L 325.582031 346.871094 L 245.332031 346.871094 Z M 245.332031 206.625 " clip-rule="nonzero"/></clipPath><clipPath id="id4"><path d="M 245.332031 63 L 315 63 L 315 158 L 245.332031 158 Z M 245.332031 63 " clip-rule="nonzero"/></clipPath></defs><path stroke-linecap="butt" transform="matrix(0.000000000000000138, -2.249161, 2.215384, 0.000000000000000136, 14.092851, 362.724963)" fill="none" stroke-linejoin="miter" d="M -0.00071129 0.000405703 L 153.226551 0.000405703 " stroke="#ffffff" stroke-width="1" stroke-opacity="1" stroke-miterlimit="4"/><path stroke-linecap="round" transform="matrix(0.000000000000000138, -2.249161, 2.215384, 0.000000000000000136, 14.092851, 16.970862)" fill="none" stroke-linejoin="round" d="M -2.499994 -1.50011 L -0.499248 0.000405703 L -2.499994 1.499158 " stroke="#ffffff" stroke-width="1" stroke-opacity="1" stroke-miterlimit="4"/><path stroke-linecap="butt" transform="matrix(2.249716, -0.000000000000000315, 0.00000000000000031, 2.215384, 14.129816, 360.403858)" fill="none" stroke-linejoin="miter" d="M -0.000404282 -0.00068355 L 164.857192 -0.00068355 " stroke="#ffffff" stroke-width="1" stroke-opacity="1" stroke-miterlimit="4"/><path stroke-linecap="round" transform="matrix(2.249716, -0.000000000000000315, 0.00000000000000031, 2.215384, 386.135806, 360.403858)" fill="none" stroke-linejoin="round" d="M -2.49991 -1.499436 L -0.499658 -0.00068355 L -2.49991 1.499832 " stroke="#ffffff" stroke-width="1" stroke-opacity="1" stroke-miterlimit="4"/><path fill="#ffffff" d="M 14.144531 188.773438 L 20.890625 188.859375 L 20.859375 191.355469 L 14.109375 191.269531 M 23.140625 188.886719 L 29.890625 188.972656 L 29.859375 191.46875 L 23.109375 191.382812 M 32.140625 189 L 38.886719 189.085938 L 38.855469 191.582031 L 32.109375 191.496094 M 41.136719 189.113281 L 47.886719 189.199219 L 47.855469 191.695312 L 41.105469 191.609375 M 50.136719 189.226562 L 56.886719 189.3125 L 56.855469 191.808594 L 50.105469 191.726562 M 59.132812 189.34375 L 65.882812 189.425781 L 65.851562 191.925781 L 59.101562 191.839844 M 68.132812 189.457031 L 74.882812 189.542969 L 74.851562 192.039062 L 68.101562 191.953125 M 77.132812 189.570312 L 83.878906 189.65625 L 83.847656 192.152344 L 77.101562 192.066406 M 86.128906 189.683594 L 92.878906 189.769531 L 92.847656 192.265625 L 86.097656 192.179688 M 95.128906 189.796875 L 101.878906 189.882812 L 101.84375 192.378906 L 95.097656 192.292969 M 104.125 189.910156 L 110.875 189.996094 L 110.84375 192.492188 L 104.09375 192.40625 M 113.125 190.023438 L 119.875 190.109375 L 119.84375 192.605469 L 113.09375 192.523438 M 122.125 190.140625 L 128.871094 190.222656 L 128.839844 192.722656 L 122.09375 192.636719 M 131.121094 190.253906 L 137.871094 190.339844 L 137.839844 192.835938 L 131.089844 192.75 M 140.121094 190.367188 L 146.871094 190.453125 L 146.835938 192.949219 L 140.089844 192.863281 M 149.117188 190.480469 L 155.867188 190.566406 L 155.835938 193.0625 L 149.085938 192.976562 M 158.117188 190.59375 L 164.867188 190.679688 L 164.835938 193.175781 L 158.085938 193.089844 M 167.117188 190.707031 L 173.863281 190.792969 L 173.832031 193.289062 L 167.085938 193.203125 M 176.113281 190.820312 L 182.863281 190.90625 L 182.832031 193.402344 L 176.082031 193.320312 M 185.113281 190.9375 L 191.863281 191.019531 L 191.828125 193.519531 L 185.082031 193.433594 M 194.109375 191.050781 L 200.859375 191.136719 L 200.828125 193.632812 L 194.078125 193.546875 M 203.109375 191.164062 L 209.859375 191.25 L 209.828125 193.746094 L 203.078125 193.660156 M 212.109375 191.277344 L 218.855469 191.363281 L 218.824219 193.859375 L 212.078125 193.773438 M 221.105469 191.390625 L 227.855469 191.476562 L 227.824219 193.972656 L 221.074219 193.886719 M 230.105469 191.503906 L 236.855469 191.589844 L 236.820312 194.085938 L 230.074219 194 M 239.101562 191.617188 L 245.851562 191.703125 L 245.820312 194.199219 L 239.070312 194.117188 M 248.101562 191.734375 L 254.851562 191.816406 L 254.820312 194.316406 L 248.070312 194.230469 M 257.101562 191.847656 L 263.847656 191.933594 L 263.816406 194.429688 L 257.070312 194.34375 M 266.097656 191.960938 L 272.847656 192.046875 L 272.816406 194.542969 L 266.066406 194.457031 M 275.097656 192.074219 L 281.847656 192.160156 L 281.8125 194.65625 L 275.066406 194.570312 M 284.09375 192.1875 L 290.84375 192.273438 L 290.8125 194.769531 L 284.0625 194.683594 M 293.09375 192.300781 L 299.84375 192.386719 L 299.8125 194.882812 L 293.0625 194.796875 M 302.09375 192.414062 L 308.839844 192.5 L 308.808594 194.996094 L 302.0625 194.914062 M 311.089844 192.53125 L 317.839844 192.613281 L 317.808594 195.113281 L 311.058594 195.027344 M 320.089844 192.644531 L 326.835938 192.730469 L 326.804688 195.226562 L 320.058594 195.140625 M 329.085938 192.757812 L 335.835938 192.84375 L 335.804688 195.339844 L 329.054688 195.253906 M 338.085938 192.871094 L 344.835938 192.957031 L 344.804688 195.453125 L 338.054688 195.367188 M 347.085938 192.984375 L 353.832031 193.070312 L 353.800781 195.566406 L 347.050781 195.480469 M 356.082031 193.097656 L 362.832031 193.183594 L 362.800781 195.679688 L 356.050781 195.59375 M 365.082031 193.210938 L 371.828125 193.296875 L 371.796875 195.792969 L 365.050781 195.710938 M 374.078125 193.328125 L 380.828125 193.410156 L 380.796875 195.910156 L 374.046875 195.824219 M 383.078125 193.441406 L 383.871094 193.449219 L 383.839844 195.945312 L 383.046875 195.9375 " fill-opacity="1" fill-rule="nonzero"/><path fill="#ffffff" d="M 197.867188 360.4375 L 197.867188 353.691406 L 200.085938 353.691406 L 200.085938 360.4375 M 197.867188 351.441406 L 197.867188 344.691406 L 200.085938 344.691406 L 200.085938 351.441406 M 197.867188 342.441406 L 197.867188 335.695312 L 200.085938 335.695312 L 200.085938 342.441406 M 197.867188 333.445312 L 197.867188 326.699219 L 200.085938 326.699219 L 200.085938 333.445312 M 197.867188 324.449219 L 197.867188 317.699219 L 200.085938 317.699219 L 200.085938 324.449219 M 197.867188 315.449219 L 197.867188 308.703125 L 200.085938 308.703125 L 200.085938 315.449219 M 197.867188 306.453125 L 197.867188 299.703125 L 200.085938 299.703125 L 200.085938 306.453125 M 197.867188 297.457031 L 197.867188 290.707031 L 200.085938 290.707031 L 200.085938 297.457031 M 197.867188 288.457031 L 197.867188 281.710938 L 200.085938 281.710938 L 200.085938 288.457031 M 197.867188 279.460938 L 197.867188 272.710938 L 200.085938 272.710938 L 200.085938 279.460938 M 197.867188 270.460938 L 197.867188 263.714844 L 200.085938 263.714844 L 200.085938 270.460938 M 197.867188 261.464844 L 197.867188 254.71875 L 200.085938 254.71875 L 200.085938 261.464844 M 197.867188 252.46875 L 197.867188 245.71875 L 200.085938 245.71875 L 200.085938 252.46875 M 197.867188 243.46875 L 197.867188 236.722656 L 200.085938 236.722656 L 200.085938 243.46875 M 197.867188 234.472656 L 197.867188 227.722656 L 200.085938 227.722656 L 200.085938 234.472656 M 197.867188 225.476562 L 197.867188 218.726562 L 200.085938 218.726562 L 200.085938 225.476562 M 197.867188 216.476562 L 197.867188 209.730469 L 200.085938 209.730469 L 200.085938 216.476562 M 197.867188 207.480469 L 197.867188 200.730469 L 200.085938 200.730469 L 200.085938 207.480469 M 197.867188 198.484375 L 197.867188 191.734375 L 200.085938 191.734375 L 200.085938 198.484375 M 197.867188 189.484375 L 197.867188 182.738281 L 200.085938 182.738281 L 200.085938 189.484375 M 197.867188 180.488281 L 197.867188 173.738281 L 200.085938 173.738281 L 200.085938 180.488281 M 197.867188 171.488281 L 197.867188 164.742188 L 200.085938 164.742188 L 200.085938 171.488281 M 197.867188 162.492188 L 197.867188 155.742188 L 200.085938 155.742188 L 200.085938 162.492188 M 197.867188 153.496094 L 197.867188 146.746094 L 200.085938 146.746094 L 200.085938 153.496094 M 197.867188 144.496094 L 197.867188 137.75 L 200.085938 137.75 L 200.085938 144.496094 M 197.867188 135.5 L 197.867188 128.75 L 200.085938 128.75 L 200.085938 135.5 M 197.867188 126.503906 L 197.867188 119.753906 L 200.085938 119.753906 L 200.085938 126.503906 M 197.867188 117.503906 L 197.867188 110.757812 L 200.085938 110.757812 L 200.085938 117.503906 M 197.867188 108.507812 L 197.867188 101.757812 L 200.085938 101.757812 L 200.085938 108.507812 M 197.867188 99.507812 L 197.867188 92.761719 L 200.085938 92.761719 L 200.085938 99.507812 M 197.867188 90.511719 L 197.867188 83.765625 L 200.085938 83.765625 L 200.085938 90.511719 M 197.867188 81.515625 L 197.867188 74.765625 L 200.085938 74.765625 L 200.085938 81.515625 M 197.867188 72.515625 L 197.867188 65.769531 L 200.085938 65.769531 L 200.085938 72.515625 M 197.867188 63.519531 L 197.867188 56.769531 L 200.085938 56.769531 L 200.085938 63.519531 M 197.867188 54.523438 L 197.867188 47.773438 L 200.085938 47.773438 L 200.085938 54.523438 M 197.867188 45.523438 L 197.867188 38.777344 L 200.085938 38.777344 L 200.085938 45.523438 M 197.867188 36.527344 L 197.867188 29.777344 L 200.085938 29.777344 L 200.085938 36.527344 M 197.867188 27.527344 L 197.867188 20.78125 L 200.085938 20.78125 L 200.085938 27.527344 M 197.867188 18.53125 L 197.867188 16.9375 L 200.085938 16.9375 L 200.085938 18.53125 " fill-opacity="1" fill-rule="nonzero"/><g clip-path="url(#id1)"><path fill="#ee1d52" d="M 49.355469 276.9375 L 48.953125 277.746094 C 48.578125 278.496094 48.328125 279.289062 48.203125 280.121094 C 48.078125 280.949219 48.082031 281.78125 48.214844 282.609375 C 48.351562 283.441406 48.609375 284.230469 48.988281 284.976562 C 49.371094 285.726562 49.855469 286.398438 50.449219 286.992188 L 52.960938 289.519531 C 53.261719 289.820312 53.589844 290.09375 53.9375 290.339844 C 54.285156 290.585938 54.652344 290.800781 55.035156 290.984375 C 55.421875 291.167969 55.820312 291.316406 56.230469 291.429688 C 56.640625 291.542969 57.058594 291.621094 57.480469 291.664062 C 57.90625 291.707031 58.328125 291.710938 58.753906 291.679688 C 59.179688 291.648438 59.597656 291.582031 60.011719 291.476562 C 60.425781 291.375 60.824219 291.238281 61.214844 291.0625 C 61.605469 290.890625 61.976562 290.6875 62.332031 290.449219 L 66.527344 287.640625 C 66.644531 287.613281 66.75 287.570312 66.863281 287.542969 L 67.71875 288.976562 C 69.050781 291.207031 69.835938 293.621094 70.070312 296.210938 C 70.210938 297.753906 70.515625 299.265625 70.988281 300.742188 C 71.464844 302.21875 72.09375 303.628906 72.875 304.964844 C 73.660156 306.300781 74.582031 307.535156 75.636719 308.667969 C 76.695312 309.796875 77.863281 310.800781 79.140625 311.671875 C 79.347656 312.71875 79.453125 313.777344 79.457031 314.84375 C 79.460938 318.085938 80.183594 321.160156 81.621094 324.058594 C 82.789062 326.40625 83.371094 328.894531 83.375 331.515625 L 83.375 340.890625 C 83.375 341.277344 83.414062 341.664062 83.488281 342.042969 C 83.5625 342.421875 83.675781 342.792969 83.824219 343.148438 C 83.972656 343.507812 84.152344 343.847656 84.367188 344.171875 C 84.582031 344.492188 84.824219 344.792969 85.097656 345.066406 C 85.371094 345.339844 85.667969 345.585938 85.988281 345.800781 C 86.308594 346.015625 86.648438 346.195312 87.003906 346.34375 C 87.359375 346.492188 87.726562 346.605469 88.105469 346.679688 C 88.484375 346.757812 88.867188 346.792969 89.253906 346.792969 L 91.734375 346.792969 C 92.679688 346.785156 93.574219 346.5625 94.414062 346.117188 C 95.25 346.5625 96.144531 346.789062 97.089844 346.792969 L 99.570312 346.792969 C 100.277344 346.792969 100.960938 346.664062 101.621094 346.414062 C 102.28125 346.164062 102.878906 345.808594 103.414062 345.34375 C 103.949219 344.878906 104.382812 344.335938 104.722656 343.710938 C 105.0625 343.089844 105.285156 342.425781 105.386719 341.726562 L 107.164062 329.242188 C 107.816406 324.640625 108.257812 319.976562 108.535156 315.308594 L 114.019531 315.308594 C 118.230469 315.296875 122.277344 314.484375 126.167969 312.867188 C 126.566406 313.945312 127.078125 314.96875 127.699219 315.9375 C 128.320312 316.902344 129.035156 317.792969 129.851562 318.605469 C 130.664062 319.414062 131.558594 320.128906 132.527344 320.742188 C 133.496094 321.359375 134.519531 321.859375 135.597656 322.25 L 136.898438 324.863281 C 137.789062 326.675781 138.234375 328.59375 138.230469 330.613281 C 138.230469 332.003906 138.011719 333.359375 137.574219 334.679688 L 136.984375 336.433594 C 136.507812 337.878906 136.269531 339.367188 136.273438 340.890625 C 136.273438 341.277344 136.308594 341.664062 136.386719 342.042969 C 136.460938 342.421875 136.570312 342.792969 136.71875 343.148438 C 136.867188 343.507812 137.046875 343.847656 137.261719 344.171875 C 137.476562 344.492188 137.722656 344.792969 137.992188 345.066406 C 138.265625 345.339844 138.5625 345.585938 138.882812 345.800781 C 139.207031 346.015625 139.542969 346.195312 139.902344 346.34375 C 140.257812 346.492188 140.625 346.605469 141.003906 346.679688 C 141.382812 346.757812 141.765625 346.792969 142.148438 346.792969 L 146.066406 346.792969 C 146.734375 346.78125 147.378906 346.65625 148 346.421875 C 148.640625 346.664062 149.300781 346.789062 149.988281 346.792969 L 153.90625 346.792969 C 154.289062 346.792969 154.671875 346.757812 155.050781 346.679688 C 155.429688 346.605469 155.796875 346.492188 156.152344 346.34375 C 156.511719 346.195312 156.847656 346.015625 157.171875 345.800781 C 157.492188 345.585938 157.789062 345.339844 158.0625 345.066406 C 158.332031 344.792969 158.578125 344.492188 158.792969 344.171875 C 159.007812 343.847656 159.1875 343.507812 159.335938 343.148438 C 159.480469 342.792969 159.59375 342.421875 159.667969 342.042969 C 159.746094 341.664062 159.78125 341.277344 159.78125 340.890625 L 159.78125 321.535156 C 159.78125 317.253906 159.363281 313.015625 158.527344 308.820312 C 157.546875 303.886719 157.578125 298.960938 158.621094 294.039062 L 158.675781 293.796875 C 159.339844 290.726562 159.46875 287.636719 159.050781 284.523438 C 158.636719 281.410156 157.703125 278.464844 156.253906 275.679688 L 157.628906 275.953125 C 158.1875 276.066406 158.734375 276.230469 159.269531 276.4375 C 159.804688 276.644531 160.316406 276.898438 160.808594 277.195312 C 161.296875 277.492188 161.761719 277.828125 162.195312 278.203125 C 162.625 278.582031 163.023438 278.992188 163.386719 279.4375 C 163.75 279.878906 164.074219 280.351562 164.355469 280.855469 C 164.640625 281.355469 164.878906 281.875 165.070312 282.417969 C 165.265625 282.957031 165.410156 283.511719 165.507812 284.078125 C 165.609375 284.644531 165.65625 285.21875 165.660156 285.792969 L 165.660156 307.4375 L 169.578125 307.4375 L 169.578125 285.792969 C 169.574219 284.992188 169.507812 284.195312 169.367188 283.40625 C 169.230469 282.617188 169.027344 281.847656 168.757812 281.09375 C 168.488281 280.339844 168.160156 279.613281 167.765625 278.917969 C 167.371094 278.21875 166.921875 277.5625 166.417969 276.941406 C 165.910156 276.324219 165.355469 275.75 164.753906 275.226562 C 164.152344 274.703125 163.507812 274.234375 162.824219 273.824219 C 162.140625 273.410156 161.425781 273.058594 160.683594 272.769531 C 159.941406 272.476562 159.179688 272.253906 158.398438 272.09375 L 153.128906 271.035156 C 151.335938 268.921875 149.246094 267.160156 146.863281 265.757812 C 144.4375 264.335938 141.855469 263.332031 139.113281 262.746094 C 136.367188 262.164062 133.601562 262.027344 130.8125 262.339844 L 116.328125 263.953125 C 111.394531 264.503906 106.601562 263.90625 101.953125 262.152344 L 94.933594 259.507812 C 92.695312 258.664062 90.375 258.242188 87.980469 258.242188 L 87.777344 258.242188 C 87.882812 258.015625 88.011719 257.804688 88.105469 257.570312 L 89.113281 255.039062 C 89.207031 254.808594 89.253906 254.570312 89.253906 254.324219 C 89.257812 254.078125 89.214844 253.839844 89.125 253.609375 C 89.039062 253.378906 88.914062 253.171875 88.746094 252.988281 C 88.582031 252.804688 88.390625 252.65625 88.167969 252.546875 L 86.003906 251.460938 C 85.289062 251.109375 84.546875 250.84375 83.773438 250.664062 C 82.996094 250.484375 82.210938 250.394531 81.417969 250.394531 C 80.621094 250.394531 79.835938 250.484375 79.0625 250.664062 C 78.289062 250.84375 77.542969 251.109375 76.828125 251.460938 L 75.925781 251.914062 C 74.804688 250.785156 73.507812 249.917969 72.042969 249.308594 C 70.574219 248.703125 69.046875 248.398438 67.460938 248.40625 C 66.152344 248.40625 64.886719 248.644531 63.664062 249.113281 C 62.441406 249.582031 61.339844 250.253906 60.363281 251.128906 C 57.171875 249.308594 53.738281 248.402344 50.070312 248.40625 C 49.8125 248.40625 49.5625 248.453125 49.320312 248.554688 C 49.082031 248.652344 48.867188 248.796875 48.683594 248.980469 C 48.5 249.164062 48.359375 249.378906 48.261719 249.621094 C 48.160156 249.859375 48.113281 250.109375 48.113281 250.371094 C 48.109375 251.484375 48.230469 252.585938 48.480469 253.671875 C 48.726562 254.753906 49.09375 255.796875 49.578125 256.800781 C 50.066406 257.800781 50.65625 258.734375 51.355469 259.597656 C 52.054688 260.460938 52.839844 261.238281 53.714844 261.921875 C 53.382812 263.039062 53.128906 264.171875 52.960938 265.328125 C 52.386719 269.394531 51.183594 273.265625 49.355469 276.9375 Z M 55.730469 286.730469 L 53.21875 284.207031 C 52.917969 283.902344 52.671875 283.5625 52.476562 283.179688 C 52.28125 282.796875 52.152344 282.398438 52.082031 281.972656 C 52.015625 281.550781 52.011719 281.128906 52.078125 280.707031 C 52.140625 280.28125 52.265625 279.878906 52.457031 279.496094 L 52.742188 278.921875 C 53.585938 279.339844 54.371094 279.84375 55.097656 280.4375 C 55.824219 281.027344 56.480469 281.695312 57.058594 282.4375 C 57.636719 283.179688 58.125 283.976562 58.523438 284.828125 C 58.921875 285.683594 59.21875 286.570312 59.417969 287.488281 C 58.78125 287.726562 58.132812 287.773438 57.46875 287.636719 C 56.804688 287.5 56.226562 287.199219 55.730469 286.730469 Z M 87.292969 340.890625 L 87.292969 331.515625 C 87.292969 328.273438 86.574219 325.203125 85.140625 322.300781 C 83.96875 319.953125 83.382812 317.46875 83.375 314.84375 C 83.375 314.523438 83.335938 314.203125 83.320312 313.882812 C 84.605469 314.386719 85.933594 314.757812 87.292969 314.996094 C 87.316406 318.183594 88.035156 321.203125 89.449219 324.058594 C 90.617188 326.40625 91.207031 328.890625 91.210938 331.515625 L 91.210938 340.890625 C 91.21875 341.566406 91.339844 342.222656 91.574219 342.859375 L 89.253906 342.859375 C 88.992188 342.859375 88.742188 342.808594 88.503906 342.707031 C 88.261719 342.609375 88.050781 342.46875 87.867188 342.28125 C 87.683594 342.097656 87.542969 341.886719 87.441406 341.644531 C 87.34375 341.402344 87.292969 341.152344 87.292969 340.890625 Z M 129.726562 311.136719 C 131.210938 310.300781 132.617188 309.347656 133.945312 308.285156 C 134.523438 307.820312 135.175781 307.546875 135.910156 307.460938 C 136.644531 307.378906 137.34375 307.496094 138.011719 307.820312 C 138.675781 308.140625 139.207031 308.613281 139.601562 309.242188 C 139.992188 309.871094 140.191406 310.554688 140.191406 311.296875 C 140.203125 314.046875 140.78125 316.671875 141.925781 319.167969 C 141.570312 319.199219 141.222656 319.246094 140.867188 319.246094 C 140.253906 319.242188 139.644531 319.191406 139.039062 319.09375 C 138.433594 318.996094 137.839844 318.851562 137.253906 318.660156 C 136.671875 318.46875 136.109375 318.234375 135.5625 317.953125 C 135.015625 317.675781 134.492188 317.355469 133.996094 316.992188 C 133.5 316.628906 133.035156 316.234375 132.601562 315.796875 C 132.164062 315.363281 131.765625 314.898438 131.402344 314.402344 C 131.042969 313.902344 130.71875 313.382812 130.4375 312.835938 C 130.15625 312.285156 129.921875 311.71875 129.726562 311.136719 Z M 140.191406 340.890625 C 140.191406 339.792969 140.363281 338.71875 140.710938 337.675781 L 141.300781 335.925781 C 141.996094 333.820312 142.269531 331.664062 142.117188 329.453125 C 141.964844 327.242188 141.398438 325.144531 140.414062 323.160156 C 140.570312 323.160156 140.71875 323.179688 140.875 323.179688 C 141.839844 323.167969 142.792969 323.070312 143.738281 322.882812 L 144.71875 324.863281 C 145.617188 326.675781 146.066406 328.59375 146.066406 330.613281 C 146.066406 332.003906 145.847656 333.359375 145.410156 334.679688 L 144.820312 336.433594 C 144.34375 337.878906 144.105469 339.367188 144.109375 340.890625 C 144.117188 341.566406 144.234375 342.222656 144.46875 342.859375 L 142.148438 342.859375 C 141.890625 342.859375 141.640625 342.808594 141.398438 342.707031 C 141.160156 342.609375 140.949219 342.46875 140.765625 342.28125 C 140.582031 342.097656 140.4375 341.886719 140.339844 341.644531 C 140.242188 341.402344 140.191406 341.152344 140.191406 340.890625 Z M 154.84375 292.972656 L 154.792969 293.21875 C 154.199219 296.003906 153.90625 298.816406 153.90625 301.660156 C 153.90625 302.28125 153.96875 302.898438 153.996094 303.519531 C 152.730469 302.519531 151.746094 301.292969 151.042969 299.839844 C 150.339844 298.386719 149.988281 296.855469 149.988281 295.238281 C 149.988281 294.53125 149.902344 293.832031 149.730469 293.148438 C 149.558594 292.460938 149.308594 291.804688 148.976562 291.179688 C 148.644531 290.554688 148.242188 289.984375 147.765625 289.457031 C 147.292969 288.933594 146.761719 288.476562 146.175781 288.085938 C 145.53125 287.65625 145.027344 287.097656 144.660156 286.410156 C 144.292969 285.726562 144.109375 284.996094 144.109375 284.21875 C 144.113281 281.957031 144.472656 279.757812 145.191406 277.617188 C 145.90625 275.472656 146.941406 273.5 148.292969 271.695312 C 149.71875 273.023438 150.949219 274.515625 151.984375 276.171875 C 153.019531 277.828125 153.828125 279.585938 154.402344 281.453125 C 154.976562 283.320312 155.300781 285.230469 155.375 287.183594 C 155.449219 289.136719 155.273438 291.066406 154.84375 292.972656 Z M 116.757812 267.867188 L 120.640625 267.433594 C 121.113281 268.609375 121.671875 269.746094 122.3125 270.839844 C 123.78125 273.300781 124.519531 275.96875 124.519531 278.835938 C 124.519531 279.328125 124.445312 279.8125 124.304688 280.28125 C 124.160156 280.753906 123.953125 281.195312 123.679688 281.605469 C 123.410156 282.015625 123.082031 282.378906 122.703125 282.691406 C 122.324219 283.003906 121.90625 283.257812 121.453125 283.445312 C 121 283.632812 120.527344 283.753906 120.039062 283.800781 C 119.550781 283.847656 119.0625 283.824219 118.582031 283.730469 C 118.101562 283.632812 117.640625 283.46875 117.210938 283.234375 C 116.777344 283.003906 116.386719 282.710938 116.039062 282.363281 C 114.015625 280.332031 111.769531 278.589844 109.304688 277.132812 C 106.839844 275.675781 104.234375 274.554688 101.484375 273.761719 C 100.78125 273.5625 100.117188 273.269531 99.492188 272.886719 C 98.871094 272.5 98.3125 272.039062 97.816406 271.5 C 97.320312 270.957031 96.90625 270.359375 96.574219 269.707031 C 96.242188 269.050781 96.007812 268.363281 95.867188 267.640625 L 95.09375 263.773438 L 100.582031 265.839844 C 105.8125 267.8125 111.207031 268.484375 116.757812 267.867188 Z M 74.152344 255.699219 C 74.453125 256 74.808594 256.183594 75.226562 256.25 C 75.640625 256.320312 76.039062 256.257812 76.414062 256.070312 L 78.582031 254.980469 C 79.476562 254.539062 80.421875 254.320312 81.417969 254.320312 C 82.414062 254.320312 83.355469 254.539062 84.25 254.980469 L 84.804688 255.257812 L 84.46875 256.109375 C 84.113281 257.007812 83.632812 257.832031 83.03125 258.585938 C 82.429688 259.335938 81.730469 259.984375 80.933594 260.527344 C 80.140625 261.066406 79.28125 261.480469 78.359375 261.761719 C 77.441406 262.042969 76.5 262.183594 75.539062 262.179688 L 75.539062 266.113281 C 77.320312 266.117188 79.03125 265.777344 80.679688 265.09375 C 82.324219 264.410156 83.777344 263.441406 85.039062 262.179688 L 87.976562 262.179688 C 88.9375 262.179688 89.886719 262.265625 90.828125 262.4375 L 92.019531 268.414062 C 92.230469 269.488281 92.582031 270.515625 93.078125 271.492188 C 93.574219 272.46875 94.191406 273.363281 94.929688 274.167969 C 95.667969 274.972656 96.503906 275.664062 97.433594 276.238281 C 98.363281 276.8125 99.355469 277.25 100.40625 277.546875 C 102.832031 278.246094 105.136719 279.238281 107.316406 280.527344 C 109.492188 281.8125 111.476562 283.351562 113.265625 285.144531 C 113.886719 285.769531 114.582031 286.289062 115.359375 286.707031 C 116.132812 287.125 116.953125 287.417969 117.816406 287.589844 C 118.675781 287.765625 119.546875 287.808594 120.421875 287.71875 C 121.292969 287.632812 122.136719 287.421875 122.949219 287.085938 C 123.761719 286.746094 124.507812 286.296875 125.1875 285.738281 C 125.867188 285.175781 126.453125 284.53125 126.941406 283.796875 C 127.429688 283.0625 127.800781 282.273438 128.054688 281.425781 C 128.308594 280.582031 128.4375 279.71875 128.4375 278.835938 C 128.4375 275.238281 127.515625 271.898438 125.671875 268.816406 C 125.320312 268.222656 125 267.605469 124.695312 266.980469 L 131.230469 266.25 C 133.601562 265.984375 135.953125 266.101562 138.285156 266.597656 C 140.617188 267.09375 142.8125 267.945312 144.871094 269.152344 C 144.96875 269.210938 145.054688 269.277344 145.148438 269.332031 C 143.542969 271.480469 142.316406 273.828125 141.46875 276.371094 C 140.621094 278.917969 140.195312 281.535156 140.191406 284.21875 C 140.191406 284.925781 140.273438 285.625 140.445312 286.308594 C 140.617188 286.996094 140.867188 287.652344 141.199219 288.277344 C 141.535156 288.898438 141.9375 289.472656 142.410156 289.996094 C 142.882812 290.519531 143.414062 290.980469 144 291.371094 C 144.644531 291.800781 145.152344 292.359375 145.515625 293.042969 C 145.882812 293.730469 146.066406 294.460938 146.066406 295.238281 C 146.070312 296.625 146.265625 297.988281 146.652344 299.320312 C 147.042969 300.652344 147.613281 301.898438 148.363281 303.066406 C 149.113281 304.234375 150.007812 305.273438 151.054688 306.179688 C 152.101562 307.085938 153.253906 307.828125 154.511719 308.402344 C 154.578125 308.796875 154.609375 309.191406 154.6875 309.582031 C 155.46875 313.527344 155.863281 317.507812 155.863281 321.527344 L 155.863281 340.890625 C 155.863281 341.152344 155.8125 341.402344 155.710938 341.644531 C 155.613281 341.886719 155.472656 342.097656 155.289062 342.28125 C 155.105469 342.46875 154.890625 342.609375 154.652344 342.707031 C 154.414062 342.808594 154.164062 342.859375 153.902344 342.859375 L 149.988281 342.859375 C 149.726562 342.859375 149.476562 342.808594 149.238281 342.707031 C 148.996094 342.609375 148.785156 342.46875 148.601562 342.28125 C 148.417969 342.097656 148.277344 341.886719 148.175781 341.644531 C 148.078125 341.402344 148.027344 341.152344 148.027344 340.890625 C 148.027344 339.792969 148.199219 338.71875 148.546875 337.675781 L 149.136719 335.925781 C 149.710938 334.199219 149.996094 332.429688 149.996094 330.609375 C 149.988281 327.96875 149.402344 325.46875 148.230469 323.101562 L 145.699219 318.011719 C 144.644531 315.898438 144.113281 313.660156 144.109375 311.296875 C 144.109375 310.5625 144.007812 309.84375 143.804688 309.136719 C 143.601562 308.433594 143.304688 307.769531 142.917969 307.148438 C 142.527344 306.527344 142.058594 305.972656 141.515625 305.480469 C 140.96875 304.992188 140.367188 304.589844 139.707031 304.273438 C 139.050781 303.953125 138.359375 303.734375 137.640625 303.609375 C 136.917969 303.488281 136.195312 303.46875 135.46875 303.550781 C 134.742188 303.636719 134.042969 303.816406 133.367188 304.101562 C 132.691406 304.382812 132.070312 304.753906 131.496094 305.210938 C 129.015625 307.203125 126.273438 308.726562 123.273438 309.785156 C 120.273438 310.839844 117.1875 311.371094 114.007812 311.375 L 108.738281 311.375 C 108.808594 309.40625 108.84375 307.4375 108.84375 305.46875 L 104.925781 305.46875 C 104.925781 313.25 104.378906 320.988281 103.28125 328.691406 L 101.507812 341.175781 C 101.472656 341.410156 101.402344 341.628906 101.289062 341.835938 C 101.175781 342.042969 101.03125 342.226562 100.851562 342.382812 C 100.675781 342.535156 100.476562 342.65625 100.253906 342.738281 C 100.035156 342.820312 99.804688 342.863281 99.570312 342.863281 L 97.089844 342.863281 C 96.828125 342.863281 96.578125 342.8125 96.339844 342.710938 C 96.101562 342.613281 95.886719 342.472656 95.703125 342.285156 C 95.519531 342.101562 95.378906 341.890625 95.28125 341.648438 C 95.179688 341.40625 95.128906 341.15625 95.128906 340.894531 L 95.128906 331.515625 C 95.128906 328.273438 94.410156 325.203125 92.976562 322.300781 C 91.808594 319.953125 91.21875 317.46875 91.210938 314.84375 C 91.207031 313.238281 91.023438 311.652344 90.652344 310.089844 C 90.28125 308.523438 89.742188 307.023438 89.023438 305.585938 C 88.308594 304.148438 87.4375 302.8125 86.414062 301.578125 C 85.390625 300.339844 84.242188 299.238281 82.960938 298.273438 L 82.59375 297.992188 L 80.242188 301.140625 L 80.613281 301.421875 C 82.15625 302.589844 83.460938 303.984375 84.523438 305.605469 C 85.585938 307.226562 86.347656 308.980469 86.808594 310.867188 C 85.957031 310.65625 85.125 310.378906 84.316406 310.039062 C 83.507812 309.699219 82.726562 309.296875 81.980469 308.835938 C 81.234375 308.375 80.527344 307.855469 79.859375 307.285156 C 79.191406 306.710938 78.570312 306.089844 78 305.421875 C 77.425781 304.753906 76.910156 304.046875 76.449219 303.296875 C 75.984375 302.546875 75.582031 301.765625 75.242188 300.953125 C 74.898438 300.140625 74.621094 299.308594 74.410156 298.453125 C 74.195312 297.597656 74.050781 296.730469 73.972656 295.855469 C 73.679688 292.664062 72.714844 289.699219 71.078125 286.953125 L 70.640625 286.226562 C 73.019531 285.136719 75.109375 283.644531 76.914062 281.746094 C 78.714844 279.84375 80.101562 277.679688 81.070312 275.242188 L 81.28125 274.71875 L 77.640625 273.253906 L 77.433594 273.777344 C 76.925781 275.058594 76.269531 276.253906 75.460938 277.371094 C 74.65625 278.484375 73.726562 279.484375 72.671875 280.363281 C 71.613281 281.246094 70.46875 281.980469 69.230469 282.574219 C 67.988281 283.167969 66.699219 283.597656 65.351562 283.863281 C 65.097656 283.914062 64.863281 284.011719 64.648438 284.15625 L 62.917969 285.316406 C 62.582031 284.230469 62.144531 283.191406 61.59375 282.199219 C 61.046875 281.207031 60.402344 280.28125 59.664062 279.421875 C 58.925781 278.5625 58.105469 277.789062 57.207031 277.101562 C 56.308594 276.414062 55.351562 275.824219 54.328125 275.335938 C 54.597656 274.660156 54.828125 273.976562 55.058594 273.289062 L 58.472656 272.804688 C 58.972656 272.730469 59.460938 272.613281 59.941406 272.453125 C 60.421875 272.289062 60.882812 272.085938 61.324219 271.84375 C 61.765625 271.601562 62.183594 271.320312 62.578125 271 C 62.972656 270.679688 63.332031 270.332031 63.664062 269.945312 C 63.996094 269.5625 64.289062 269.152344 64.546875 268.71875 C 64.804688 268.28125 65.023438 267.824219 65.203125 267.351562 C 65.378906 266.875 65.511719 266.386719 65.605469 265.890625 C 65.695312 265.390625 65.742188 264.886719 65.742188 264.378906 C 65.746094 263.222656 66.003906 262.125 66.515625 261.089844 C 67.304688 259.5 67.703125 257.820312 67.703125 256.042969 L 67.703125 252.363281 C 68.730469 252.390625 69.71875 252.605469 70.667969 253.015625 C 71.613281 253.421875 72.449219 253.992188 73.175781 254.726562 Z M 63.785156 253.417969 L 63.785156 256.042969 C 63.78125 257.199219 63.523438 258.296875 63.011719 259.332031 C 62.222656 260.921875 61.828125 262.601562 61.824219 264.378906 C 61.824219 264.929688 61.726562 265.460938 61.535156 265.976562 C 61.339844 266.488281 61.066406 266.953125 60.707031 267.371094 C 60.347656 267.785156 59.929688 268.125 59.449219 268.390625 C 58.96875 268.652344 58.460938 268.824219 57.917969 268.90625 L 56.242188 269.144531 C 56.484375 268.066406 56.683594 266.980469 56.839844 265.882812 C 57.15625 263.707031 57.800781 261.632812 58.78125 259.667969 C 59.761719 257.699219 61.023438 255.933594 62.570312 254.375 C 62.9375 254.011719 63.34375 253.691406 63.785156 253.417969 Z M 52.226562 252.476562 C 54.117188 252.722656 55.910156 253.273438 57.613281 254.132812 C 56.695312 255.355469 55.894531 256.65625 55.214844 258.027344 C 53.648438 256.488281 52.648438 254.640625 52.226562 252.476562 Z M 52.226562 252.476562 " fill-opacity="1" fill-rule="nonzero"/></g><path fill="#ee1d52" d="M 84.273438 292.484375 C 85.511719 292.792969 86.664062 293.304688 87.726562 294.015625 C 88.789062 294.722656 89.707031 295.589844 90.472656 296.617188 C 91.046875 297.378906 91.699219 298.066406 92.429688 298.675781 C 93.160156 299.285156 93.953125 299.804688 94.804688 300.230469 C 95.65625 300.660156 96.542969 300.980469 97.46875 301.203125 C 98.394531 301.421875 99.332031 301.53125 100.285156 301.535156 L 102.730469 301.535156 C 103.335938 301.535156 103.925781 301.445312 104.503906 301.269531 C 105.082031 301.09375 105.625 300.835938 106.128906 300.5 C 106.628906 300.164062 107.074219 299.757812 107.457031 299.289062 C 107.839844 298.820312 108.148438 298.304688 108.378906 297.742188 C 108.609375 297.183594 108.757812 296.601562 108.816406 295.996094 C 108.875 295.390625 108.84375 294.789062 108.726562 294.195312 C 108.609375 293.597656 108.40625 293.035156 108.121094 292.5 C 107.835938 291.960938 107.480469 291.480469 107.054688 291.050781 L 103.101562 287.078125 C 101.96875 285.9375 100.734375 284.914062 99.402344 284.019531 C 98.066406 283.121094 96.660156 282.363281 95.175781 281.746094 C 93.691406 281.128906 92.164062 280.664062 90.585938 280.351562 C 89.011719 280.039062 87.421875 279.886719 85.816406 279.890625 C 85.429688 279.886719 85.046875 279.917969 84.667969 279.988281 C 84.285156 280.054688 83.914062 280.15625 83.550781 280.292969 C 83.191406 280.429688 82.84375 280.597656 82.511719 280.796875 C 82.179688 280.996094 81.871094 281.222656 81.578125 281.480469 C 81.289062 281.734375 81.023438 282.015625 80.785156 282.320312 C 80.546875 282.625 80.335938 282.949219 80.15625 283.292969 C 79.972656 283.636719 79.828125 283.992188 79.710938 284.363281 C 79.59375 284.734375 79.511719 285.113281 79.464844 285.496094 C 79.417969 285.882812 79.40625 286.269531 79.429688 286.65625 C 79.453125 287.042969 79.511719 287.425781 79.601562 287.804688 C 79.695312 288.179688 79.820312 288.546875 79.980469 288.898438 C 80.136719 289.253906 80.328125 289.589844 80.546875 289.910156 C 80.765625 290.226562 81.011719 290.523438 81.289062 290.800781 C 81.5625 291.074219 81.855469 291.320312 82.175781 291.539062 C 82.492188 291.761719 82.828125 291.949219 83.183594 292.109375 C 83.535156 292.265625 83.898438 292.390625 84.273438 292.484375 Z M 85.816406 283.824219 C 87.164062 283.820312 88.5 283.949219 89.824219 284.210938 C 91.144531 284.476562 92.429688 284.863281 93.675781 285.382812 C 94.921875 285.902344 96.105469 286.539062 97.222656 287.292969 C 98.34375 288.046875 99.378906 288.902344 100.332031 289.863281 L 104.285156 293.832031 C 104.597656 294.148438 104.796875 294.523438 104.886719 294.960938 C 104.972656 295.402344 104.929688 295.824219 104.761719 296.238281 C 104.589844 296.648438 104.320312 296.980469 103.949219 297.226562 C 103.582031 297.476562 103.175781 297.601562 102.730469 297.597656 L 100.285156 297.597656 C 98.972656 297.597656 97.730469 297.300781 96.554688 296.714844 C 95.378906 296.125 94.398438 295.304688 93.605469 294.253906 C 92.570312 292.867188 91.332031 291.695312 89.890625 290.738281 C 88.453125 289.777344 86.898438 289.089844 85.222656 288.664062 C 84.933594 288.59375 84.667969 288.472656 84.421875 288.300781 C 84.179688 288.132812 83.972656 287.921875 83.800781 287.675781 C 83.632812 287.429688 83.515625 287.160156 83.441406 286.871094 C 83.371094 286.578125 83.355469 286.285156 83.390625 285.988281 C 83.425781 285.691406 83.515625 285.410156 83.652344 285.144531 C 83.792969 284.882812 83.972656 284.648438 84.195312 284.453125 C 84.417969 284.253906 84.667969 284.101562 84.945312 283.996094 C 85.226562 283.886719 85.511719 283.835938 85.8125 283.835938 Z M 85.816406 283.824219 " fill-opacity="1" fill-rule="nonzero"/><g clip-path="url(#id2)"><path fill="#69c9d0" d="M 107.328125 158.683594 C 107.617188 158.683594 107.910156 158.75 108.171875 158.890625 L 140.804688 176.066406 L 134.570312 139.683594 C 134.46875 139.09375 134.664062 138.496094 135.09375 138.074219 L 161.496094 112.3125 L 125.011719 107 C 124.417969 106.914062 123.90625 106.542969 123.640625 106.007812 L 107.328125 72.90625 L 91.015625 106.007812 C 90.75 106.542969 90.238281 106.914062 89.644531 107 L 53.160156 112.3125 L 79.5625 138.074219 C 79.992188 138.496094 80.1875 139.09375 80.085938 139.683594 L 73.851562 176.066406 L 106.484375 158.890625 C 106.746094 158.75 107.039062 158.683594 107.328125 158.683594 Z M 143.214844 181.207031 C 142.925781 181.207031 142.636719 181.136719 142.371094 180.996094 L 107.328125 162.550781 L 72.285156 180.996094 C 71.671875 181.316406 70.929688 181.261719 70.375 180.859375 C 69.816406 180.453125 69.539062 179.761719 69.652344 179.082031 L 76.347656 140.011719 L 47.996094 112.34375 C 47.503906 111.859375 47.324219 111.136719 47.539062 110.480469 C 47.75 109.820312 48.316406 109.34375 49.003906 109.242188 L 88.179688 103.542969 L 105.699219 67.996094 C 106.3125 66.757812 108.34375 66.757812 108.957031 67.996094 L 126.476562 103.542969 L 165.652344 109.242188 C 166.335938 109.34375 166.90625 109.820312 167.117188 110.480469 C 167.332031 111.136719 167.152344 111.859375 166.660156 112.34375 L 138.308594 140.011719 L 145.003906 179.082031 C 145.117188 179.761719 144.839844 180.453125 144.28125 180.859375 C 143.964844 181.085938 143.589844 181.207031 143.214844 181.207031 " fill-opacity="1" fill-rule="nonzero"/></g><g clip-path="url(#id3)"><path fill="#69c9d0" d="M 258.992188 280.433594 C 260.40625 280.042969 260.46875 279.910156 259.828125 279.046875 C 259.59375 279.433594 259.386719 279.78125 258.992188 280.433594 Z M 259.378906 336.617188 C 260.738281 337.808594 262.125 338.328125 263.277344 338.054688 C 262.4375 337.25 262.085938 336.113281 261.09375 335.476562 C 260.414062 335.757812 259.824219 336.070312 259.378906 336.617188 Z M 312.90625 306.871094 C 311.8125 307.363281 310.835938 307.726562 310.089844 308.597656 C 310.632812 309.40625 311.136719 310.183594 311.675781 310.9375 C 311.757812 311.054688 311.980469 311.074219 312.191406 311.15625 C 312.710938 309.792969 313.195312 308.484375 312.90625 306.871094 Z M 311.589844 292.847656 C 312.0625 294.1875 313.050781 295.6875 314.027344 296.589844 C 314.496094 295.234375 314.585938 293.183594 314.234375 291.195312 C 313.308594 291.742188 312.261719 291.988281 311.589844 292.847656 Z M 282.003906 267.121094 C 282.835938 266.679688 283.636719 266.324219 284.355469 265.839844 C 285.082031 265.355469 286.027344 265.136719 286.589844 264.292969 C 284.671875 263.867188 282.285156 264.183594 280.910156 265.003906 C 280.839844 265.828125 281.289062 266.410156 282.003906 267.121094 Z M 281.957031 343.9375 C 281.09375 342.785156 280.410156 341.523438 279.199219 340.585938 C 278.058594 341.179688 276.9375 341.734375 275.855469 342.355469 C 275.582031 342.507812 275.429688 342.871094 275.195312 343.175781 C 278.09375 344.125 280.546875 344.402344 281.957031 343.9375 Z M 301.65625 267.378906 C 298.523438 265.707031 297.421875 265.582031 294.898438 266.628906 C 295.726562 267.8125 296.539062 268.972656 297.339844 270.121094 C 298.941406 269.433594 301.007812 268.132812 301.65625 267.378906 Z M 247.039062 317.996094 C 247.097656 321.320312 248.097656 323.8125 249.597656 326.222656 C 250.652344 325.917969 251.585938 325.667969 252.230469 324.8125 C 250.699219 322.5 249.152344 320.3125 247.039062 317.996094 Z M 250.761719 298.195312 C 252.777344 296.816406 254.699219 296.046875 256.328125 294.859375 C 255.746094 293.09375 254.628906 291.828125 253.625 290.449219 C 252.984375 290.929688 252.785156 291.546875 252.625 292.128906 C 252.101562 294.046875 251.113281 295.824219 250.761719 298.195312 Z M 252.386719 309.425781 C 251.492188 307.902344 250.519531 306.535156 249.359375 305.300781 C 249.171875 305.105469 248.875 305.011719 248.617188 304.859375 C 247.683594 306.914062 247.230469 310.027344 247.582031 311.945312 C 249.230469 311.179688 250.921875 310.5625 252.386719 309.425781 Z M 260.207031 334.261719 C 259.261719 332.703125 254.179688 327.0625 253.019531 326.230469 C 252.207031 326.609375 251.375 327.011719 250.65625 327.609375 C 252.960938 331.730469 253.828125 333.191406 257.703125 335.613281 C 258.472656 335.199219 259.289062 334.757812 260.207031 334.261719 Z M 268.441406 269.699219 C 268.03125 269.941406 267.816406 270.066406 267.605469 270.199219 C 266.085938 271.152344 265.019531 272.585938 263.777344 273.828125 C 262.890625 274.714844 262.128906 275.726562 261.320312 276.691406 C 260.960938 277.125 260.910156 277.601562 261.261719 278.074219 C 261.472656 278.367188 261.699219 278.648438 261.949219 278.972656 C 265.269531 277.488281 267.914062 275.136719 270.914062 273.273438 C 270.386719 271.847656 269.203125 271.027344 268.441406 269.699219 Z M 279.085938 265.140625 C 275.792969 266.117188 272.621094 266.898438 269.882812 268.765625 C 270.425781 270.253906 271.035156 271.082031 272.621094 272.464844 C 275.402344 271.382812 277.773438 269.523438 280.402344 267.925781 C 279.957031 266.984375 279.5625 266.148438 279.085938 265.140625 Z M 307.367188 261.773438 C 307.636719 261.890625 307.847656 261.980469 308.050781 262.078125 C 309.285156 262.6875 310.550781 263.238281 311.734375 263.929688 C 312.589844 264.429688 313.398438 265.011719 314.277344 265.5 C 315.582031 266.226562 316.847656 267.070312 317.59375 268.457031 C 317.632812 268.53125 317.808594 268.53125 317.964844 268.578125 C 318.066406 268.453125 318.265625 268.324219 318.28125 268.179688 C 318.523438 265.589844 318.242188 263.167969 315.984375 261.414062 C 315.492188 261.027344 315.070312 260.523438 314.535156 260.222656 C 313.835938 259.832031 313.0625 259.554688 312.300781 259.292969 C 312.027344 259.199219 311.660156 259.222656 311.386719 259.328125 C 309.933594 259.871094 308.480469 260.441406 307.367188 261.773438 Z M 307.175781 324.640625 C 307.042969 324.644531 306.890625 324.601562 306.800781 324.660156 C 304.242188 326.273438 301.660156 327.84375 298.894531 329.085938 C 298.734375 329.160156 298.632812 329.347656 298.460938 329.527344 C 299.523438 331.519531 300.890625 333.304688 302.171875 335.066406 C 302.894531 335.011719 303.128906 334.539062 303.378906 334.113281 C 304.546875 332.101562 305.710938 330.089844 306.859375 328.0625 C 307.136719 327.570312 307.3125 327.027344 307.554688 326.515625 C 307.894531 325.789062 307.742188 325.175781 307.175781 324.640625 Z M 269.015625 253.550781 C 269.355469 253.5 269.496094 253.515625 269.597656 253.457031 C 270.8125 252.777344 272.058594 252.792969 273.425781 252.980469 C 276.394531 253.390625 279.132812 254.4375 281.859375 255.582031 C 282.171875 255.714844 282.464844 256.046875 282.867188 255.773438 C 283.054688 255.28125 282.746094 254.929688 282.507812 254.578125 C 281.769531 253.464844 281.289062 252.253906 281.007812 250.953125 C 280.941406 250.648438 280.824219 250.351562 280.761719 250.046875 C 280.644531 249.488281 280.253906 249.1875 279.769531 249 C 279.484375 248.886719 279.167969 248.835938 278.859375 248.785156 C 275.542969 248.234375 272.800781 249.414062 270.429688 251.613281 C 269.90625 252.101562 269.304688 252.597656 269.015625 253.550781 Z M 288.292969 335.175781 C 287.007812 335.785156 285.785156 336.554688 284.558594 337.308594 C 283.296875 338.085938 281.871094 338.628906 280.707031 339.800781 C 281.65625 341.011719 282.582031 342.109375 283.414062 343.277344 C 284.003906 344.113281 284.78125 344.351562 285.710938 344.238281 C 286.773438 344.109375 287.851562 344 288.878906 343.71875 C 290.328125 343.320312 291.777344 342.882812 293.132812 342.214844 C 292.59375 340.90625 289.65625 336.636719 288.292969 335.175781 Z M 289.816406 334.214844 C 290.042969 334.71875 290.148438 335.085938 290.359375 335.382812 C 291.804688 337.421875 293.273438 339.445312 294.683594 341.40625 C 294.898438 341.390625 294.964844 341.402344 295.023438 341.382812 C 297.371094 340.5625 298.878906 338.625 300.695312 337.101562 C 301.050781 336.804688 301.050781 336.292969 300.824219 335.875 C 300.523438 335.324219 300.191406 334.789062 299.84375 334.265625 C 299.109375 333.171875 298.359375 332.085938 297.609375 331.003906 C 297.402344 330.710938 297.171875 330.433594 296.914062 330.097656 C 294.5 331.425781 292.171875 332.644531 289.816406 334.214844 Z M 301.496094 313.359375 C 301.757812 314.113281 302.320312 314.699219 302.785156 315.347656 C 304.214844 317.332031 305.628906 319.324219 307.054688 321.308594 C 307.265625 321.601562 307.511719 321.875 307.722656 322.132812 C 309.410156 321.4375 309.460938 321.453125 309.675781 320.722656 C 310.289062 318.617188 310.863281 316.5 311.441406 314.386719 C 311.578125 313.890625 311.535156 313.410156 311.273438 312.9375 C 310.550781 311.621094 309.792969 310.332031 308.757812 309.265625 C 307.246094 309.828125 302.496094 312.503906 301.496094 313.359375 Z M 301.644531 299.488281 C 300.0625 300.015625 296.21875 302.386719 294.832031 303.636719 C 295.84375 306.222656 298.949219 310.652344 300.667969 311.90625 C 303.03125 310.75 305.363281 309.441406 307.664062 308.054688 C 307.578125 307.765625 307.566406 307.5625 307.46875 307.429688 C 305.550781 304.800781 303.621094 302.175781 301.644531 299.488281 Z M 314.457031 289.28125 C 314.445312 288.789062 314.472656 288.414062 314.421875 288.050781 C 314 285.054688 313.0625 282.183594 312.308594 279.265625 C 312.15625 278.671875 311.972656 278.058594 311.421875 277.691406 C 308.265625 278.957031 305.648438 280.464844 304.375 281.761719 C 305.625 284.855469 307.597656 287.539062 309.542969 290.242188 C 309.867188 290.695312 310.125 291.21875 310.867188 291.460938 C 312.011719 290.769531 313.234375 290.023438 314.457031 289.28125 Z M 287.476562 278.507812 C 285.871094 279.207031 280.710938 282.269531 279.832031 283.054688 C 280.292969 283.691406 280.746094 284.359375 281.242188 284.992188 C 281.855469 285.78125 282.527344 286.527344 283.128906 287.324219 C 284.035156 288.515625 284.8125 289.808594 285.964844 290.78125 C 288.066406 289.988281 290.949219 288.300781 292.566406 286.886719 C 290.949219 284.117188 289.289062 281.335938 287.476562 278.507812 Z M 298.320312 271.613281 C 299.132812 274.609375 301.199219 276.738281 302.550781 279.265625 C 302.769531 279.675781 303.1875 279.984375 303.484375 280.3125 C 306.109375 278.878906 308.625 277.507812 311.214844 276.09375 C 310.945312 275.460938 310.769531 274.925781 310.503906 274.441406 C 309.097656 271.859375 306.753906 270.28125 304.328125 268.8125 C 304.046875 268.644531 303.554688 268.609375 303.253906 268.738281 C 301.523438 269.460938 299.769531 270.160156 298.320312 271.613281 Z M 268.851562 329.550781 C 267.859375 328.363281 267.070312 327.402344 266.261719 326.453125 C 265.449219 325.496094 264.667969 324.5 263.777344 323.613281 C 262.898438 322.738281 262.300781 321.574219 261.167969 320.9375 C 258.738281 321.996094 256.929688 323.867188 254.675781 325.308594 C 256.847656 328.21875 259.511719 330.519531 261.753906 333.316406 C 264.070312 332.085938 266.335938 330.886719 268.851562 329.550781 Z M 302.890625 298.570312 C 304.667969 301.742188 306.921875 304.417969 309.121094 307.203125 C 310.566406 306.445312 311.941406 305.722656 313.226562 305.046875 C 313.800781 303.597656 313.707031 302.207031 313.828125 300.839844 C 313.910156 299.914062 313.722656 299.125 313.21875 298.355469 C 312.363281 297.042969 311.554688 295.699219 310.707031 294.382812 C 310.550781 294.140625 310.289062 293.972656 310.035156 293.730469 C 307.675781 295.328125 305.398438 296.871094 302.890625 298.570312 Z M 288.660156 277.695312 C 289.609375 279.203125 290.476562 280.582031 291.347656 281.957031 C 292.238281 283.363281 292.746094 285.019531 294.03125 286.246094 C 295.582031 285.652344 296.804688 284.652344 298.132812 283.835938 C 299.511719 282.996094 300.933594 282.21875 302.230469 281.09375 C 300.539062 278.316406 298.585938 275.839844 297.238281 273.003906 C 297.195312 272.90625 297.042969 272.859375 296.824219 272.707031 C 294.214844 274.304688 291.550781 275.929688 288.660156 277.695312 Z M 286.597656 277.039062 C 285.40625 275.175781 284.289062 273.359375 283.105469 271.589844 C 282.550781 270.765625 281.875 270.019531 281.222656 269.203125 C 279.679688 269.675781 278.546875 270.722656 277.296875 271.523438 C 276.050781 272.320312 274.601562 272.808594 273.519531 273.832031 C 274.464844 275.636719 277.789062 280.402344 278.9375 281.617188 C 280.453125 280.9375 285.355469 278.035156 286.597656 277.039062 Z M 261.324219 281.140625 C 260.199219 281.601562 259.351562 282.238281 258.550781 282.957031 C 258.328125 283.160156 258.058594 283.453125 257.800781 283.460938 C 257.035156 283.476562 256.707031 283.941406 256.40625 284.527344 C 255.894531 285.53125 255.34375 286.519531 254.8125 287.515625 C 254.5 288.097656 254.359375 288.675781 254.746094 289.296875 C 255.703125 290.835938 256.648438 292.386719 257.609375 293.925781 C 257.667969 294.019531 257.804688 294.066406 257.90625 294.132812 C 259.550781 293.414062 265.546875 289.761719 266.601562 288.816406 C 264.964844 286.246094 263.28125 283.699219 261.324219 281.140625 Z M 262.390625 303.703125 C 262.066406 303.289062 261.78125 302.792969 261.375 302.429688 C 260.179688 301.355469 259.449219 299.957031 258.609375 298.632812 C 258.308594 298.15625 258.074219 297.632812 257.753906 297.167969 C 257.515625 296.824219 257.183594 296.542969 256.921875 296.269531 C 254.59375 297.191406 252.875 298.335938 251.339844 299.878906 C 250.949219 300.277344 250.46875 300.589844 250.007812 300.910156 C 249.308594 301.402344 249.078125 301.917969 249.421875 302.648438 C 249.6875 303.210938 250.058594 303.730469 250.433594 304.226562 C 251.351562 305.421875 252.296875 306.597656 253.238281 307.777344 C 253.464844 308.058594 253.71875 308.316406 253.96875 308.59375 C 256.125 307.757812 257.929688 306.460938 259.875 305.4375 C 260.652344 305.027344 261.394531 304.546875 262.144531 304.085938 C 262.238281 304.027344 262.277344 303.882812 262.390625 303.703125 Z M 288.023438 276.34375 C 290.984375 274.796875 293.691406 273.15625 296.210938 271.089844 C 295.984375 270.71875 295.832031 270.453125 295.667969 270.195312 C 294.957031 269.085938 294.148438 268.023438 293.5625 266.851562 C 293.066406 265.859375 292.320312 265.40625 291.335938 265.023438 C 289.960938 264.488281 288.761719 264.601562 287.617188 265.5 C 286.574219 266.328125 285.40625 266.9375 284.207031 267.503906 C 283.664062 267.761719 283.035156 267.945312 282.609375 268.621094 C 284.644531 270.964844 285.839844 273.84375 288.023438 276.34375 Z M 247.070312 314.679688 C 247.03125 315.695312 247.632812 316.304688 248.144531 316.921875 C 249.746094 318.859375 251.363281 320.773438 252.804688 322.832031 C 253.082031 323.222656 253.445312 323.550781 253.746094 323.882812 C 254.707031 323.429688 259.480469 320.183594 260.199219 319.46875 C 257.792969 316.644531 255.902344 313.382812 253.167969 310.832031 C 250.207031 311.859375 248.308594 313.054688 247.070312 314.679688 Z M 286.882812 292.074219 C 289.273438 295.519531 291.550781 298.800781 293.851562 302.117188 C 295.261719 301.832031 296.191406 300.832031 297.296875 300.15625 C 298.398438 299.484375 299.699219 299.113281 300.679688 298.082031 C 298.5625 294.585938 295.988281 291.527344 293.46875 288.289062 C 291.285156 289.542969 289.171875 290.757812 286.882812 292.074219 Z M 288.328125 318.03125 C 287.382812 316.398438 283.554688 311.164062 282.6875 310.328125 C 279.785156 311.726562 276.851562 313.132812 273.699219 314.648438 C 276.023438 317.390625 278.101562 320.167969 280.457031 322.785156 C 283.035156 321.304688 285.539062 319.867188 288.039062 318.421875 C 288.136719 318.363281 288.183594 318.226562 288.328125 318.03125 Z M 269.777344 330.691406 C 268.476562 331.164062 267.378906 331.898438 266.238281 332.546875 C 265.0625 333.214844 263.703125 333.59375 262.652344 334.617188 C 262.898438 334.964844 263.066406 335.226562 263.257812 335.464844 C 264.050781 336.441406 264.960938 337.34375 265.621094 338.402344 C 266.574219 339.933594 267.972656 340.808594 269.546875 341.511719 C 270.0625 341.746094 270.601562 341.941406 271.097656 342.210938 C 271.972656 342.691406 272.785156 342.539062 273.597656 342.066406 C 274.796875 341.375 276.007812 340.703125 277.199219 340 C 277.503906 339.820312 277.769531 339.570312 278.113281 339.304688 C 277.289062 338.105469 276.132812 337.410156 275.238281 336.460938 C 274.332031 335.496094 273.449219 334.511719 272.542969 333.550781 C 271.640625 332.597656 270.71875 331.664062 269.777344 330.691406 Z M 274.644531 297 C 275.136719 296.785156 275.597656 296.613281 276.035156 296.386719 C 277.597656 295.582031 279.144531 294.75 280.707031 293.941406 C 281.65625 293.453125 282.628906 293.007812 283.5625 292.488281 C 283.914062 292.296875 284.179688 291.949219 284.535156 291.625 C 282.460938 288.964844 280.824219 286.136719 278.273438 283.859375 C 275.117188 285.644531 271.976562 287.417969 268.703125 289.269531 C 270.617188 291.992188 272.703125 294.394531 274.644531 297 Z M 287.484375 333.808594 C 287.324219 333.476562 287.246094 333.160156 287.054688 332.941406 C 284.734375 330.300781 282.390625 327.675781 280.039062 325.027344 C 278.851562 325.40625 277.90625 326.039062 276.914062 326.570312 C 275.964844 327.074219 275.019531 327.589844 274.136719 328.195312 C 273.222656 328.816406 272.039062 329.035156 271.277344 330.011719 C 274.042969 332.84375 276.363281 336.003906 279.589844 338.347656 C 280.011719 338.191406 280.460938 338.105469 280.820312 337.875 C 283 336.503906 285.324219 335.371094 287.484375 333.808594 Z M 284.164062 309.5 C 286.003906 312.285156 287.710938 314.898438 289.804688 317.304688 C 292.867188 316.015625 295.757812 314.507812 298.648438 313.007812 C 298.699219 312.984375 298.730469 312.914062 298.757812 312.863281 C 298.789062 312.808594 298.804688 312.75 298.847656 312.636719 C 296.960938 309.949219 295.0625 307.234375 293.097656 304.429688 C 290.140625 306.105469 287.25 307.746094 284.164062 309.5 Z M 258.679688 295.539062 C 260.414062 298.964844 262.179688 301.785156 264.234375 302.917969 C 264.390625 302.847656 264.5625 302.78125 264.726562 302.6875 C 267.246094 301.28125 269.769531 299.875 272.28125 298.453125 C 272.59375 298.277344 272.847656 298.007812 273.105469 297.796875 C 272.15625 295.964844 268.917969 291.804688 267.328125 290.339844 C 265.941406 290.894531 259.953125 294.492188 258.679688 295.539062 Z M 295.984375 328.890625 C 294.980469 326.695312 290.578125 320.53125 289.222656 319.425781 C 287.929688 320.132812 286.585938 320.820312 285.292969 321.589844 C 283.972656 322.378906 282.527344 322.996094 281.371094 324.113281 C 281.582031 324.425781 281.699219 324.648438 281.859375 324.835938 C 283.441406 326.628906 285.035156 328.414062 286.613281 330.210938 C 287.195312 330.875 287.742188 331.5625 288.308594 332.238281 C 288.5 332.464844 288.699219 332.6875 288.953125 332.980469 C 291.328125 331.527344 293.777344 330.402344 295.984375 328.890625 Z M 261.515625 318.691406 C 263.167969 317.863281 264.675781 317.085938 266.207031 316.351562 C 267.78125 315.59375 269.460938 315.046875 270.964844 314.136719 C 269.78125 311.742188 265.335938 306.539062 263.289062 305.121094 C 260.296875 306.421875 257.527344 308.125 254.726562 309.859375 C 254.855469 310.113281 254.910156 310.292969 255.015625 310.429688 C 257.148438 313.148438 259.285156 315.859375 261.515625 318.691406 Z M 306.285156 323.195312 C 305.496094 321.253906 302.191406 316.59375 299.773438 314 C 298.3125 314.753906 296.800781 315.5 295.320312 316.300781 C 293.851562 317.097656 292.210938 317.566406 290.777344 318.601562 C 292.886719 321.617188 294.929688 324.546875 296.984375 327.46875 C 297.15625 327.710938 297.414062 327.898438 297.613281 328.097656 C 300.824219 326.890625 303.585938 325.082031 306.285156 323.195312 Z M 267.910156 288.027344 C 271.15625 286.496094 276.199219 283.539062 277.339844 282.519531 C 276.523438 280.664062 273.273438 275.933594 271.730469 274.402344 C 270.753906 275.003906 269.71875 275.585938 268.789062 276.332031 C 267.804688 277.121094 266.746094 277.792969 265.679688 278.464844 C 264.703125 279.085938 263.484375 279.402344 262.75 280.460938 C 264.480469 283 266.175781 285.480469 267.910156 288.027344 Z M 302 297.453125 C 303.332031 296.585938 304.5625 295.855469 305.726562 295.019531 C 306.925781 294.160156 308.242188 293.429688 309.28125 292.273438 C 309 291.832031 308.796875 291.441406 308.527344 291.109375 C 306.617188 288.757812 305.136719 286.144531 303.683594 283.507812 C 303.480469 283.144531 303.175781 282.839844 302.898438 282.480469 C 301.472656 283.371094 300.113281 284.15625 298.820312 285.046875 C 297.546875 285.921875 296.089844 286.523438 294.824219 287.652344 C 295.175781 288.195312 295.445312 288.675781 295.78125 289.113281 C 297.148438 290.902344 298.550781 292.667969 299.90625 294.464844 C 300.585938 295.359375 301.199219 296.304688 302 297.453125 Z M 279.023438 323.664062 C 276.789062 320.621094 274.441406 317.867188 272.042969 315.214844 C 265.46875 317.890625 263.960938 318.667969 262.730469 320.054688 C 263.304688 320.777344 263.871094 321.527344 264.476562 322.242188 C 265.089844 322.964844 265.742188 323.648438 266.375 324.351562 C 267.003906 325.054688 267.625 325.769531 268.257812 326.46875 C 268.878906 327.160156 269.199219 328.125 270.289062 328.589844 C 273.203125 327.203125 276.058594 325.511719 279.023438 323.664062 Z M 292.277344 245.292969 C 292.992188 242.101562 293.703125 239.179688 295.050781 236.441406 C 295.425781 235.679688 295.765625 234.832031 295.683594 233.917969 C 295.523438 232.21875 295.269531 230.5625 294.257812 229.09375 C 293.15625 227.488281 292.164062 225.808594 291.070312 224.191406 C 290.371094 223.148438 289.59375 222.160156 288.820312 221.167969 C 288.601562 220.890625 288.285156 220.691406 288.027344 220.46875 C 287.898438 220.574219 287.808594 220.609375 287.804688 220.652344 C 287.773438 220.957031 287.746094 221.261719 287.734375 221.566406 C 287.703125 222.503906 287.691406 223.441406 287.652344 224.375 C 287.617188 225.375 287.546875 226.371094 287.519531 227.371094 C 287.511719 227.808594 287.644531 228.257812 287.582031 228.6875 C 287.367188 230.199219 287.570312 231.699219 287.683594 233.195312 C 287.894531 235.984375 288.570312 238.648438 289.839844 241.15625 C 290.007812 241.484375 290.167969 241.863281 290.167969 242.21875 C 290.167969 242.78125 290.402344 243.152344 290.773438 243.53125 C 291.25 244.015625 291.660156 244.5625 292.277344 245.292969 Z M 275.449219 298.15625 C 276.957031 299.96875 278.316406 301.523438 279.578125 303.152344 C 280.871094 304.820312 282.066406 306.5625 283.203125 308.136719 C 284.410156 307.574219 285.503906 307.101562 286.5625 306.558594 C 287.566406 306.039062 288.554688 305.476562 289.511719 304.875 C 290.496094 304.25 291.742188 304 292.5 302.925781 C 292.054688 302.195312 291.660156 301.480469 291.203125 300.8125 C 289.792969 298.734375 288.363281 296.667969 286.925781 294.605469 C 286.503906 294 286.074219 293.378906 285.421875 293.046875 C 282.050781 294.589844 278.8125 296.21875 275.449219 298.15625 Z M 264.871094 304.238281 C 265.511719 304.953125 265.933594 305.496094 266.429688 305.960938 C 268.230469 307.644531 269.753906 309.546875 271.140625 311.578125 C 271.628906 312.289062 272.164062 312.988281 272.996094 313.457031 C 275.792969 312.277344 278.5 310.953125 281.136719 309.492188 C 281.386719 309.351562 281.574219 309.09375 281.863281 308.828125 C 279.554688 305.285156 277.078125 302 274.101562 298.976562 C 270.988281 300.585938 267.890625 302.054688 264.871094 304.238281 Z M 293.066406 262.734375 C 293.214844 260.71875 293.527344 258.75 293.371094 256.757812 C 293.238281 255.003906 292.980469 253.261719 292.832031 251.507812 C 292.621094 249.035156 291.292969 247.027344 290.152344 244.9375 C 290.066406 244.777344 289.886719 244.667969 289.765625 244.527344 C 288.863281 243.476562 287.945312 242.445312 287.070312 241.375 C 286.074219 240.152344 285.054688 238.957031 283.746094 238.050781 C 283.5625 237.921875 283.339844 237.851562 282.980469 237.679688 C 283.011719 238.40625 283.140625 238.972656 283.03125 239.488281 C 282.691406 241.109375 282.847656 242.742188 282.773438 244.371094 C 282.679688 246.59375 283.171875 248.75 283.726562 250.867188 C 284.503906 253.84375 286.542969 256.15625 288.253906 258.628906 C 288.289062 258.683594 288.339844 258.722656 288.386719 258.765625 C 289.835938 260.054688 291.285156 261.34375 292.734375 262.632812 C 292.777344 262.667969 292.847656 262.667969 293.066406 262.734375 Z M 296.574219 230.546875 C 296.777344 231.035156 297.039062 231.648438 297.367188 232.429688 C 298.289062 231.152344 299.070312 230.039062 299.886719 228.949219 C 300.828125 227.691406 301.765625 226.429688 302.765625 225.21875 C 303.386719 224.46875 304.09375 224.644531 304.464844 225.570312 C 304.535156 225.746094 304.601562 225.925781 304.632812 226.109375 C 304.984375 228.269531 305.527344 230.40625 305.472656 232.625 C 305.457031 233.386719 305.386719 234.191406 305.746094 234.976562 C 307.03125 233.636719 307.621094 232.089844 308.050781 230.421875 C 308.421875 228.964844 308.78125 227.519531 308.984375 226.023438 C 309.273438 223.90625 309.425781 221.78125 309.265625 219.660156 C 309.054688 216.847656 308.835938 214.039062 309.019531 211.214844 C 309.042969 210.847656 309.121094 210.394531 308.855469 209.972656 C 307.945312 210.457031 307.417969 211.171875 306.816406 211.800781 C 306.339844 212.296875 305.863281 212.789062 305.390625 213.292969 C 303.757812 215.035156 302.199219 216.847656 300.910156 218.851562 C 298.992188 221.839844 297.808594 225.140625 297.144531 228.628906 C 297.03125 229.226562 296.796875 229.804688 296.574219 230.546875 Z M 295.480469 263.675781 C 296.136719 263.621094 296.628906 263.625 297.101562 263.535156 C 299.03125 263.164062 300.808594 262.367188 302.628906 261.660156 C 304.246094 261.035156 305.644531 260.136719 306.925781 259.007812 C 307.160156 258.800781 307.398438 258.589844 307.660156 258.417969 C 310.15625 256.777344 312.152344 254.59375 314.042969 252.339844 C 315.820312 250.222656 317.660156 248.175781 319.640625 246.25 C 319.796875 246.101562 319.882812 245.886719 320.070312 245.597656 C 318.914062 245.472656 318.09375 246.039062 317.183594 246.199219 C 313.757812 246.800781 310.492188 247.957031 307.234375 249.125 C 306.058594 249.546875 304.859375 250.003906 303.9375 250.914062 C 302.78125 252.0625 301.582031 253.148438 300.515625 254.398438 C 298.523438 256.730469 297.164062 259.394531 295.890625 262.125 C 295.691406 262.554688 295.640625 263.050781 295.480469 263.675781 Z M 321.949219 226.105469 C 321.359375 225.835938 320.964844 226.246094 320.539062 226.46875 C 318.300781 227.621094 316.097656 228.851562 313.832031 229.941406 C 312.914062 230.382812 312.023438 230.824219 311.230469 231.449219 C 309.34375 232.941406 307.507812 234.480469 306.6875 236.859375 C 306.082031 238.617188 305.300781 240.28125 305.191406 242.226562 C 305.074219 244.273438 304.757812 246.351562 303.914062 248.285156 C 303.796875 248.554688 303.636719 248.867188 304.039062 249.175781 C 305.300781 248.601562 306.707031 248.261719 307.703125 247.097656 C 308.101562 246.628906 308.640625 246.226562 309.195312 245.957031 C 310.964844 245.101562 312.097656 243.59375 313.3125 242.15625 C 314.898438 240.273438 316.070312 238.144531 317.15625 235.941406 C 317.839844 234.558594 318.210938 233.0625 319.101562 231.746094 C 320.183594 230.148438 320.988281 228.355469 321.894531 226.640625 C 321.972656 226.492188 321.933594 226.285156 321.949219 226.105469 Z M 294.875 260.542969 C 295.296875 260.015625 295.480469 259.84375 295.59375 259.636719 C 296.847656 257.3125 298.15625 255.023438 299.957031 253.058594 C 300.164062 252.835938 300.320312 252.550781 300.425781 252.265625 C 300.976562 250.808594 301.609375 249.371094 302.007812 247.871094 C 302.503906 245.996094 302.964844 244.085938 303.15625 242.164062 C 303.605469 237.664062 303.570312 233.148438 303.089844 228.644531 C 303.066406 228.429688 302.914062 228.226562 302.777344 227.914062 C 302.5 228.179688 302.300781 228.324219 302.160156 228.511719 C 300.964844 230.125 299.796875 231.753906 298.59375 233.355469 C 296.199219 236.542969 294.945312 240.203125 294.066406 244.023438 C 293.835938 245.015625 294.03125 246.0625 293.828125 247.003906 C 293.613281 247.988281 293.722656 248.820312 293.992188 249.714844 C 294.066406 249.953125 294.085938 250.207031 294.113281 250.457031 C 294.34375 252.261719 294.59375 254.066406 294.792969 255.875 C 294.90625 256.933594 295.027344 257.992188 294.789062 259.0625 C 294.714844 259.410156 294.824219 259.796875 294.875 260.542969 Z M 313.21875 245.882812 C 315.050781 245.429688 316.566406 245.058594 318.082031 244.683594 C 319.242188 244.394531 320.390625 244.027344 321.566406 243.824219 C 322.230469 243.710938 322.945312 243.8125 323.625 243.910156 C 324.242188 243.996094 324.417969 244.765625 323.960938 245.226562 C 322.410156 246.789062 320.816406 248.3125 319.3125 249.917969 C 318.324219 250.96875 317.484375 252.160156 316.53125 253.25 C 315.339844 254.617188 314.097656 255.941406 312.851562 257.308594 C 313.128906 257.898438 313.730469 257.964844 314.210938 258.210938 C 316.785156 259.515625 318.734375 261.375 319.578125 264.21875 C 319.792969 264.945312 319.90625 265.667969 319.882812 266.441406 C 319.824219 268.339844 319.53125 270.183594 318.894531 272.039062 C 318.265625 272.238281 317.847656 271.972656 317.460938 271.488281 C 316.835938 270.703125 316.1875 269.929688 315.523438 269.175781 C 313.585938 266.972656 311.085938 265.6875 308.3125 264.878906 C 307.472656 264.632812 306.605469 264.460938 305.738281 264.332031 C 304.714844 264.179688 303.738281 264.386719 302.710938 264.996094 C 303.109375 265.265625 303.417969 265.546875 303.78125 265.703125 C 305.25 266.339844 306.511719 267.230469 307.640625 268.371094 C 308.742188 269.488281 310.011719 270.425781 311.003906 271.664062 C 313.070312 274.238281 314.828125 276.964844 315.800781 280.15625 C 316.398438 282.105469 316.589844 284.105469 316.75 286.105469 C 316.886719 287.796875 316.960938 289.496094 316.925781 291.191406 C 316.863281 294.203125 317.003906 297.226562 316.558594 300.226562 C 316.410156 301.21875 316.507812 302.242188 316.398438 303.238281 C 316.113281 305.863281 315.738281 308.476562 315.015625 311.027344 C 314.898438 311.449219 314.816406 311.882812 314.738281 312.316406 C 314.363281 314.421875 314.0625 316.535156 313.132812 318.5 C 312.867188 319.0625 312.730469 319.695312 312.589844 320.308594 C 311.644531 324.464844 309.644531 328.1875 307.71875 331.941406 C 307.320312 332.71875 306.808594 333.460938 306.234375 334.121094 C 305.449219 335.027344 304.621094 335.882812 304.175781 337.027344 C 304.066406 337.308594 303.816406 337.539062 303.601562 337.773438 C 302.796875 338.65625 301.992188 339.542969 301.164062 340.40625 C 300.464844 341.132812 299.71875 341.78125 298.800781 342.265625 C 297.6875 342.847656 296.679688 343.621094 295.582031 344.238281 C 293.402344 345.460938 291.027344 346.066406 288.550781 346.292969 C 287.171875 346.421875 285.792969 346.566406 284.410156 346.710938 C 282.015625 346.964844 279.667969 346.976562 277.289062 346.316406 C 275.171875 345.730469 273.050781 345.140625 270.933594 344.558594 C 268.511719 343.890625 266.152344 342.976562 264 341.589844 C 262.203125 340.429688 260.300781 339.433594 258.472656 338.3125 C 257.726562 337.855469 257.054688 337.277344 256.351562 336.746094 C 256.203125 336.632812 256.089844 336.46875 255.9375 336.359375 C 252.714844 334.0625 250.792969 330.71875 248.683594 327.511719 C 247.273438 325.375 246.304688 323.070312 245.785156 320.589844 C 245.3125 318.308594 245.148438 316.003906 245.597656 313.679688 C 245.789062 312.695312 245.914062 311.6875 245.957031 310.6875 C 246.074219 307.894531 246.671875 305.199219 247.523438 302.558594 C 248.589844 299.265625 249.644531 295.964844 250.867188 292.730469 C 251.6875 290.566406 252.558594 288.417969 253.800781 286.421875 C 255.460938 283.757812 256.808594 280.902344 258.46875 278.238281 C 259.457031 276.648438 260.773438 275.257812 261.960938 273.796875 C 262.476562 273.160156 263.058594 272.582031 263.59375 271.960938 C 265.597656 269.625 268.132812 267.992188 270.8125 266.546875 C 272.039062 265.886719 273.308594 265.347656 274.667969 265.011719 C 277.179688 264.398438 279.5625 263.355469 282.125 262.898438 C 284.261719 262.519531 286.378906 262.46875 288.503906 262.917969 C 288.910156 263.003906 289.324219 263.039062 289.703125 263.089844 C 289.777344 262.914062 289.839844 262.832031 289.820312 262.800781 C 289.039062 261.625 287.984375 260.722656 286.648438 260.324219 C 284.636719 259.71875 282.777344 258.863281 281.0625 257.660156 C 279.5 256.566406 277.796875 255.75 275.910156 255.378906 C 272.816406 254.773438 270.023438 255.390625 267.632812 257.519531 C 267.539062 257.605469 267.4375 257.679688 267.332031 257.75 C 267.285156 257.785156 267.222656 257.796875 267.164062 257.820312 C 266.359375 257.5625 266.203125 257.433594 266.238281 256.929688 C 266.273438 256.492188 266.324219 256.050781 266.445312 255.632812 C 267.25 252.871094 268.769531 250.609375 271.265625 249.105469 C 273.226562 247.917969 275.316406 247.039062 277.679688 247.125 C 278.175781 247.140625 278.671875 247.265625 279.164062 247.328125 C 279.527344 247.371094 279.890625 247.390625 280.363281 247.429688 C 280.679688 245.222656 280.214844 243.105469 280.371094 240.988281 C 280.527344 238.867188 280.480469 236.730469 280.527344 234.449219 C 280.726562 234.128906 281.15625 234.078125 281.574219 234.324219 C 282.0625 234.605469 282.507812 234.960938 282.941406 235.320312 C 283.808594 236.039062 284.65625 236.78125 285.488281 237.488281 C 286.074219 237.207031 285.820312 236.800781 285.722656 236.492188 C 284.691406 233.148438 284.421875 229.722656 284.695312 226.253906 C 284.835938 224.441406 285.066406 222.628906 285.320312 220.828125 C 285.492188 219.628906 285.519531 218.453125 285.300781 217.265625 C 285.253906 217.027344 285.277344 216.78125 285.265625 216.492188 C 285.863281 216.082031 286.378906 216.214844 286.804688 216.660156 C 287.363281 217.253906 287.851562 217.914062 288.402344 218.515625 C 290.28125 220.5625 291.984375 222.726562 293.359375 225.152344 C 293.941406 226.171875 294.714844 227.082031 295.453125 228.109375 C 295.632812 227.898438 295.800781 227.785156 295.847656 227.636719 C 296.285156 226.128906 296.703125 224.613281 297.136719 223.101562 C 297.21875 222.804688 297.324219 222.511719 297.449219 222.230469 C 298.925781 218.925781 300.960938 215.988281 303.445312 213.363281 C 305.519531 211.167969 307.65625 209.035156 309.773438 206.882812 C 310.164062 206.484375 310.839844 206.550781 311.046875 207.046875 C 311.257812 207.5625 311.40625 208.121094 311.46875 208.671875 C 311.796875 211.605469 312.097656 214.542969 312.464844 217.472656 C 312.753906 219.753906 312.9375 222.085938 312.320312 224.402344 C 311.902344 225.972656 311.726562 227.609375 311.425781 229.316406 C 311.578125 229.539062 311.859375 229.4375 312.152344 229.28125 C 315.480469 227.484375 318.816406 225.707031 322.261719 224.132812 C 323.050781 223.769531 323.679688 223.097656 324.59375 222.957031 C 325.144531 222.871094 325.652344 223.222656 325.582031 223.769531 C 325.496094 224.453125 325.347656 225.109375 324.886719 225.6875 C 324.460938 226.222656 324.089844 226.820312 323.804688 227.4375 C 322.648438 229.949219 321.542969 232.480469 320.40625 235.003906 C 320.226562 235.398438 320.003906 235.777344 319.78125 236.152344 C 317.984375 239.183594 316.058594 242.121094 313.875 244.890625 C 313.695312 245.117188 313.554688 245.371094 313.21875 245.882812 " fill-opacity="1" fill-rule="nonzero"/></g><path fill="#69c9d0" d="M 283.996094 300.683594 C 285.15625 300.382812 286.121094 300.109375 287.09375 299.886719 C 287.65625 299.753906 288.066406 300 288.113281 300.410156 C 288.179688 300.945312 287.863281 301.503906 287.347656 301.515625 C 286.378906 301.53125 285.519531 301.835938 284.660156 302.226562 C 283.898438 302.578125 283.25 302.492188 282.648438 301.796875 C 282.164062 301.238281 281.519531 300.8125 280.949219 300.332031 C 280.757812 300.171875 280.542969 300.035156 280.375 299.859375 C 280.125 299.589844 280.109375 299.011719 280.394531 298.84375 C 280.632812 298.710938 281.03125 298.609375 281.246094 298.714844 C 281.800781 298.988281 282.308594 299.367188 282.816406 299.734375 C 283.21875 300.023438 283.589844 300.355469 283.996094 300.683594 " fill-opacity="1" fill-rule="nonzero"/><path fill="#69c9d0" d="M 298.851562 321.054688 C 299.308594 320.933594 299.851562 320.808594 300.382812 320.648438 C 300.679688 320.5625 300.953125 320.390625 301.25 320.304688 C 301.71875 320.167969 302.203125 320.378906 302.371094 320.753906 C 302.5625 321.1875 302.285156 321.707031 301.714844 321.898438 C 300.59375 322.265625 299.460938 322.605469 298.300781 322.96875 C 298.035156 322.667969 297.804688 322.457031 297.636719 322.210938 C 296.996094 321.257812 296.234375 320.453125 295.089844 320.109375 C 294.972656 320.074219 294.816406 320.003906 294.78125 319.914062 C 294.699219 319.695312 294.59375 319.421875 294.660156 319.226562 C 294.71875 319.042969 294.980469 318.832031 295.175781 318.808594 C 295.757812 318.730469 296.289062 318.941406 296.742188 319.304688 C 297.421875 319.84375 298.082031 320.410156 298.851562 321.054688 " fill-opacity="1" fill-rule="nonzero"/><path fill="#69c9d0" d="M 261.40625 314.207031 C 260.558594 313.183594 259.761719 312.222656 258.96875 311.261719 C 258.886719 311.164062 258.8125 311.0625 258.757812 310.949219 C 258.585938 310.597656 258.503906 310.238281 258.808594 309.910156 C 259.03125 309.671875 259.527344 309.695312 259.828125 309.996094 C 260.402344 310.570312 260.949219 311.171875 261.507812 311.765625 C 261.714844 311.988281 261.917969 312.21875 262.203125 312.53125 C 262.90625 312.277344 263.601562 312.027344 264.296875 311.78125 C 264.675781 311.648438 265.046875 311.605469 265.273438 312.03125 C 265.484375 312.429688 265.339844 312.996094 264.917969 313.148438 C 263.8125 313.550781 262.789062 314.242188 261.40625 314.207031 " fill-opacity="1" fill-rule="nonzero"/><path fill="#69c9d0" d="M 279.449219 333.175781 C 280.453125 332.855469 281.335938 332.542969 282.234375 332.296875 C 282.667969 332.175781 283.007812 332.433594 283.089844 332.8125 C 283.183594 333.246094 282.984375 333.636719 282.625 333.726562 C 281.519531 334.003906 280.5 334.429688 279.515625 334.992188 C 279.183594 335.179688 278.722656 335.09375 278.503906 334.730469 C 277.804688 333.574219 276.804688 332.742188 275.707031 331.996094 C 275.609375 331.929688 275.480469 331.820312 275.472656 331.71875 C 275.445312 331.429688 275.390625 331.097656 275.507812 330.859375 C 275.578125 330.710938 275.964844 330.597656 276.160156 330.652344 C 276.507812 330.746094 276.859375 330.929688 277.140625 331.160156 C 277.910156 331.792969 278.644531 332.46875 279.449219 333.175781 " fill-opacity="1" fill-rule="nonzero"/><path fill="#69c9d0" d="M 273.96875 289.179688 C 274.164062 289.253906 274.222656 289.277344 274.28125 289.300781 C 276.164062 290.027344 276.164062 290.023438 278.140625 289.820312 C 278.785156 289.753906 279.421875 289.820312 279.902344 290.300781 C 280.042969 290.4375 280.066406 290.757812 280.03125 290.976562 C 280.011719 291.097656 279.757812 291.277344 279.617188 291.269531 C 278.527344 291.207031 277.492188 291.449219 276.449219 291.722656 C 276.109375 291.808594 275.660156 291.796875 275.359375 291.636719 C 274.527344 291.203125 273.746094 290.671875 272.957031 290.167969 C 272.679688 289.988281 272.496094 289.726562 272.605469 289.371094 C 272.699219 289.066406 273.152344 288.914062 273.570312 289.039062 C 273.753906 289.089844 273.925781 289.164062 273.96875 289.179688 " fill-opacity="1" fill-rule="nonzero"/><path fill="#69c9d0" d="M 298.6875 280.695312 C 297.472656 280.945312 296.289062 281.339844 294.933594 281.183594 C 294.371094 280.105469 292.726562 279.984375 292.496094 278.550781 C 292.808594 278.058594 293.207031 278.027344 293.65625 278.203125 C 293.769531 278.25 293.886719 278.316406 293.972656 278.402344 C 295.007812 279.453125 296.15625 280.023438 297.703125 279.585938 C 298.273438 279.421875 298.445312 279.695312 298.6875 280.695312 " fill-opacity="1" fill-rule="nonzero"/><path fill="#69c9d0" d="M 302.152344 306.390625 C 302.597656 306.28125 303.132812 306.089844 303.679688 306.046875 C 303.917969 306.027344 304.257812 306.261719 304.414062 306.476562 C 304.628906 306.765625 304.445312 307.296875 304.113281 307.445312 C 303.488281 307.722656 302.855469 308.019531 302.195312 308.175781 C 301.894531 308.246094 301.445312 308.082031 301.191406 307.871094 C 300.464844 307.28125 299.804688 306.613281 299.125 305.96875 C 298.945312 305.800781 298.699219 305.632812 298.640625 305.421875 C 298.5625 305.152344 298.558594 304.796875 298.679688 304.554688 C 298.84375 304.21875 299.238281 304.246094 299.5 304.429688 C 300.367188 305.035156 301.203125 305.683594 302.152344 306.390625 " fill-opacity="1" fill-rule="nonzero"/><g clip-path="url(#id4)"><path fill="#ee1d52" d="M 313.800781 91.71875 C 311.105469 77.851562 299.9375 66.890625 286.003906 64.4375 C 267.914062 61.253906 250.363281 72.636719 246.035156 90.34375 C 245.253906 93.53125 247.203125 96.746094 250.390625 97.527344 C 253.578125 98.304688 256.789062 96.351562 257.566406 93.167969 C 260.464844 81.324219 271.792969 73.984375 283.949219 76.144531 C 292.929688 77.722656 300.40625 85.058594 302.140625 93.984375 C 304.03125 103.707031 299.839844 113.234375 291.472656 118.253906 C 280.417969 124.886719 273.816406 136.296875 273.816406 148.777344 L 273.816406 151.492188 C 273.816406 154.773438 276.472656 157.433594 279.753906 157.433594 C 283.035156 157.433594 285.691406 154.773438 285.691406 151.492188 L 285.691406 148.777344 C 285.691406 140.515625 290.136719 132.914062 297.578125 128.445312 C 310.28125 120.828125 316.652344 106.410156 313.800781 91.71875 Z M 313.800781 91.71875 " fill-opacity="1" fill-rule="nonzero"/></g><path fill="#ee1d52" d="M 280.167969 165.117188 C 276.886719 165.117188 274.230469 167.777344 274.230469 171.058594 L 274.230469 180.746094 C 274.230469 184.027344 276.886719 186.6875 280.167969 186.6875 C 283.445312 186.6875 286.105469 184.027344 286.105469 180.746094 L 286.105469 171.058594 C 286.105469 167.777344 283.445312 165.117188 280.167969 165.117188 Z M 280.167969 165.117188 " fill-opacity="1" fill-rule="nonzero"/></svg>